<mxfile host="app.diagrams.net" modified="2021-02-19T19:36:55.666Z" agent="5.0 (Windows NT 10.0; Win64; x64) AppleWebKit/537.36 (KHTML, like Gecko) Chrome/88.0.4324.150 Safari/537.36" etag="6GnBM1cwyfsk_u6oOMW3" version="14.3.2" type="github">
  <diagram id="rIcxghBZ59T_JrdV1w2Q" name="Page-1">
    <mxGraphModel dx="926" dy="804" grid="1" gridSize="10" guides="1" tooltips="1" connect="1" arrows="1" fold="1" page="1" pageScale="1" pageWidth="1169" pageHeight="827" math="0" shadow="0">
      <root>
        <mxCell id="0" />
        <mxCell id="1" parent="0" />
        <mxCell id="Zs0lDr_UA4FSCecoSCZW-1" value="" style="strokeWidth=1;shadow=0;dashed=0;align=center;html=1;shape=mxgraph.mockup.containers.browserWindow;rSize=0;strokeColor=#666666;strokeColor2=#008cff;strokeColor3=#c4c4c4;mainText=,;recursiveResize=0;" parent="1" vertex="1">
          <mxGeometry x="20" y="20" width="608" height="800" as="geometry" />
        </mxCell>
        <mxCell id="Zs0lDr_UA4FSCecoSCZW-2" value="Landing Page" style="strokeWidth=1;shadow=0;dashed=0;align=center;html=1;shape=mxgraph.mockup.containers.anchor;fontSize=17;fontColor=#666666;align=left;" parent="Zs0lDr_UA4FSCecoSCZW-1" vertex="1">
          <mxGeometry x="60" y="12" width="110" height="26" as="geometry" />
        </mxCell>
        <mxCell id="Zs0lDr_UA4FSCecoSCZW-3" value="https://www.draw.io" style="strokeWidth=1;shadow=0;dashed=0;align=center;html=1;shape=mxgraph.mockup.containers.anchor;rSize=0;fontSize=17;fontColor=#666666;align=left;" parent="Zs0lDr_UA4FSCecoSCZW-1" vertex="1">
          <mxGeometry x="130" y="60" width="250" height="26" as="geometry" />
        </mxCell>
        <mxCell id="Zs0lDr_UA4FSCecoSCZW-4" value="Background image" style="verticalLabelPosition=bottom;shadow=0;dashed=0;align=center;html=1;verticalAlign=top;strokeWidth=1;shape=mxgraph.mockup.graphics.simpleIcon;strokeColor=#999999;" parent="Zs0lDr_UA4FSCecoSCZW-1" vertex="1">
          <mxGeometry x="15" y="130" width="585" height="240" as="geometry" />
        </mxCell>
        <mxCell id="Zs0lDr_UA4FSCecoSCZW-6" value="Logo" style="verticalLabelPosition=bottom;shadow=0;dashed=0;align=center;html=1;verticalAlign=top;strokeWidth=1;shape=mxgraph.mockup.graphics.simpleIcon;strokeColor=#999999;" parent="Zs0lDr_UA4FSCecoSCZW-1" vertex="1">
          <mxGeometry x="20" y="140" width="60" height="70" as="geometry" />
        </mxCell>
        <mxCell id="Zs0lDr_UA4FSCecoSCZW-7" value="" style="shape=mxgraph.mockup.markup.scratchOut;shadow=0;dashed=0;html=1;strokeColor=#999999;strokeWidth=4;" parent="Zs0lDr_UA4FSCecoSCZW-1" vertex="1">
          <mxGeometry x="190" y="290" width="205" height="50" as="geometry" />
        </mxCell>
        <mxCell id="Zs0lDr_UA4FSCecoSCZW-8" value="" style="strokeWidth=1;shadow=0;dashed=0;align=center;html=1;shape=mxgraph.mockup.forms.rrect;rSize=0;strokeColor=#999999;" parent="Zs0lDr_UA4FSCecoSCZW-1" vertex="1">
          <mxGeometry x="280" y="120" width="320.68" height="30" as="geometry" />
        </mxCell>
        <mxCell id="Zs0lDr_UA4FSCecoSCZW-9" value="Inicio" style="strokeColor=inherit;fillColor=inherit;gradientColor=inherit;strokeWidth=1;shadow=0;dashed=0;align=center;html=1;shape=mxgraph.mockup.forms.rrect;rSize=0;fontSize=17;fontColor=#666666;" parent="Zs0lDr_UA4FSCecoSCZW-8" vertex="1">
          <mxGeometry width="53.333333333333336" height="30" as="geometry" />
        </mxCell>
        <mxCell id="Zs0lDr_UA4FSCecoSCZW-10" value="Quienes somos" style="strokeColor=inherit;fillColor=inherit;gradientColor=inherit;strokeWidth=1;shadow=0;dashed=0;align=center;html=1;shape=mxgraph.mockup.forms.rrect;rSize=0;fontSize=17;fontColor=#666666;" parent="Zs0lDr_UA4FSCecoSCZW-8" vertex="1">
          <mxGeometry x="53.33" width="156.67" height="30" as="geometry" />
        </mxCell>
        <mxCell id="Zs0lDr_UA4FSCecoSCZW-12" value="Iniciar sesión" style="strokeColor=inherit;fillColor=inherit;gradientColor=inherit;strokeWidth=1;shadow=0;dashed=0;align=center;html=1;shape=mxgraph.mockup.forms.rrect;rSize=0;fontSize=17;fontColor=#666666;" parent="Zs0lDr_UA4FSCecoSCZW-8" vertex="1">
          <mxGeometry x="210" width="110.68" height="30" as="geometry" />
        </mxCell>
        <mxCell id="Zs0lDr_UA4FSCecoSCZW-15" value="Quienes somos" style="shape=mxgraph.mockup.markup.scratchOut;shadow=0;dashed=0;html=1;strokeColor=#999999;strokeWidth=4;" parent="Zs0lDr_UA4FSCecoSCZW-1" vertex="1">
          <mxGeometry x="194" y="430" width="220" height="30" as="geometry" />
        </mxCell>
        <mxCell id="Zs0lDr_UA4FSCecoSCZW-16" value="" style="shape=mxgraph.mockup.markup.scratchOut;shadow=0;dashed=0;html=1;strokeColor=#999999;strokeWidth=4;" parent="Zs0lDr_UA4FSCecoSCZW-1" vertex="1">
          <mxGeometry x="39" y="480" width="530" height="200" as="geometry" />
        </mxCell>
        <mxCell id="Zs0lDr_UA4FSCecoSCZW-17" value="" style="verticalLabelPosition=bottom;shadow=0;dashed=0;align=center;html=1;verticalAlign=top;strokeWidth=1;shape=mxgraph.mockup.navigation.scrollBar;strokeColor=#999999;barPos=100;fillColor2=#99ddff;strokeColor2=none;direction=north;" parent="Zs0lDr_UA4FSCecoSCZW-1" vertex="1">
          <mxGeometry x="580" y="170" width="20" height="500" as="geometry" />
        </mxCell>
        <mxCell id="Zs0lDr_UA4FSCecoSCZW-30" value="" style="verticalLabelPosition=bottom;shadow=0;dashed=0;align=center;html=1;verticalAlign=top;strokeWidth=1;shape=mxgraph.mockup.markup.line;strokeColor=#999999;" parent="Zs0lDr_UA4FSCecoSCZW-1" vertex="1">
          <mxGeometry x="10" y="700" width="570" height="20" as="geometry" />
        </mxCell>
        <mxCell id="Zs0lDr_UA4FSCecoSCZW-31" value="Footer" style="shape=mxgraph.mockup.markup.scratchOut;shadow=0;dashed=0;html=1;strokeColor=#999999;strokeWidth=4;" parent="Zs0lDr_UA4FSCecoSCZW-1" vertex="1">
          <mxGeometry x="220" y="720" width="175" height="70" as="geometry" />
        </mxCell>
        <mxCell id="Zs0lDr_UA4FSCecoSCZW-32" value="" style="strokeWidth=1;shadow=0;dashed=0;align=center;html=1;shape=mxgraph.mockup.containers.browserWindow;rSize=0;strokeColor=#666666;strokeColor2=#008cff;strokeColor3=#c4c4c4;mainText=,;recursiveResize=0;" parent="1" vertex="1">
          <mxGeometry x="650" y="20" width="608" height="800" as="geometry" />
        </mxCell>
        <mxCell id="Zs0lDr_UA4FSCecoSCZW-33" value="Inicio Sesión" style="strokeWidth=1;shadow=0;dashed=0;align=center;html=1;shape=mxgraph.mockup.containers.anchor;fontSize=17;fontColor=#666666;align=left;" parent="Zs0lDr_UA4FSCecoSCZW-32" vertex="1">
          <mxGeometry x="60" y="12" width="110" height="26" as="geometry" />
        </mxCell>
        <mxCell id="Zs0lDr_UA4FSCecoSCZW-34" value="https://www.draw.io" style="strokeWidth=1;shadow=0;dashed=0;align=center;html=1;shape=mxgraph.mockup.containers.anchor;rSize=0;fontSize=17;fontColor=#666666;align=left;" parent="Zs0lDr_UA4FSCecoSCZW-32" vertex="1">
          <mxGeometry x="130" y="60" width="250" height="26" as="geometry" />
        </mxCell>
        <mxCell id="Zs0lDr_UA4FSCecoSCZW-45" value="" style="verticalLabelPosition=bottom;shadow=0;dashed=0;align=center;html=1;verticalAlign=top;strokeWidth=1;shape=mxgraph.mockup.markup.line;strokeColor=#999999;" parent="Zs0lDr_UA4FSCecoSCZW-32" vertex="1">
          <mxGeometry x="10" y="700" width="570" height="20" as="geometry" />
        </mxCell>
        <mxCell id="Zs0lDr_UA4FSCecoSCZW-46" value="Footer" style="shape=mxgraph.mockup.markup.scratchOut;shadow=0;dashed=0;html=1;strokeColor=#999999;strokeWidth=4;" parent="Zs0lDr_UA4FSCecoSCZW-32" vertex="1">
          <mxGeometry x="220" y="720" width="175" height="70" as="geometry" />
        </mxCell>
        <mxCell id="Zs0lDr_UA4FSCecoSCZW-39" value="Inicio" style="strokeColor=inherit;fillColor=inherit;gradientColor=inherit;strokeWidth=1;shadow=0;dashed=0;align=center;html=1;shape=mxgraph.mockup.forms.rrect;rSize=0;fontSize=17;fontColor=#666666;" parent="Zs0lDr_UA4FSCecoSCZW-32" vertex="1">
          <mxGeometry x="546.6700000000001" y="120" width="53.333333333333336" height="30" as="geometry" />
        </mxCell>
        <mxCell id="Zs0lDr_UA4FSCecoSCZW-48" value="Logo" style="verticalLabelPosition=bottom;shadow=0;dashed=0;align=center;html=1;verticalAlign=top;strokeWidth=1;shape=mxgraph.mockup.graphics.simpleIcon;strokeColor=#999999;" parent="Zs0lDr_UA4FSCecoSCZW-32" vertex="1">
          <mxGeometry x="274" y="160" width="60" height="70" as="geometry" />
        </mxCell>
        <mxCell id="Zs0lDr_UA4FSCecoSCZW-49" value="" style="strokeWidth=1;shadow=0;dashed=0;align=center;html=1;shape=mxgraph.mockup.forms.rrect;rSize=0;strokeColor=#999999;fillColor=#ffffff;" parent="Zs0lDr_UA4FSCecoSCZW-32" vertex="1">
          <mxGeometry x="191.25" y="290" width="232.5" height="340" as="geometry" />
        </mxCell>
        <mxCell id="Zs0lDr_UA4FSCecoSCZW-50" value="Sign In" style="strokeWidth=1;shadow=0;dashed=0;align=center;html=1;shape=mxgraph.mockup.forms.anchor;fontSize=12;fontColor=#666666;align=left;resizeWidth=1;spacingLeft=0;" parent="Zs0lDr_UA4FSCecoSCZW-49" vertex="1">
          <mxGeometry width="116.25000000000001" height="20" relative="1" as="geometry">
            <mxPoint x="10" y="10" as="offset" />
          </mxGeometry>
        </mxCell>
        <mxCell id="Zs0lDr_UA4FSCecoSCZW-51" value="" style="shape=line;strokeColor=#ddeeff;strokeWidth=2;html=1;resizeWidth=1;" parent="Zs0lDr_UA4FSCecoSCZW-49" vertex="1">
          <mxGeometry width="209.25000000000003" height="10" relative="1" as="geometry">
            <mxPoint x="10" y="30" as="offset" />
          </mxGeometry>
        </mxCell>
        <mxCell id="Zs0lDr_UA4FSCecoSCZW-52" value="User Name:" style="strokeWidth=1;shadow=0;dashed=0;align=center;html=1;shape=mxgraph.mockup.forms.anchor;fontSize=12;fontColor=#666666;align=left;resizeWidth=1;spacingLeft=0;" parent="Zs0lDr_UA4FSCecoSCZW-49" vertex="1">
          <mxGeometry width="116.25000000000001" height="20" relative="1" as="geometry">
            <mxPoint x="10" y="40" as="offset" />
          </mxGeometry>
        </mxCell>
        <mxCell id="Zs0lDr_UA4FSCecoSCZW-53" value="johndoe" style="strokeWidth=1;shadow=0;dashed=0;align=center;html=1;shape=mxgraph.mockup.forms.rrect;rSize=0;strokeColor=#999999;fontColor=#666666;align=left;spacingLeft=5;resizeWidth=1;" parent="Zs0lDr_UA4FSCecoSCZW-49" vertex="1">
          <mxGeometry width="174.375" height="25" relative="1" as="geometry">
            <mxPoint x="10" y="60" as="offset" />
          </mxGeometry>
        </mxCell>
        <mxCell id="Zs0lDr_UA4FSCecoSCZW-54" value="Password:" style="strokeWidth=1;shadow=0;dashed=0;align=center;html=1;shape=mxgraph.mockup.forms.anchor;fontSize=12;fontColor=#666666;align=left;resizeWidth=1;spacingLeft=0;" parent="Zs0lDr_UA4FSCecoSCZW-49" vertex="1">
          <mxGeometry width="116.25000000000001" height="20" relative="1" as="geometry">
            <mxPoint x="10" y="95" as="offset" />
          </mxGeometry>
        </mxCell>
        <mxCell id="Zs0lDr_UA4FSCecoSCZW-55" value="********" style="strokeWidth=1;shadow=0;dashed=0;align=center;html=1;shape=mxgraph.mockup.forms.rrect;rSize=0;strokeColor=#999999;fontColor=#666666;align=left;spacingLeft=5;resizeWidth=1;" parent="Zs0lDr_UA4FSCecoSCZW-49" vertex="1">
          <mxGeometry width="174.375" height="25" relative="1" as="geometry">
            <mxPoint x="10" y="115" as="offset" />
          </mxGeometry>
        </mxCell>
        <mxCell id="Zs0lDr_UA4FSCecoSCZW-56" value="SIGN IN" style="strokeWidth=1;shadow=0;dashed=0;align=center;html=1;shape=mxgraph.mockup.forms.rrect;rSize=5;strokeColor=none;fontColor=#ffffff;fillColor=#66bbff;fontSize=16;fontStyle=1;" parent="Zs0lDr_UA4FSCecoSCZW-49" vertex="1">
          <mxGeometry y="1" width="80" height="30" relative="1" as="geometry">
            <mxPoint x="20" y="-150" as="offset" />
          </mxGeometry>
        </mxCell>
        <mxCell id="Zs0lDr_UA4FSCecoSCZW-57" value="Forgot Password?" style="strokeWidth=1;shadow=0;dashed=0;align=center;html=1;shape=mxgraph.mockup.forms.anchor;fontSize=12;fontColor=#9999ff;align=left;spacingLeft=0;fontStyle=4;resizeWidth=1;" parent="Zs0lDr_UA4FSCecoSCZW-49" vertex="1">
          <mxGeometry y="1" width="174.375" height="20" relative="1" as="geometry">
            <mxPoint x="10" y="-110" as="offset" />
          </mxGeometry>
        </mxCell>
        <mxCell id="Zs0lDr_UA4FSCecoSCZW-58" value="" style="shape=line;strokeColor=#ddeeff;strokeWidth=2;html=1;resizeWidth=1;" parent="Zs0lDr_UA4FSCecoSCZW-49" vertex="1">
          <mxGeometry y="1" width="209.25000000000003" height="10" relative="1" as="geometry">
            <mxPoint x="10" y="-90" as="offset" />
          </mxGeometry>
        </mxCell>
        <mxCell id="Zs0lDr_UA4FSCecoSCZW-59" value="New User" style="strokeWidth=1;shadow=0;dashed=0;align=center;html=1;shape=mxgraph.mockup.forms.anchor;fontSize=12;fontColor=#666666;align=left;spacingLeft=0;resizeWidth=1;" parent="Zs0lDr_UA4FSCecoSCZW-49" vertex="1">
          <mxGeometry y="1" width="174.375" height="20" relative="1" as="geometry">
            <mxPoint x="10" y="-70" as="offset" />
          </mxGeometry>
        </mxCell>
        <mxCell id="Zs0lDr_UA4FSCecoSCZW-60" value="SIGN UP" style="strokeWidth=1;shadow=0;dashed=0;align=center;html=1;shape=mxgraph.mockup.forms.rrect;rSize=5;strokeColor=none;fontColor=#ffffff;fillColor=#66bbff;fontSize=16;fontStyle=1;" parent="Zs0lDr_UA4FSCecoSCZW-49" vertex="1">
          <mxGeometry y="1" width="80" height="30" relative="1" as="geometry">
            <mxPoint x="20" y="-50" as="offset" />
          </mxGeometry>
        </mxCell>
        <mxCell id="Zs0lDr_UA4FSCecoSCZW-61" value="" style="strokeWidth=1;shadow=0;dashed=0;align=center;html=1;shape=mxgraph.mockup.containers.browserWindow;rSize=0;strokeColor=#666666;strokeColor2=#008cff;strokeColor3=#c4c4c4;mainText=,;recursiveResize=0;" parent="1" vertex="1">
          <mxGeometry x="1270" y="20" width="608" height="800" as="geometry" />
        </mxCell>
        <mxCell id="Zs0lDr_UA4FSCecoSCZW-62" value="Registro" style="strokeWidth=1;shadow=0;dashed=0;align=center;html=1;shape=mxgraph.mockup.containers.anchor;fontSize=17;fontColor=#666666;align=left;" parent="Zs0lDr_UA4FSCecoSCZW-61" vertex="1">
          <mxGeometry x="60" y="12" width="110" height="26" as="geometry" />
        </mxCell>
        <mxCell id="Zs0lDr_UA4FSCecoSCZW-63" value="https://www.draw.io" style="strokeWidth=1;shadow=0;dashed=0;align=center;html=1;shape=mxgraph.mockup.containers.anchor;rSize=0;fontSize=17;fontColor=#666666;align=left;" parent="Zs0lDr_UA4FSCecoSCZW-61" vertex="1">
          <mxGeometry x="130" y="60" width="250" height="26" as="geometry" />
        </mxCell>
        <mxCell id="Zs0lDr_UA4FSCecoSCZW-64" value="" style="verticalLabelPosition=bottom;shadow=0;dashed=0;align=center;html=1;verticalAlign=top;strokeWidth=1;shape=mxgraph.mockup.markup.line;strokeColor=#999999;" parent="Zs0lDr_UA4FSCecoSCZW-61" vertex="1">
          <mxGeometry x="10" y="700" width="570" height="20" as="geometry" />
        </mxCell>
        <mxCell id="Zs0lDr_UA4FSCecoSCZW-65" value="Footer" style="shape=mxgraph.mockup.markup.scratchOut;shadow=0;dashed=0;html=1;strokeColor=#999999;strokeWidth=4;" parent="Zs0lDr_UA4FSCecoSCZW-61" vertex="1">
          <mxGeometry x="220" y="720" width="175" height="70" as="geometry" />
        </mxCell>
        <mxCell id="Zs0lDr_UA4FSCecoSCZW-66" value="Inicio" style="strokeColor=inherit;fillColor=inherit;gradientColor=inherit;strokeWidth=1;shadow=0;dashed=0;align=center;html=1;shape=mxgraph.mockup.forms.rrect;rSize=0;fontSize=17;fontColor=#666666;" parent="Zs0lDr_UA4FSCecoSCZW-61" vertex="1">
          <mxGeometry x="546.6700000000001" y="120" width="53.333333333333336" height="30" as="geometry" />
        </mxCell>
        <mxCell id="Zs0lDr_UA4FSCecoSCZW-67" value="Logo" style="verticalLabelPosition=bottom;shadow=0;dashed=0;align=center;html=1;verticalAlign=top;strokeWidth=1;shape=mxgraph.mockup.graphics.simpleIcon;strokeColor=#999999;" parent="Zs0lDr_UA4FSCecoSCZW-61" vertex="1">
          <mxGeometry x="274" y="130" width="60" height="70" as="geometry" />
        </mxCell>
        <mxCell id="Zs0lDr_UA4FSCecoSCZW-68" value="" style="strokeWidth=1;shadow=0;dashed=0;align=center;html=1;shape=mxgraph.mockup.forms.rrect;rSize=0;strokeColor=#999999;fillColor=#ffffff;" parent="Zs0lDr_UA4FSCecoSCZW-61" vertex="1">
          <mxGeometry x="191.25" y="240" width="232.5" height="430" as="geometry" />
        </mxCell>
        <mxCell id="Zs0lDr_UA4FSCecoSCZW-69" value="Registro" style="strokeWidth=1;shadow=0;dashed=0;align=center;html=1;shape=mxgraph.mockup.forms.anchor;fontSize=12;fontColor=#666666;align=left;resizeWidth=1;spacingLeft=0;" parent="Zs0lDr_UA4FSCecoSCZW-68" vertex="1">
          <mxGeometry width="116.25000000000001" height="20" relative="1" as="geometry">
            <mxPoint x="10" y="10" as="offset" />
          </mxGeometry>
        </mxCell>
        <mxCell id="Zs0lDr_UA4FSCecoSCZW-70" value="" style="shape=line;strokeColor=#ddeeff;strokeWidth=2;html=1;resizeWidth=1;" parent="Zs0lDr_UA4FSCecoSCZW-68" vertex="1">
          <mxGeometry width="209.25000000000003" height="10" relative="1" as="geometry">
            <mxPoint x="10" y="30" as="offset" />
          </mxGeometry>
        </mxCell>
        <mxCell id="Zs0lDr_UA4FSCecoSCZW-71" value="User Name:" style="strokeWidth=1;shadow=0;dashed=0;align=center;html=1;shape=mxgraph.mockup.forms.anchor;fontSize=12;fontColor=#666666;align=left;resizeWidth=1;spacingLeft=0;" parent="Zs0lDr_UA4FSCecoSCZW-68" vertex="1">
          <mxGeometry width="116.25000000000001" height="20" relative="1" as="geometry">
            <mxPoint x="10" y="40" as="offset" />
          </mxGeometry>
        </mxCell>
        <mxCell id="Zs0lDr_UA4FSCecoSCZW-72" value="johndoe" style="strokeWidth=1;shadow=0;dashed=0;align=center;html=1;shape=mxgraph.mockup.forms.rrect;rSize=0;strokeColor=#999999;fontColor=#666666;align=left;spacingLeft=5;resizeWidth=1;" parent="Zs0lDr_UA4FSCecoSCZW-68" vertex="1">
          <mxGeometry width="174.375" height="25" relative="1" as="geometry">
            <mxPoint x="10" y="60" as="offset" />
          </mxGeometry>
        </mxCell>
        <mxCell id="Zs0lDr_UA4FSCecoSCZW-73" value="Password:" style="strokeWidth=1;shadow=0;dashed=0;align=center;html=1;shape=mxgraph.mockup.forms.anchor;fontSize=12;fontColor=#666666;align=left;resizeWidth=1;spacingLeft=0;" parent="Zs0lDr_UA4FSCecoSCZW-68" vertex="1">
          <mxGeometry width="116.25000000000001" height="20" relative="1" as="geometry">
            <mxPoint x="10" y="95" as="offset" />
          </mxGeometry>
        </mxCell>
        <mxCell id="Zs0lDr_UA4FSCecoSCZW-74" value="********" style="strokeWidth=1;shadow=0;dashed=0;align=center;html=1;shape=mxgraph.mockup.forms.rrect;rSize=0;strokeColor=#999999;fontColor=#666666;align=left;spacingLeft=5;resizeWidth=1;" parent="Zs0lDr_UA4FSCecoSCZW-68" vertex="1">
          <mxGeometry width="174.375" height="25" relative="1" as="geometry">
            <mxPoint x="10" y="115" as="offset" />
          </mxGeometry>
        </mxCell>
        <mxCell id="Zs0lDr_UA4FSCecoSCZW-79" value="SIGN UP" style="strokeWidth=1;shadow=0;dashed=0;align=center;html=1;shape=mxgraph.mockup.forms.rrect;rSize=5;strokeColor=none;fontColor=#ffffff;fillColor=#66bbff;fontSize=16;fontStyle=1;" parent="Zs0lDr_UA4FSCecoSCZW-68" vertex="1">
          <mxGeometry y="1" width="80" height="30" relative="1" as="geometry">
            <mxPoint x="76.25" y="-110" as="offset" />
          </mxGeometry>
        </mxCell>
        <mxCell id="Zs0lDr_UA4FSCecoSCZW-82" value="Email" style="strokeWidth=1;shadow=0;dashed=0;align=center;html=1;shape=mxgraph.mockup.forms.anchor;fontSize=12;fontColor=#666666;align=left;resizeWidth=1;spacingLeft=0;" parent="Zs0lDr_UA4FSCecoSCZW-68" vertex="1">
          <mxGeometry x="8.75" y="154" width="116.25000000000001" height="20" as="geometry" />
        </mxCell>
        <mxCell id="Zs0lDr_UA4FSCecoSCZW-83" value="john@mail.com" style="strokeWidth=1;shadow=0;dashed=0;align=center;html=1;shape=mxgraph.mockup.forms.rrect;rSize=0;strokeColor=#999999;fontColor=#666666;align=left;spacingLeft=5;resizeWidth=1;" parent="Zs0lDr_UA4FSCecoSCZW-68" vertex="1">
          <mxGeometry x="8.75" y="174" width="174.375" height="25" as="geometry" />
        </mxCell>
        <mxCell id="Zs0lDr_UA4FSCecoSCZW-126" value="" style="strokeWidth=1;shadow=0;dashed=0;align=center;html=1;shape=mxgraph.mockup.forms.rrect;rSize=0;strokeColor=#999999;fillColor=#ffffff;recursiveResize=0;" parent="Zs0lDr_UA4FSCecoSCZW-68" vertex="1">
          <mxGeometry x="41.25" y="220" width="150" height="60" as="geometry" />
        </mxCell>
        <mxCell id="Zs0lDr_UA4FSCecoSCZW-127" value="Coach" style="shape=ellipse;rSize=0;fillColor=#eeeeee;strokeColor=#999999;gradientColor=#cccccc;html=1;align=left;spacingLeft=4;fontSize=17;fontColor=#666666;labelPosition=right;" parent="Zs0lDr_UA4FSCecoSCZW-126" vertex="1">
          <mxGeometry x="8" y="7.5" width="15" height="15" as="geometry" />
        </mxCell>
        <mxCell id="Zs0lDr_UA4FSCecoSCZW-128" value="User" style="shape=ellipse;rSize=0;fillColor=#eeeeee;strokeColor=#999999;gradientColor=#cccccc;html=1;align=left;spacingLeft=4;fontSize=17;fontColor=#666666;labelPosition=right;" parent="Zs0lDr_UA4FSCecoSCZW-126" vertex="1">
          <mxGeometry x="8" y="37.5" width="15" height="15" as="geometry" />
        </mxCell>
        <mxCell id="Zs0lDr_UA4FSCecoSCZW-84" value="" style="strokeWidth=1;shadow=0;dashed=0;align=center;html=1;shape=mxgraph.mockup.containers.browserWindow;rSize=0;strokeColor=#666666;strokeColor2=#008cff;strokeColor3=#c4c4c4;mainText=,;recursiveResize=0;" parent="1" vertex="1">
          <mxGeometry x="1890" y="20" width="608" height="800" as="geometry" />
        </mxCell>
        <mxCell id="Zs0lDr_UA4FSCecoSCZW-85" value="Perfil coach" style="strokeWidth=1;shadow=0;dashed=0;align=center;html=1;shape=mxgraph.mockup.containers.anchor;fontSize=17;fontColor=#666666;align=left;" parent="Zs0lDr_UA4FSCecoSCZW-84" vertex="1">
          <mxGeometry x="60" y="12" width="110" height="26" as="geometry" />
        </mxCell>
        <mxCell id="Zs0lDr_UA4FSCecoSCZW-86" value="https://www.draw.io" style="strokeWidth=1;shadow=0;dashed=0;align=center;html=1;shape=mxgraph.mockup.containers.anchor;rSize=0;fontSize=17;fontColor=#666666;align=left;" parent="Zs0lDr_UA4FSCecoSCZW-84" vertex="1">
          <mxGeometry x="130" y="60" width="250" height="26" as="geometry" />
        </mxCell>
        <mxCell id="Zs0lDr_UA4FSCecoSCZW-87" value="" style="verticalLabelPosition=bottom;shadow=0;dashed=0;align=center;html=1;verticalAlign=top;strokeWidth=1;shape=mxgraph.mockup.markup.line;strokeColor=#999999;" parent="Zs0lDr_UA4FSCecoSCZW-84" vertex="1">
          <mxGeometry x="10" y="700" width="570" height="20" as="geometry" />
        </mxCell>
        <mxCell id="Zs0lDr_UA4FSCecoSCZW-88" value="Footer" style="shape=mxgraph.mockup.markup.scratchOut;shadow=0;dashed=0;html=1;strokeColor=#999999;strokeWidth=4;" parent="Zs0lDr_UA4FSCecoSCZW-84" vertex="1">
          <mxGeometry x="220" y="720" width="175" height="70" as="geometry" />
        </mxCell>
        <mxCell id="Zs0lDr_UA4FSCecoSCZW-89" value="Log Out" style="strokeColor=inherit;fillColor=inherit;gradientColor=inherit;strokeWidth=1;shadow=0;dashed=0;align=center;html=1;shape=mxgraph.mockup.forms.rrect;rSize=0;fontSize=17;fontColor=#666666;" parent="Zs0lDr_UA4FSCecoSCZW-84" vertex="1">
          <mxGeometry x="520" y="120" width="80" height="30" as="geometry" />
        </mxCell>
        <mxCell id="Zs0lDr_UA4FSCecoSCZW-90" value="Logo" style="verticalLabelPosition=bottom;shadow=0;dashed=0;align=center;html=1;verticalAlign=top;strokeWidth=1;shape=mxgraph.mockup.graphics.simpleIcon;strokeColor=#999999;" parent="Zs0lDr_UA4FSCecoSCZW-84" vertex="1">
          <mxGeometry x="10" y="120" width="60" height="30" as="geometry" />
        </mxCell>
        <mxCell id="Zs0lDr_UA4FSCecoSCZW-102" value="" style="verticalLabelPosition=bottom;shadow=0;dashed=0;align=center;html=1;verticalAlign=top;strokeWidth=1;shape=mxgraph.mockup.containers.userMale;strokeColor=#666666;strokeColor2=#008cff;" parent="Zs0lDr_UA4FSCecoSCZW-84" vertex="1">
          <mxGeometry x="20" y="200" width="100" height="100" as="geometry" />
        </mxCell>
        <mxCell id="Zs0lDr_UA4FSCecoSCZW-103" value="Nombre" style="strokeWidth=1;shadow=0;dashed=0;align=center;html=1;shape=mxgraph.mockup.text.textBox;fontColor=#666666;align=left;fontSize=17;spacingLeft=4;spacingTop=-3;strokeColor=#666666;mainText=" parent="Zs0lDr_UA4FSCecoSCZW-84" vertex="1">
          <mxGeometry x="20" y="320" width="100" height="30" as="geometry" />
        </mxCell>
        <mxCell id="Zs0lDr_UA4FSCecoSCZW-105" value="Descripción" style="strokeWidth=1;shadow=0;dashed=0;align=center;html=1;shape=mxgraph.mockup.text.textBox;fontColor=#666666;align=left;fontSize=17;spacingLeft=4;spacingTop=-3;strokeColor=#666666;mainText=" parent="Zs0lDr_UA4FSCecoSCZW-84" vertex="1">
          <mxGeometry x="140" y="200" width="430" height="150" as="geometry" />
        </mxCell>
        <mxCell id="Zs0lDr_UA4FSCecoSCZW-106" value="Especialidades" style="strokeWidth=1;shadow=0;dashed=0;align=center;html=1;shape=mxgraph.mockup.text.textBox;fontColor=#666666;align=left;fontSize=17;spacingLeft=4;spacingTop=-3;strokeColor=#666666;mainText=" parent="Zs0lDr_UA4FSCecoSCZW-84" vertex="1">
          <mxGeometry x="40" y="366" width="150" height="30" as="geometry" />
        </mxCell>
        <mxCell id="Zs0lDr_UA4FSCecoSCZW-107" value="Años de experiencia" style="strokeWidth=1;shadow=0;dashed=0;align=center;html=1;shape=mxgraph.mockup.text.textBox;fontColor=#666666;align=left;fontSize=17;spacingLeft=4;spacingTop=-3;strokeColor=#666666;mainText=" parent="Zs0lDr_UA4FSCecoSCZW-84" vertex="1">
          <mxGeometry x="229" y="366" width="171" height="30" as="geometry" />
        </mxCell>
        <mxCell id="Zs0lDr_UA4FSCecoSCZW-108" value="Disciplinas" style="strokeWidth=1;shadow=0;dashed=0;align=center;html=1;shape=mxgraph.mockup.text.textBox;fontColor=#666666;align=left;fontSize=17;spacingLeft=4;spacingTop=-3;strokeColor=#666666;mainText=" parent="Zs0lDr_UA4FSCecoSCZW-84" vertex="1">
          <mxGeometry x="420" y="366" width="150" height="30" as="geometry" />
        </mxCell>
        <mxCell id="Zs0lDr_UA4FSCecoSCZW-109" value="" style="strokeWidth=1;shadow=0;dashed=0;align=center;html=1;shape=mxgraph.mockup.forms.rrect;rSize=0;strokeColor=#999999;fillColor=#ffffff;recursiveResize=0;" parent="Zs0lDr_UA4FSCecoSCZW-84" vertex="1">
          <mxGeometry x="420" y="402" width="150" height="120" as="geometry" />
        </mxCell>
        <mxCell id="Zs0lDr_UA4FSCecoSCZW-110" value="Option 1" style="strokeWidth=1;shadow=0;dashed=0;align=center;html=1;shape=mxgraph.mockup.forms.rrect;rSize=0;fillColor=#eeeeee;strokeColor=#999999;gradientColor=#cccccc;align=left;spacingLeft=4;fontSize=17;fontColor=#666666;labelPosition=right;" parent="Zs0lDr_UA4FSCecoSCZW-109" vertex="1">
          <mxGeometry x="8" y="7.5" width="15" height="15" as="geometry" />
        </mxCell>
        <mxCell id="Zs0lDr_UA4FSCecoSCZW-111" value="Option 2" style="strokeWidth=1;shadow=0;dashed=0;align=center;html=1;shape=mxgraph.mockup.forms.rrect;rSize=0;fillColor=#eeeeee;strokeColor=#999999;gradientColor=#cccccc;align=left;spacingLeft=4;fontSize=17;fontColor=#666666;labelPosition=right;" parent="Zs0lDr_UA4FSCecoSCZW-109" vertex="1">
          <mxGeometry x="8" y="37.5" width="15" height="15" as="geometry" />
        </mxCell>
        <mxCell id="Zs0lDr_UA4FSCecoSCZW-112" value="Option 3" style="strokeWidth=1;shadow=0;dashed=0;align=center;html=1;shape=mxgraph.mockup.forms.checkbox;rSize=0;resizable=0;fillColor=#aaaaaa;strokeColor=#444444;gradientColor=#666666;align=left;spacingLeft=4;fontSize=17;fontColor=#008cff;labelPosition=right;" parent="Zs0lDr_UA4FSCecoSCZW-109" vertex="1">
          <mxGeometry x="8" y="67.5" width="15" height="15" as="geometry" />
        </mxCell>
        <mxCell id="Zs0lDr_UA4FSCecoSCZW-113" value="Option 4" style="strokeWidth=1;shadow=0;dashed=0;align=center;html=1;shape=mxgraph.mockup.forms.rrect;rSize=0;fillColor=#eeeeee;strokeColor=#999999;gradientColor=#cccccc;align=left;spacingLeft=4;fontSize=17;fontColor=#666666;labelPosition=right;" parent="Zs0lDr_UA4FSCecoSCZW-109" vertex="1">
          <mxGeometry x="8" y="97.5" width="15" height="15" as="geometry" />
        </mxCell>
        <mxCell id="Zs0lDr_UA4FSCecoSCZW-114" value="" style="strokeWidth=1;shadow=0;dashed=0;align=center;html=1;shape=mxgraph.mockup.forms.rrect;rSize=0;strokeColor=#999999;fillColor=#ffffff;recursiveResize=0;" parent="Zs0lDr_UA4FSCecoSCZW-84" vertex="1">
          <mxGeometry x="40" y="402" width="150" height="120" as="geometry" />
        </mxCell>
        <mxCell id="Zs0lDr_UA4FSCecoSCZW-115" value="Option 1" style="strokeWidth=1;shadow=0;dashed=0;align=center;html=1;shape=mxgraph.mockup.forms.rrect;rSize=0;fillColor=#eeeeee;strokeColor=#999999;gradientColor=#cccccc;align=left;spacingLeft=4;fontSize=17;fontColor=#666666;labelPosition=right;" parent="Zs0lDr_UA4FSCecoSCZW-114" vertex="1">
          <mxGeometry x="8" y="7.5" width="15" height="15" as="geometry" />
        </mxCell>
        <mxCell id="Zs0lDr_UA4FSCecoSCZW-116" value="Option 2" style="strokeWidth=1;shadow=0;dashed=0;align=center;html=1;shape=mxgraph.mockup.forms.rrect;rSize=0;fillColor=#eeeeee;strokeColor=#999999;gradientColor=#cccccc;align=left;spacingLeft=4;fontSize=17;fontColor=#666666;labelPosition=right;" parent="Zs0lDr_UA4FSCecoSCZW-114" vertex="1">
          <mxGeometry x="8" y="37.5" width="15" height="15" as="geometry" />
        </mxCell>
        <mxCell id="Zs0lDr_UA4FSCecoSCZW-117" value="Option 3" style="strokeWidth=1;shadow=0;dashed=0;align=center;html=1;shape=mxgraph.mockup.forms.checkbox;rSize=0;resizable=0;fillColor=#aaaaaa;strokeColor=#444444;gradientColor=#666666;align=left;spacingLeft=4;fontSize=17;fontColor=#008cff;labelPosition=right;" parent="Zs0lDr_UA4FSCecoSCZW-114" vertex="1">
          <mxGeometry x="8" y="67.5" width="15" height="15" as="geometry" />
        </mxCell>
        <mxCell id="Zs0lDr_UA4FSCecoSCZW-118" value="Option 4" style="strokeWidth=1;shadow=0;dashed=0;align=center;html=1;shape=mxgraph.mockup.forms.rrect;rSize=0;fillColor=#eeeeee;strokeColor=#999999;gradientColor=#cccccc;align=left;spacingLeft=4;fontSize=17;fontColor=#666666;labelPosition=right;" parent="Zs0lDr_UA4FSCecoSCZW-114" vertex="1">
          <mxGeometry x="8" y="97.5" width="15" height="15" as="geometry" />
        </mxCell>
        <mxCell id="Zs0lDr_UA4FSCecoSCZW-119" value="Subir archivos" style="strokeWidth=1;shadow=0;dashed=0;align=center;html=1;shape=mxgraph.mockup.buttons.button;strokeColor=#666666;fontColor=#ffffff;mainText=;buttonStyle=round;fontSize=17;fontStyle=1;fillColor=#008cff;whiteSpace=wrap;" parent="Zs0lDr_UA4FSCecoSCZW-84" vertex="1">
          <mxGeometry x="240" y="522" width="140" height="20" as="geometry" />
        </mxCell>
        <mxCell id="Zs0lDr_UA4FSCecoSCZW-120" value="" style="verticalLabelPosition=bottom;shadow=0;dashed=0;align=center;html=1;verticalAlign=top;strokeWidth=1;shape=mxgraph.mockup.containers.videoPlayer;strokeColor=#666666;strokeColor2=#008cff;strokeColor3=#c4c4c4;textColor=#666666;fillColor2=#008cff;barHeight=30;barPos=20;" parent="Zs0lDr_UA4FSCecoSCZW-84" vertex="1">
          <mxGeometry x="40" y="550" width="162.5" height="90" as="geometry" />
        </mxCell>
        <mxCell id="Zs0lDr_UA4FSCecoSCZW-121" value="" style="shape=mxgraph.mockup.markup.scratchOut;shadow=0;dashed=0;html=1;strokeColor=#d6b656;strokeWidth=4;fillColor=#fff2cc;" parent="Zs0lDr_UA4FSCecoSCZW-84" vertex="1">
          <mxGeometry x="40" y="650" width="160" height="50" as="geometry" />
        </mxCell>
        <mxCell id="Zs0lDr_UA4FSCecoSCZW-122" value="" style="verticalLabelPosition=bottom;shadow=0;dashed=0;align=center;html=1;verticalAlign=top;strokeWidth=1;shape=mxgraph.mockup.containers.videoPlayer;strokeColor=#666666;strokeColor2=#008cff;strokeColor3=#c4c4c4;textColor=#666666;fillColor2=#008cff;barHeight=30;barPos=20;" parent="Zs0lDr_UA4FSCecoSCZW-84" vertex="1">
          <mxGeometry x="226.25" y="550" width="162.5" height="90" as="geometry" />
        </mxCell>
        <mxCell id="Zs0lDr_UA4FSCecoSCZW-123" value="" style="shape=mxgraph.mockup.markup.scratchOut;shadow=0;dashed=0;html=1;strokeColor=#d6b656;strokeWidth=4;fillColor=#fff2cc;" parent="Zs0lDr_UA4FSCecoSCZW-84" vertex="1">
          <mxGeometry x="226.25" y="650" width="160" height="50" as="geometry" />
        </mxCell>
        <mxCell id="Zs0lDr_UA4FSCecoSCZW-124" value="" style="verticalLabelPosition=bottom;shadow=0;dashed=0;align=center;html=1;verticalAlign=top;strokeWidth=1;shape=mxgraph.mockup.containers.videoPlayer;strokeColor=#666666;strokeColor2=#008cff;strokeColor3=#c4c4c4;textColor=#666666;fillColor2=#008cff;barHeight=30;barPos=20;" parent="Zs0lDr_UA4FSCecoSCZW-84" vertex="1">
          <mxGeometry x="413.75" y="550" width="162.5" height="90" as="geometry" />
        </mxCell>
        <mxCell id="Zs0lDr_UA4FSCecoSCZW-125" value="" style="shape=mxgraph.mockup.markup.scratchOut;shadow=0;dashed=0;html=1;strokeColor=#d6b656;strokeWidth=4;fillColor=#fff2cc;" parent="Zs0lDr_UA4FSCecoSCZW-84" vertex="1">
          <mxGeometry x="413.75" y="650" width="160" height="50" as="geometry" />
        </mxCell>
        <mxCell id="Zs0lDr_UA4FSCecoSCZW-133" value="Ver agenda" style="strokeWidth=1;shadow=0;dashed=0;align=center;html=1;shape=mxgraph.mockup.buttons.button;strokeColor=#666666;fontColor=#ffffff;mainText=;buttonStyle=round;fontSize=17;fontStyle=1;fillColor=#008cff;whiteSpace=wrap;" parent="Zs0lDr_UA4FSCecoSCZW-84" vertex="1">
          <mxGeometry x="418.75" y="170" width="150" height="30" as="geometry" />
        </mxCell>
        <mxCell id="Zs0lDr_UA4FSCecoSCZW-641" value="Precio de la cita" style="strokeWidth=1;shadow=0;dashed=0;align=center;html=1;shape=mxgraph.mockup.text.textBox;fontColor=#666666;align=left;fontSize=17;spacingLeft=4;spacingTop=-3;strokeColor=#666666;mainText=" parent="Zs0lDr_UA4FSCecoSCZW-84" vertex="1">
          <mxGeometry x="229" y="400" width="171" height="30" as="geometry" />
        </mxCell>
        <mxCell id="Zs0lDr_UA4FSCecoSCZW-737" value="" style="shape=image;html=1;verticalAlign=top;verticalLabelPosition=bottom;labelBackgroundColor=#ffffff;imageAspect=0;aspect=fixed;image=https://cdn2.iconfinder.com/data/icons/social-media-applications/64/social_media_applications_3-instagram-128.png;fillColor=none;fontColor=#FFFFFF;" parent="Zs0lDr_UA4FSCecoSCZW-84" vertex="1">
          <mxGeometry x="229" y="480" width="30" height="30" as="geometry" />
        </mxCell>
        <mxCell id="Zs0lDr_UA4FSCecoSCZW-739" value="" style="shape=image;html=1;verticalAlign=top;verticalLabelPosition=bottom;labelBackgroundColor=#ffffff;imageAspect=0;aspect=fixed;image=https://cdn4.iconfinder.com/data/icons/social-media-logos-6/512/83-facebook-128.png;fillColor=none;fontColor=#FFFFFF;" parent="Zs0lDr_UA4FSCecoSCZW-84" vertex="1">
          <mxGeometry x="229" y="440" width="30" height="30" as="geometry" />
        </mxCell>
        <mxCell id="Zs0lDr_UA4FSCecoSCZW-740" value="Link" style="strokeWidth=1;shadow=0;dashed=0;align=center;html=1;shape=mxgraph.mockup.text.textBox;fontColor=#666666;align=left;fontSize=17;spacingLeft=4;spacingTop=-3;strokeColor=#666666;mainText=" parent="Zs0lDr_UA4FSCecoSCZW-84" vertex="1">
          <mxGeometry x="269.5" y="440" width="130.5" height="30" as="geometry" />
        </mxCell>
        <mxCell id="Zs0lDr_UA4FSCecoSCZW-741" value="Link" style="strokeWidth=1;shadow=0;dashed=0;align=center;html=1;shape=mxgraph.mockup.text.textBox;fontColor=#666666;align=left;fontSize=17;spacingLeft=4;spacingTop=-3;strokeColor=#666666;mainText=" parent="Zs0lDr_UA4FSCecoSCZW-84" vertex="1">
          <mxGeometry x="269.5" y="480" width="130.5" height="30" as="geometry" />
        </mxCell>
        <mxCell id="Zs0lDr_UA4FSCecoSCZW-747" value="Ver transacciones" style="strokeWidth=1;shadow=0;dashed=0;align=center;html=1;shape=mxgraph.mockup.buttons.button;strokeColor=#666666;fontColor=#ffffff;mainText=;buttonStyle=round;fontSize=17;fontStyle=1;fillColor=#008cff;whiteSpace=wrap;" parent="Zs0lDr_UA4FSCecoSCZW-84" vertex="1">
          <mxGeometry x="259.75" y="170" width="150" height="30" as="geometry" />
        </mxCell>
        <mxCell id="Zs0lDr_UA4FSCecoSCZW-137" value="" style="strokeWidth=1;shadow=0;dashed=0;align=center;html=1;shape=mxgraph.mockup.containers.browserWindow;rSize=0;strokeColor=#666666;strokeColor2=#008cff;strokeColor3=#c4c4c4;mainText=,;recursiveResize=0;" parent="1" vertex="1">
          <mxGeometry x="2510" y="20" width="608" height="800" as="geometry" />
        </mxCell>
        <mxCell id="Zs0lDr_UA4FSCecoSCZW-138" value="Agenda Coach" style="strokeWidth=1;shadow=0;dashed=0;align=center;html=1;shape=mxgraph.mockup.containers.anchor;fontSize=17;fontColor=#666666;align=left;" parent="Zs0lDr_UA4FSCecoSCZW-137" vertex="1">
          <mxGeometry x="60" y="12" width="110" height="26" as="geometry" />
        </mxCell>
        <mxCell id="Zs0lDr_UA4FSCecoSCZW-139" value="https://www.draw.io" style="strokeWidth=1;shadow=0;dashed=0;align=center;html=1;shape=mxgraph.mockup.containers.anchor;rSize=0;fontSize=17;fontColor=#666666;align=left;" parent="Zs0lDr_UA4FSCecoSCZW-137" vertex="1">
          <mxGeometry x="130" y="60" width="250" height="26" as="geometry" />
        </mxCell>
        <mxCell id="Zs0lDr_UA4FSCecoSCZW-140" value="" style="verticalLabelPosition=bottom;shadow=0;dashed=0;align=center;html=1;verticalAlign=top;strokeWidth=1;shape=mxgraph.mockup.markup.line;strokeColor=#999999;" parent="Zs0lDr_UA4FSCecoSCZW-137" vertex="1">
          <mxGeometry x="10" y="700" width="570" height="20" as="geometry" />
        </mxCell>
        <mxCell id="Zs0lDr_UA4FSCecoSCZW-141" value="Footer" style="shape=mxgraph.mockup.markup.scratchOut;shadow=0;dashed=0;html=1;strokeColor=#999999;strokeWidth=4;" parent="Zs0lDr_UA4FSCecoSCZW-137" vertex="1">
          <mxGeometry x="220" y="720" width="175" height="70" as="geometry" />
        </mxCell>
        <mxCell id="Zs0lDr_UA4FSCecoSCZW-142" value="Log Out" style="strokeColor=inherit;fillColor=inherit;gradientColor=inherit;strokeWidth=1;shadow=0;dashed=0;align=center;html=1;shape=mxgraph.mockup.forms.rrect;rSize=0;fontSize=17;fontColor=#666666;" parent="Zs0lDr_UA4FSCecoSCZW-137" vertex="1">
          <mxGeometry x="520" y="120" width="80" height="30" as="geometry" />
        </mxCell>
        <mxCell id="Zs0lDr_UA4FSCecoSCZW-143" value="Logo" style="verticalLabelPosition=bottom;shadow=0;dashed=0;align=center;html=1;verticalAlign=top;strokeWidth=1;shape=mxgraph.mockup.graphics.simpleIcon;strokeColor=#999999;" parent="Zs0lDr_UA4FSCecoSCZW-137" vertex="1">
          <mxGeometry x="10" y="120" width="60" height="30" as="geometry" />
        </mxCell>
        <mxCell id="Zs0lDr_UA4FSCecoSCZW-145" value="Nombre" style="strokeWidth=1;shadow=0;dashed=0;align=center;html=1;shape=mxgraph.mockup.text.textBox;fontColor=#666666;align=left;fontSize=17;spacingLeft=4;spacingTop=-3;strokeColor=#666666;mainText=" parent="Zs0lDr_UA4FSCecoSCZW-137" vertex="1">
          <mxGeometry x="413.75" y="120" width="100" height="30" as="geometry" />
        </mxCell>
        <mxCell id="Zs0lDr_UA4FSCecoSCZW-314" value="" style="strokeWidth=1;shadow=0;dashed=0;align=center;html=1;shape=mxgraph.mockup.forms.rrect;rSize=0;strokeColor=#999999;fillColor=#ffffff;recursiveResize=0;" parent="Zs0lDr_UA4FSCecoSCZW-137" vertex="1">
          <mxGeometry x="20" y="430" width="550" height="260" as="geometry" />
        </mxCell>
        <mxCell id="Zs0lDr_UA4FSCecoSCZW-315" value="8:00am - Disponible" style="strokeWidth=1;shadow=0;dashed=0;align=center;html=1;shape=mxgraph.mockup.forms.rrect;rSize=0;fillColor=#eeeeee;strokeColor=#999999;gradientColor=#cccccc;align=left;spacingLeft=4;fontSize=17;fontColor=#666666;labelPosition=right;" parent="Zs0lDr_UA4FSCecoSCZW-314" vertex="1">
          <mxGeometry x="8" y="7.5" width="15" height="15" as="geometry" />
        </mxCell>
        <mxCell id="Zs0lDr_UA4FSCecoSCZW-316" value="9:00am - No disponible" style="strokeWidth=1;shadow=0;dashed=0;align=center;html=1;shape=mxgraph.mockup.forms.rrect;rSize=0;fillColor=#eeeeee;strokeColor=#999999;gradientColor=#cccccc;align=left;spacingLeft=4;fontSize=17;fontColor=#666666;labelPosition=right;" parent="Zs0lDr_UA4FSCecoSCZW-314" vertex="1">
          <mxGeometry x="8" y="37.5" width="15" height="15" as="geometry" />
        </mxCell>
        <mxCell id="Zs0lDr_UA4FSCecoSCZW-317" value="4:00pm - Sara" style="strokeWidth=1;shadow=0;dashed=0;align=center;html=1;shape=mxgraph.mockup.forms.checkbox;rSize=0;resizable=0;fillColor=#aaaaaa;strokeColor=#444444;gradientColor=#666666;align=left;spacingLeft=4;fontSize=17;fontColor=#008cff;labelPosition=right;" parent="Zs0lDr_UA4FSCecoSCZW-314" vertex="1">
          <mxGeometry x="8" y="67.5" width="15" height="15" as="geometry" />
        </mxCell>
        <mxCell id="Zs0lDr_UA4FSCecoSCZW-318" value="Option 4" style="strokeWidth=1;shadow=0;dashed=0;align=center;html=1;shape=mxgraph.mockup.forms.rrect;rSize=0;fillColor=#eeeeee;strokeColor=#999999;gradientColor=#cccccc;align=left;spacingLeft=4;fontSize=17;fontColor=#666666;labelPosition=right;" parent="Zs0lDr_UA4FSCecoSCZW-314" vertex="1">
          <mxGeometry x="8" y="97.5" width="15" height="15" as="geometry" />
        </mxCell>
        <mxCell id="Zs0lDr_UA4FSCecoSCZW-394" value="Info básica" style="strokeWidth=1;shadow=0;dashed=0;align=center;html=1;shape=mxgraph.mockup.containers.window;align=left;verticalAlign=top;spacingLeft=8;strokeColor2=#008cff;strokeColor3=#c4c4c4;fontColor=#666666;mainText=;fontSize=17;labelBackgroundColor=none;fillColor=none;" parent="Zs0lDr_UA4FSCecoSCZW-314" vertex="1">
          <mxGeometry x="160" y="67.5" width="190" height="100" as="geometry" />
        </mxCell>
        <mxCell id="Zs0lDr_UA4FSCecoSCZW-261" value="" style="strokeWidth=1;shadow=0;dashed=0;align=center;html=1;shape=mxgraph.mockup.forms.rrect;rSize=5;strokeColor=#999999;fillColor=#ffffff;" parent="Zs0lDr_UA4FSCecoSCZW-137" vertex="1">
          <mxGeometry x="190" y="260" width="210" height="150" as="geometry" />
        </mxCell>
        <mxCell id="Zs0lDr_UA4FSCecoSCZW-262" value="October 2014" style="strokeWidth=1;shadow=0;dashed=0;align=center;html=1;shape=mxgraph.mockup.forms.anchor;fontColor=#999999;" parent="Zs0lDr_UA4FSCecoSCZW-261" vertex="1">
          <mxGeometry x="39.375" y="6.857142857142857" width="131.25" height="17.142857142857142" as="geometry" />
        </mxCell>
        <mxCell id="Zs0lDr_UA4FSCecoSCZW-263" value="&lt;" style="strokeWidth=1;shadow=0;dashed=0;align=center;html=1;shape=mxgraph.mockup.forms.rrect;rSize=4;strokeColor=#999999;fontColor=#008cff;fontSize=19;fontStyle=1;" parent="Zs0lDr_UA4FSCecoSCZW-261" vertex="1">
          <mxGeometry x="10.5" y="6.857142857142857" width="32.8125" height="17.142857142857142" as="geometry" />
        </mxCell>
        <mxCell id="Zs0lDr_UA4FSCecoSCZW-264" value="&gt;" style="strokeWidth=1;shadow=0;dashed=0;align=center;html=1;shape=mxgraph.mockup.forms.rrect;rSize=4;strokeColor=#999999;fontColor=#008cff;fontSize=19;fontStyle=1;" parent="Zs0lDr_UA4FSCecoSCZW-261" vertex="1">
          <mxGeometry x="166.6875" y="6.857142857142857" width="32.8125" height="17.142857142857142" as="geometry" />
        </mxCell>
        <mxCell id="Zs0lDr_UA4FSCecoSCZW-265" value="Mo" style="strokeWidth=1;shadow=0;dashed=0;align=center;html=1;shape=mxgraph.mockup.forms.anchor;fontColor=#999999;" parent="Zs0lDr_UA4FSCecoSCZW-261" vertex="1">
          <mxGeometry x="13.125" y="24" width="26.25" height="17.142857142857142" as="geometry" />
        </mxCell>
        <mxCell id="Zs0lDr_UA4FSCecoSCZW-266" value="Tu" style="strokeWidth=1;shadow=0;dashed=0;align=center;html=1;shape=mxgraph.mockup.forms.anchor;fontColor=#999999;" parent="Zs0lDr_UA4FSCecoSCZW-261" vertex="1">
          <mxGeometry x="39.375" y="24" width="26.25" height="17.142857142857142" as="geometry" />
        </mxCell>
        <mxCell id="Zs0lDr_UA4FSCecoSCZW-267" value="We" style="strokeWidth=1;shadow=0;dashed=0;align=center;html=1;shape=mxgraph.mockup.forms.anchor;fontColor=#999999;" parent="Zs0lDr_UA4FSCecoSCZW-261" vertex="1">
          <mxGeometry x="65.625" y="24" width="26.25" height="17.142857142857142" as="geometry" />
        </mxCell>
        <mxCell id="Zs0lDr_UA4FSCecoSCZW-268" value="Th" style="strokeWidth=1;shadow=0;dashed=0;align=center;html=1;shape=mxgraph.mockup.forms.anchor;fontColor=#999999;" parent="Zs0lDr_UA4FSCecoSCZW-261" vertex="1">
          <mxGeometry x="91.875" y="24" width="26.25" height="17.142857142857142" as="geometry" />
        </mxCell>
        <mxCell id="Zs0lDr_UA4FSCecoSCZW-269" value="Fr" style="strokeWidth=1;shadow=0;dashed=0;align=center;html=1;shape=mxgraph.mockup.forms.anchor;fontColor=#999999;" parent="Zs0lDr_UA4FSCecoSCZW-261" vertex="1">
          <mxGeometry x="118.125" y="24" width="26.25" height="17.142857142857142" as="geometry" />
        </mxCell>
        <mxCell id="Zs0lDr_UA4FSCecoSCZW-270" value="Sa" style="strokeWidth=1;shadow=0;dashed=0;align=center;html=1;shape=mxgraph.mockup.forms.anchor;fontColor=#999999;" parent="Zs0lDr_UA4FSCecoSCZW-261" vertex="1">
          <mxGeometry x="144.375" y="24" width="26.25" height="17.142857142857142" as="geometry" />
        </mxCell>
        <mxCell id="Zs0lDr_UA4FSCecoSCZW-271" value="Su" style="strokeWidth=1;shadow=0;dashed=0;align=center;html=1;shape=mxgraph.mockup.forms.anchor;fontColor=#999999;" parent="Zs0lDr_UA4FSCecoSCZW-261" vertex="1">
          <mxGeometry x="170.625" y="24" width="26.25" height="17.142857142857142" as="geometry" />
        </mxCell>
        <mxCell id="Zs0lDr_UA4FSCecoSCZW-272" value="1" style="strokeWidth=1;shadow=0;dashed=0;align=center;html=1;shape=mxgraph.mockup.forms.rrect;rSize=0;strokeColor=#999999;fontColor=#999999;" parent="Zs0lDr_UA4FSCecoSCZW-261" vertex="1">
          <mxGeometry x="13.125" y="41.142857142857146" width="26.25" height="17.142857142857142" as="geometry" />
        </mxCell>
        <mxCell id="Zs0lDr_UA4FSCecoSCZW-273" value="2" style="strokeWidth=1;shadow=0;dashed=0;align=center;html=1;shape=mxgraph.mockup.forms.rrect;rSize=0;strokeColor=#999999;fontColor=#999999;" parent="Zs0lDr_UA4FSCecoSCZW-261" vertex="1">
          <mxGeometry x="39.375" y="41.142857142857146" width="26.25" height="17.142857142857142" as="geometry" />
        </mxCell>
        <mxCell id="Zs0lDr_UA4FSCecoSCZW-274" value="3" style="strokeWidth=1;shadow=0;dashed=0;align=center;html=1;shape=mxgraph.mockup.forms.rrect;rSize=0;strokeColor=#999999;fontColor=#999999;" parent="Zs0lDr_UA4FSCecoSCZW-261" vertex="1">
          <mxGeometry x="65.625" y="41.142857142857146" width="26.25" height="17.142857142857142" as="geometry" />
        </mxCell>
        <mxCell id="Zs0lDr_UA4FSCecoSCZW-275" value="4" style="strokeWidth=1;shadow=0;dashed=0;align=center;html=1;shape=mxgraph.mockup.forms.rrect;rSize=0;strokeColor=#999999;fontColor=#999999;" parent="Zs0lDr_UA4FSCecoSCZW-261" vertex="1">
          <mxGeometry x="91.875" y="41.142857142857146" width="26.25" height="17.142857142857142" as="geometry" />
        </mxCell>
        <mxCell id="Zs0lDr_UA4FSCecoSCZW-276" value="5" style="strokeWidth=1;shadow=0;dashed=0;align=center;html=1;shape=mxgraph.mockup.forms.rrect;rSize=0;strokeColor=#999999;fontColor=#999999;" parent="Zs0lDr_UA4FSCecoSCZW-261" vertex="1">
          <mxGeometry x="118.125" y="41.142857142857146" width="26.25" height="17.142857142857142" as="geometry" />
        </mxCell>
        <mxCell id="Zs0lDr_UA4FSCecoSCZW-277" value="6" style="strokeWidth=1;shadow=0;dashed=0;align=center;html=1;shape=mxgraph.mockup.forms.rrect;rSize=0;strokeColor=#999999;fontColor=#999999;" parent="Zs0lDr_UA4FSCecoSCZW-261" vertex="1">
          <mxGeometry x="144.375" y="41.142857142857146" width="26.25" height="17.142857142857142" as="geometry" />
        </mxCell>
        <mxCell id="Zs0lDr_UA4FSCecoSCZW-278" value="7" style="strokeWidth=1;shadow=0;dashed=0;align=center;html=1;shape=mxgraph.mockup.forms.rrect;rSize=0;strokeColor=#999999;fontColor=#999999;" parent="Zs0lDr_UA4FSCecoSCZW-261" vertex="1">
          <mxGeometry x="170.625" y="41.142857142857146" width="26.25" height="17.142857142857142" as="geometry" />
        </mxCell>
        <mxCell id="Zs0lDr_UA4FSCecoSCZW-279" value="8" style="strokeWidth=1;shadow=0;dashed=0;align=center;html=1;shape=mxgraph.mockup.forms.rrect;rSize=0;strokeColor=#999999;fontColor=#999999;" parent="Zs0lDr_UA4FSCecoSCZW-261" vertex="1">
          <mxGeometry x="13.125" y="58.285714285714285" width="26.25" height="17.142857142857142" as="geometry" />
        </mxCell>
        <mxCell id="Zs0lDr_UA4FSCecoSCZW-280" value="9" style="strokeWidth=1;shadow=0;dashed=0;align=center;html=1;shape=mxgraph.mockup.forms.rrect;rSize=0;strokeColor=#999999;fontColor=#999999;" parent="Zs0lDr_UA4FSCecoSCZW-261" vertex="1">
          <mxGeometry x="39.375" y="58.285714285714285" width="26.25" height="17.142857142857142" as="geometry" />
        </mxCell>
        <mxCell id="Zs0lDr_UA4FSCecoSCZW-281" value="10" style="strokeWidth=1;shadow=0;dashed=0;align=center;html=1;shape=mxgraph.mockup.forms.rrect;rSize=0;strokeColor=#999999;fontColor=#999999;" parent="Zs0lDr_UA4FSCecoSCZW-261" vertex="1">
          <mxGeometry x="65.625" y="58.285714285714285" width="26.25" height="17.142857142857142" as="geometry" />
        </mxCell>
        <mxCell id="Zs0lDr_UA4FSCecoSCZW-282" value="11" style="strokeWidth=1;shadow=0;dashed=0;align=center;html=1;shape=mxgraph.mockup.forms.rrect;rSize=0;strokeColor=#999999;fontColor=#999999;" parent="Zs0lDr_UA4FSCecoSCZW-261" vertex="1">
          <mxGeometry x="91.875" y="58.285714285714285" width="26.25" height="17.142857142857142" as="geometry" />
        </mxCell>
        <mxCell id="Zs0lDr_UA4FSCecoSCZW-283" value="12" style="strokeWidth=1;shadow=0;dashed=0;align=center;html=1;shape=mxgraph.mockup.forms.rrect;rSize=0;strokeColor=#999999;fontColor=#999999;" parent="Zs0lDr_UA4FSCecoSCZW-261" vertex="1">
          <mxGeometry x="118.125" y="58.285714285714285" width="26.25" height="17.142857142857142" as="geometry" />
        </mxCell>
        <mxCell id="Zs0lDr_UA4FSCecoSCZW-284" value="13" style="strokeWidth=1;shadow=0;dashed=0;align=center;html=1;shape=mxgraph.mockup.forms.rrect;rSize=0;strokeColor=#999999;fontColor=#999999;" parent="Zs0lDr_UA4FSCecoSCZW-261" vertex="1">
          <mxGeometry x="144.375" y="58.285714285714285" width="26.25" height="17.142857142857142" as="geometry" />
        </mxCell>
        <mxCell id="Zs0lDr_UA4FSCecoSCZW-285" value="14" style="strokeWidth=1;shadow=0;dashed=0;align=center;html=1;shape=mxgraph.mockup.forms.rrect;rSize=0;strokeColor=#999999;fontColor=#999999;" parent="Zs0lDr_UA4FSCecoSCZW-261" vertex="1">
          <mxGeometry x="170.625" y="58.285714285714285" width="26.25" height="17.142857142857142" as="geometry" />
        </mxCell>
        <mxCell id="Zs0lDr_UA4FSCecoSCZW-286" value="15" style="strokeWidth=1;shadow=0;dashed=0;align=center;html=1;shape=mxgraph.mockup.forms.rrect;rSize=0;strokeColor=#999999;fontColor=#999999;" parent="Zs0lDr_UA4FSCecoSCZW-261" vertex="1">
          <mxGeometry x="13.125" y="75.42857142857143" width="26.25" height="17.142857142857142" as="geometry" />
        </mxCell>
        <mxCell id="Zs0lDr_UA4FSCecoSCZW-287" value="16" style="strokeWidth=1;shadow=0;dashed=0;align=center;html=1;shape=mxgraph.mockup.forms.rrect;rSize=0;strokeColor=#999999;fontColor=#999999;" parent="Zs0lDr_UA4FSCecoSCZW-261" vertex="1">
          <mxGeometry x="39.375" y="75.42857142857143" width="26.25" height="17.142857142857142" as="geometry" />
        </mxCell>
        <mxCell id="Zs0lDr_UA4FSCecoSCZW-288" value="17" style="strokeWidth=1;shadow=0;dashed=0;align=center;html=1;shape=mxgraph.mockup.forms.rrect;rSize=0;strokeColor=#999999;fontColor=#999999;" parent="Zs0lDr_UA4FSCecoSCZW-261" vertex="1">
          <mxGeometry x="65.625" y="75.42857142857143" width="26.25" height="17.142857142857142" as="geometry" />
        </mxCell>
        <mxCell id="Zs0lDr_UA4FSCecoSCZW-289" value="18" style="strokeWidth=1;shadow=0;dashed=0;align=center;html=1;shape=mxgraph.mockup.forms.rrect;rSize=0;strokeColor=#999999;fontColor=#999999;" parent="Zs0lDr_UA4FSCecoSCZW-261" vertex="1">
          <mxGeometry x="91.875" y="75.42857142857143" width="26.25" height="17.142857142857142" as="geometry" />
        </mxCell>
        <mxCell id="Zs0lDr_UA4FSCecoSCZW-290" value="19" style="strokeWidth=1;shadow=0;dashed=0;align=center;html=1;shape=mxgraph.mockup.forms.rrect;rSize=0;strokeColor=#999999;fontColor=#999999;" parent="Zs0lDr_UA4FSCecoSCZW-261" vertex="1">
          <mxGeometry x="118.125" y="75.42857142857143" width="26.25" height="17.142857142857142" as="geometry" />
        </mxCell>
        <mxCell id="Zs0lDr_UA4FSCecoSCZW-291" value="20" style="strokeWidth=1;shadow=0;dashed=0;align=center;html=1;shape=mxgraph.mockup.forms.rrect;rSize=0;strokeColor=#999999;fontColor=#999999;" parent="Zs0lDr_UA4FSCecoSCZW-261" vertex="1">
          <mxGeometry x="144.375" y="75.42857142857143" width="26.25" height="17.142857142857142" as="geometry" />
        </mxCell>
        <mxCell id="Zs0lDr_UA4FSCecoSCZW-292" value="21" style="strokeWidth=1;shadow=0;dashed=0;align=center;html=1;shape=mxgraph.mockup.forms.rrect;rSize=0;strokeColor=#999999;fontColor=#999999;" parent="Zs0lDr_UA4FSCecoSCZW-261" vertex="1">
          <mxGeometry x="170.625" y="75.42857142857143" width="26.25" height="17.142857142857142" as="geometry" />
        </mxCell>
        <mxCell id="Zs0lDr_UA4FSCecoSCZW-293" value="22" style="strokeWidth=1;shadow=0;dashed=0;align=center;html=1;shape=mxgraph.mockup.forms.rrect;rSize=0;strokeColor=#999999;fontColor=#999999;" parent="Zs0lDr_UA4FSCecoSCZW-261" vertex="1">
          <mxGeometry x="13.125" y="92.57142857142857" width="26.25" height="17.142857142857142" as="geometry" />
        </mxCell>
        <mxCell id="Zs0lDr_UA4FSCecoSCZW-294" value="23" style="strokeWidth=1;shadow=0;dashed=0;align=center;html=1;shape=mxgraph.mockup.forms.rrect;rSize=0;strokeColor=#999999;fontColor=#999999;" parent="Zs0lDr_UA4FSCecoSCZW-261" vertex="1">
          <mxGeometry x="39.375" y="92.57142857142857" width="26.25" height="17.142857142857142" as="geometry" />
        </mxCell>
        <mxCell id="Zs0lDr_UA4FSCecoSCZW-295" value="25" style="strokeWidth=1;shadow=0;dashed=0;align=center;html=1;shape=mxgraph.mockup.forms.rrect;rSize=0;strokeColor=#999999;fontColor=#999999;" parent="Zs0lDr_UA4FSCecoSCZW-261" vertex="1">
          <mxGeometry x="91.875" y="92.57142857142857" width="26.25" height="17.142857142857142" as="geometry" />
        </mxCell>
        <mxCell id="Zs0lDr_UA4FSCecoSCZW-296" value="26" style="strokeWidth=1;shadow=0;dashed=0;align=center;html=1;shape=mxgraph.mockup.forms.rrect;rSize=0;strokeColor=#d6b656;fillColor=#fff2cc;" parent="Zs0lDr_UA4FSCecoSCZW-261" vertex="1">
          <mxGeometry x="118.125" y="92.57142857142857" width="26.25" height="17.142857142857142" as="geometry" />
        </mxCell>
        <mxCell id="Zs0lDr_UA4FSCecoSCZW-297" value="27" style="strokeWidth=1;shadow=0;dashed=0;align=center;html=1;shape=mxgraph.mockup.forms.rrect;rSize=0;strokeColor=#999999;fontColor=#999999;" parent="Zs0lDr_UA4FSCecoSCZW-261" vertex="1">
          <mxGeometry x="144.375" y="92.57142857142857" width="26.25" height="17.142857142857142" as="geometry" />
        </mxCell>
        <mxCell id="Zs0lDr_UA4FSCecoSCZW-298" value="28" style="strokeWidth=1;shadow=0;dashed=0;align=center;html=1;shape=mxgraph.mockup.forms.rrect;rSize=0;strokeColor=#d6b656;fillColor=#fff2cc;" parent="Zs0lDr_UA4FSCecoSCZW-261" vertex="1">
          <mxGeometry x="170.625" y="92.57142857142857" width="26.25" height="17.142857142857142" as="geometry" />
        </mxCell>
        <mxCell id="Zs0lDr_UA4FSCecoSCZW-299" value="29" style="strokeWidth=1;shadow=0;dashed=0;align=center;html=1;shape=mxgraph.mockup.forms.rrect;rSize=0;strokeColor=#999999;fontColor=#999999;" parent="Zs0lDr_UA4FSCecoSCZW-261" vertex="1">
          <mxGeometry x="13.125" y="109.71428571428571" width="26.25" height="17.142857142857142" as="geometry" />
        </mxCell>
        <mxCell id="Zs0lDr_UA4FSCecoSCZW-300" value="30" style="strokeWidth=1;shadow=0;dashed=0;align=center;html=1;shape=mxgraph.mockup.forms.rrect;rSize=0;strokeColor=#999999;fontColor=#999999;" parent="Zs0lDr_UA4FSCecoSCZW-261" vertex="1">
          <mxGeometry x="39.375" y="109.71428571428571" width="26.25" height="17.142857142857142" as="geometry" />
        </mxCell>
        <mxCell id="Zs0lDr_UA4FSCecoSCZW-301" value="31" style="strokeWidth=1;shadow=0;dashed=0;align=center;html=1;shape=mxgraph.mockup.forms.rrect;rSize=0;strokeColor=#999999;fontColor=#999999;" parent="Zs0lDr_UA4FSCecoSCZW-261" vertex="1">
          <mxGeometry x="65.625" y="109.71428571428571" width="26.25" height="17.142857142857142" as="geometry" />
        </mxCell>
        <mxCell id="Zs0lDr_UA4FSCecoSCZW-302" value="1" style="strokeWidth=1;shadow=0;dashed=0;align=center;html=1;shape=mxgraph.mockup.forms.rrect;rSize=0;strokeColor=#999999;fontColor=#999999;fillColor=#ddeeff;" parent="Zs0lDr_UA4FSCecoSCZW-261" vertex="1">
          <mxGeometry x="91.875" y="109.71428571428571" width="26.25" height="17.142857142857142" as="geometry" />
        </mxCell>
        <mxCell id="Zs0lDr_UA4FSCecoSCZW-303" value="2" style="strokeWidth=1;shadow=0;dashed=0;align=center;html=1;shape=mxgraph.mockup.forms.rrect;rSize=0;strokeColor=#999999;fontColor=#999999;fillColor=#ddeeff;" parent="Zs0lDr_UA4FSCecoSCZW-261" vertex="1">
          <mxGeometry x="118.125" y="109.71428571428571" width="26.25" height="17.142857142857142" as="geometry" />
        </mxCell>
        <mxCell id="Zs0lDr_UA4FSCecoSCZW-304" value="3" style="strokeWidth=1;shadow=0;dashed=0;align=center;html=1;shape=mxgraph.mockup.forms.rrect;rSize=0;strokeColor=#999999;fontColor=#999999;fillColor=#ddeeff;" parent="Zs0lDr_UA4FSCecoSCZW-261" vertex="1">
          <mxGeometry x="144.375" y="109.71428571428571" width="26.25" height="17.142857142857142" as="geometry" />
        </mxCell>
        <mxCell id="Zs0lDr_UA4FSCecoSCZW-305" value="4" style="strokeWidth=1;shadow=0;dashed=0;align=center;html=1;shape=mxgraph.mockup.forms.rrect;rSize=0;strokeColor=#999999;fontColor=#999999;fillColor=#ddeeff;" parent="Zs0lDr_UA4FSCecoSCZW-261" vertex="1">
          <mxGeometry x="170.625" y="109.71428571428571" width="26.25" height="17.142857142857142" as="geometry" />
        </mxCell>
        <mxCell id="Zs0lDr_UA4FSCecoSCZW-306" value="5" style="strokeWidth=1;shadow=0;dashed=0;align=center;html=1;shape=mxgraph.mockup.forms.rrect;rSize=0;strokeColor=#999999;fontColor=#999999;fillColor=#ddeeff;" parent="Zs0lDr_UA4FSCecoSCZW-261" vertex="1">
          <mxGeometry x="13.125" y="126.85714285714286" width="26.25" height="17.142857142857142" as="geometry" />
        </mxCell>
        <mxCell id="Zs0lDr_UA4FSCecoSCZW-307" value="6" style="strokeWidth=1;shadow=0;dashed=0;align=center;html=1;shape=mxgraph.mockup.forms.rrect;rSize=0;strokeColor=#999999;fontColor=#999999;fillColor=#ddeeff;" parent="Zs0lDr_UA4FSCecoSCZW-261" vertex="1">
          <mxGeometry x="39.375" y="126.85714285714286" width="26.25" height="17.142857142857142" as="geometry" />
        </mxCell>
        <mxCell id="Zs0lDr_UA4FSCecoSCZW-308" value="7" style="strokeWidth=1;shadow=0;dashed=0;align=center;html=1;shape=mxgraph.mockup.forms.rrect;rSize=0;strokeColor=#999999;fontColor=#999999;fillColor=#ddeeff;" parent="Zs0lDr_UA4FSCecoSCZW-261" vertex="1">
          <mxGeometry x="65.625" y="126.85714285714286" width="26.25" height="17.142857142857142" as="geometry" />
        </mxCell>
        <mxCell id="Zs0lDr_UA4FSCecoSCZW-309" value="8" style="strokeWidth=1;shadow=0;dashed=0;align=center;html=1;shape=mxgraph.mockup.forms.rrect;rSize=0;strokeColor=#999999;fontColor=#999999;fillColor=#ddeeff;" parent="Zs0lDr_UA4FSCecoSCZW-261" vertex="1">
          <mxGeometry x="91.875" y="126.85714285714286" width="26.25" height="17.142857142857142" as="geometry" />
        </mxCell>
        <mxCell id="Zs0lDr_UA4FSCecoSCZW-310" value="9" style="strokeWidth=1;shadow=0;dashed=0;align=center;html=1;shape=mxgraph.mockup.forms.rrect;rSize=0;strokeColor=#999999;fontColor=#999999;fillColor=#ddeeff;" parent="Zs0lDr_UA4FSCecoSCZW-261" vertex="1">
          <mxGeometry x="118.125" y="126.85714285714286" width="26.25" height="17.142857142857142" as="geometry" />
        </mxCell>
        <mxCell id="Zs0lDr_UA4FSCecoSCZW-311" value="10" style="strokeWidth=1;shadow=0;dashed=0;align=center;html=1;shape=mxgraph.mockup.forms.rrect;rSize=0;strokeColor=#999999;fontColor=#999999;fillColor=#ddeeff;" parent="Zs0lDr_UA4FSCecoSCZW-261" vertex="1">
          <mxGeometry x="144.375" y="126.85714285714286" width="26.25" height="17.142857142857142" as="geometry" />
        </mxCell>
        <mxCell id="Zs0lDr_UA4FSCecoSCZW-312" value="11" style="strokeWidth=1;shadow=0;dashed=0;align=center;html=1;shape=mxgraph.mockup.forms.rrect;rSize=0;strokeColor=#999999;fontColor=#999999;fillColor=#ddeeff;" parent="Zs0lDr_UA4FSCecoSCZW-261" vertex="1">
          <mxGeometry x="170.625" y="126.85714285714286" width="26.25" height="17.142857142857142" as="geometry" />
        </mxCell>
        <mxCell id="Zs0lDr_UA4FSCecoSCZW-313" value="24" style="strokeWidth=1;shadow=0;dashed=0;align=center;html=1;shape=mxgraph.mockup.forms.rrect;rSize=0;strokeColor=#ff0000;fontColor=#ffffff;strokeWidth=2;fillColor=#008cff;" parent="Zs0lDr_UA4FSCecoSCZW-261" vertex="1">
          <mxGeometry x="65.625" y="92.57142857142857" width="26.25" height="17.142857142857142" as="geometry" />
        </mxCell>
        <mxCell id="Zs0lDr_UA4FSCecoSCZW-395" value="" style="strokeWidth=1;shadow=0;dashed=0;align=center;html=1;shape=mxgraph.mockup.containers.browserWindow;rSize=0;strokeColor=#666666;strokeColor2=#008cff;strokeColor3=#c4c4c4;mainText=,;recursiveResize=0;" parent="1" vertex="1">
          <mxGeometry x="3130" y="20" width="618" height="800" as="geometry" />
        </mxCell>
        <mxCell id="Zs0lDr_UA4FSCecoSCZW-396" value="Perfil Usuario" style="strokeWidth=1;shadow=0;dashed=0;align=center;html=1;shape=mxgraph.mockup.containers.anchor;fontSize=17;fontColor=#666666;align=left;" parent="Zs0lDr_UA4FSCecoSCZW-395" vertex="1">
          <mxGeometry x="60" y="12" width="110" height="26" as="geometry" />
        </mxCell>
        <mxCell id="Zs0lDr_UA4FSCecoSCZW-397" value="https://www.draw.io" style="strokeWidth=1;shadow=0;dashed=0;align=center;html=1;shape=mxgraph.mockup.containers.anchor;rSize=0;fontSize=17;fontColor=#666666;align=left;" parent="Zs0lDr_UA4FSCecoSCZW-395" vertex="1">
          <mxGeometry x="130" y="60" width="250" height="26" as="geometry" />
        </mxCell>
        <mxCell id="Zs0lDr_UA4FSCecoSCZW-398" value="" style="verticalLabelPosition=bottom;shadow=0;dashed=0;align=center;html=1;verticalAlign=top;strokeWidth=1;shape=mxgraph.mockup.markup.line;strokeColor=#999999;" parent="Zs0lDr_UA4FSCecoSCZW-395" vertex="1">
          <mxGeometry x="10" y="700" width="570" height="20" as="geometry" />
        </mxCell>
        <mxCell id="Zs0lDr_UA4FSCecoSCZW-399" value="Footer" style="shape=mxgraph.mockup.markup.scratchOut;shadow=0;dashed=0;html=1;strokeColor=#999999;strokeWidth=4;" parent="Zs0lDr_UA4FSCecoSCZW-395" vertex="1">
          <mxGeometry x="220" y="720" width="175" height="70" as="geometry" />
        </mxCell>
        <mxCell id="Zs0lDr_UA4FSCecoSCZW-400" value="Log Out" style="strokeColor=inherit;fillColor=inherit;gradientColor=inherit;strokeWidth=1;shadow=0;dashed=0;align=center;html=1;shape=mxgraph.mockup.forms.rrect;rSize=0;fontSize=17;fontColor=#666666;" parent="Zs0lDr_UA4FSCecoSCZW-395" vertex="1">
          <mxGeometry x="520" y="120" width="80" height="30" as="geometry" />
        </mxCell>
        <mxCell id="Zs0lDr_UA4FSCecoSCZW-401" value="Logo" style="verticalLabelPosition=bottom;shadow=0;dashed=0;align=center;html=1;verticalAlign=top;strokeWidth=1;shape=mxgraph.mockup.graphics.simpleIcon;strokeColor=#999999;" parent="Zs0lDr_UA4FSCecoSCZW-395" vertex="1">
          <mxGeometry x="10" y="120" width="60" height="30" as="geometry" />
        </mxCell>
        <mxCell id="Zs0lDr_UA4FSCecoSCZW-402" value="" style="verticalLabelPosition=bottom;shadow=0;dashed=0;align=center;html=1;verticalAlign=top;strokeWidth=1;shape=mxgraph.mockup.containers.userMale;strokeColor=#666666;strokeColor2=#008cff;" parent="Zs0lDr_UA4FSCecoSCZW-395" vertex="1">
          <mxGeometry x="20" y="200" width="100" height="100" as="geometry" />
        </mxCell>
        <mxCell id="Zs0lDr_UA4FSCecoSCZW-403" value="Nombre" style="strokeWidth=1;shadow=0;dashed=0;align=center;html=1;shape=mxgraph.mockup.text.textBox;fontColor=#666666;align=left;fontSize=17;spacingLeft=4;spacingTop=-3;strokeColor=#666666;mainText=" parent="Zs0lDr_UA4FSCecoSCZW-395" vertex="1">
          <mxGeometry x="20" y="320" width="100" height="30" as="geometry" />
        </mxCell>
        <mxCell id="Zs0lDr_UA4FSCecoSCZW-405" value="Métricas" style="strokeWidth=1;shadow=0;dashed=0;align=center;html=1;shape=mxgraph.mockup.text.textBox;fontColor=#666666;align=left;fontSize=17;spacingLeft=4;spacingTop=-3;strokeColor=#666666;mainText=" parent="Zs0lDr_UA4FSCecoSCZW-395" vertex="1">
          <mxGeometry x="140" y="200" width="150" height="150" as="geometry" />
        </mxCell>
        <mxCell id="Zs0lDr_UA4FSCecoSCZW-426" value="Objetivos (asociado a especialidades)" style="strokeWidth=1;shadow=0;dashed=0;align=center;html=1;shape=mxgraph.mockup.text.textBox;fontColor=#666666;align=left;fontSize=17;spacingLeft=4;spacingTop=-3;strokeColor=#666666;mainText=" parent="Zs0lDr_UA4FSCecoSCZW-395" vertex="1">
          <mxGeometry x="40" y="370" width="150" height="30" as="geometry" />
        </mxCell>
        <mxCell id="Zs0lDr_UA4FSCecoSCZW-427" value="" style="strokeWidth=1;shadow=0;dashed=0;align=center;html=1;shape=mxgraph.mockup.forms.rrect;rSize=0;strokeColor=#999999;fillColor=#ffffff;recursiveResize=0;" parent="Zs0lDr_UA4FSCecoSCZW-395" vertex="1">
          <mxGeometry x="40" y="406" width="150" height="120" as="geometry" />
        </mxCell>
        <mxCell id="Zs0lDr_UA4FSCecoSCZW-428" value="Option 1" style="strokeWidth=1;shadow=0;dashed=0;align=center;html=1;shape=mxgraph.mockup.forms.rrect;rSize=0;fillColor=#eeeeee;strokeColor=#999999;gradientColor=#cccccc;align=left;spacingLeft=4;fontSize=17;fontColor=#666666;labelPosition=right;" parent="Zs0lDr_UA4FSCecoSCZW-427" vertex="1">
          <mxGeometry x="8" y="7.5" width="15" height="15" as="geometry" />
        </mxCell>
        <mxCell id="Zs0lDr_UA4FSCecoSCZW-429" value="Option 2" style="strokeWidth=1;shadow=0;dashed=0;align=center;html=1;shape=mxgraph.mockup.forms.rrect;rSize=0;fillColor=#eeeeee;strokeColor=#999999;gradientColor=#cccccc;align=left;spacingLeft=4;fontSize=17;fontColor=#666666;labelPosition=right;" parent="Zs0lDr_UA4FSCecoSCZW-427" vertex="1">
          <mxGeometry x="8" y="37.5" width="15" height="15" as="geometry" />
        </mxCell>
        <mxCell id="Zs0lDr_UA4FSCecoSCZW-430" value="Option 3" style="strokeWidth=1;shadow=0;dashed=0;align=center;html=1;shape=mxgraph.mockup.forms.checkbox;rSize=0;resizable=0;fillColor=#aaaaaa;strokeColor=#444444;gradientColor=#666666;align=left;spacingLeft=4;fontSize=17;fontColor=#008cff;labelPosition=right;" parent="Zs0lDr_UA4FSCecoSCZW-427" vertex="1">
          <mxGeometry x="8" y="67.5" width="15" height="15" as="geometry" />
        </mxCell>
        <mxCell id="Zs0lDr_UA4FSCecoSCZW-431" value="Option 4" style="strokeWidth=1;shadow=0;dashed=0;align=center;html=1;shape=mxgraph.mockup.forms.rrect;rSize=0;fillColor=#eeeeee;strokeColor=#999999;gradientColor=#cccccc;align=left;spacingLeft=4;fontSize=17;fontColor=#666666;labelPosition=right;" parent="Zs0lDr_UA4FSCecoSCZW-427" vertex="1">
          <mxGeometry x="8" y="97.5" width="15" height="15" as="geometry" />
        </mxCell>
        <mxCell id="Zs0lDr_UA4FSCecoSCZW-432" value="Intereses (Disciplinas)" style="strokeWidth=1;shadow=0;dashed=0;align=center;html=1;shape=mxgraph.mockup.text.textBox;fontColor=#666666;align=left;fontSize=17;spacingLeft=4;spacingTop=-3;strokeColor=#666666;mainText=" parent="Zs0lDr_UA4FSCecoSCZW-395" vertex="1">
          <mxGeometry x="280" y="370" width="150" height="30" as="geometry" />
        </mxCell>
        <mxCell id="Zs0lDr_UA4FSCecoSCZW-433" value="" style="strokeWidth=1;shadow=0;dashed=0;align=center;html=1;shape=mxgraph.mockup.forms.rrect;rSize=0;strokeColor=#999999;fillColor=#ffffff;recursiveResize=0;" parent="Zs0lDr_UA4FSCecoSCZW-395" vertex="1">
          <mxGeometry x="280" y="406" width="218" height="124" as="geometry" />
        </mxCell>
        <mxCell id="Zs0lDr_UA4FSCecoSCZW-434" value="Option 1" style="strokeWidth=1;shadow=0;dashed=0;align=center;html=1;shape=mxgraph.mockup.forms.rrect;rSize=0;fillColor=#eeeeee;strokeColor=#999999;gradientColor=#cccccc;align=left;spacingLeft=4;fontSize=17;fontColor=#666666;labelPosition=right;" parent="Zs0lDr_UA4FSCecoSCZW-433" vertex="1">
          <mxGeometry x="8" y="7.5" width="15" height="15" as="geometry" />
        </mxCell>
        <mxCell id="Zs0lDr_UA4FSCecoSCZW-435" value="Option 2" style="strokeWidth=1;shadow=0;dashed=0;align=center;html=1;shape=mxgraph.mockup.forms.rrect;rSize=0;fillColor=#eeeeee;strokeColor=#999999;gradientColor=#cccccc;align=left;spacingLeft=4;fontSize=17;fontColor=#666666;labelPosition=right;" parent="Zs0lDr_UA4FSCecoSCZW-433" vertex="1">
          <mxGeometry x="8" y="37.5" width="15" height="15" as="geometry" />
        </mxCell>
        <mxCell id="Zs0lDr_UA4FSCecoSCZW-436" value="Option 3" style="strokeWidth=1;shadow=0;dashed=0;align=center;html=1;shape=mxgraph.mockup.forms.checkbox;rSize=0;resizable=0;fillColor=#aaaaaa;strokeColor=#444444;gradientColor=#666666;align=left;spacingLeft=4;fontSize=17;fontColor=#008cff;labelPosition=right;" parent="Zs0lDr_UA4FSCecoSCZW-433" vertex="1">
          <mxGeometry x="8" y="67.5" width="15" height="15" as="geometry" />
        </mxCell>
        <mxCell id="Zs0lDr_UA4FSCecoSCZW-437" value="Option 4" style="strokeWidth=1;shadow=0;dashed=0;align=center;html=1;shape=mxgraph.mockup.forms.rrect;rSize=0;fillColor=#eeeeee;strokeColor=#999999;gradientColor=#cccccc;align=left;spacingLeft=4;fontSize=17;fontColor=#666666;labelPosition=right;" parent="Zs0lDr_UA4FSCecoSCZW-433" vertex="1">
          <mxGeometry x="8" y="97.5" width="15" height="15" as="geometry" />
        </mxCell>
        <mxCell id="Zs0lDr_UA4FSCecoSCZW-438" value="Mis citas" style="strokeWidth=1;shadow=0;dashed=0;align=center;html=1;shape=mxgraph.mockup.text.textBox;fontColor=#666666;align=left;fontSize=17;spacingLeft=4;spacingTop=-3;strokeColor=#666666;mainText=" parent="Zs0lDr_UA4FSCecoSCZW-395" vertex="1">
          <mxGeometry x="40" y="550" width="150" height="30" as="geometry" />
        </mxCell>
        <mxCell id="Zs0lDr_UA4FSCecoSCZW-439" value="" style="shape=mxgraph.mockup.markup.scratchOut;shadow=0;dashed=0;html=1;strokeColor=#999999;strokeWidth=4;" parent="Zs0lDr_UA4FSCecoSCZW-395" vertex="1">
          <mxGeometry x="27.5" y="600" width="175" height="70" as="geometry" />
        </mxCell>
        <mxCell id="Zs0lDr_UA4FSCecoSCZW-440" value="Página principal" style="strokeWidth=1;shadow=0;dashed=0;align=center;html=1;shape=mxgraph.mockup.text.textBox;fontColor=#666666;align=left;fontSize=17;spacingLeft=4;spacingTop=-3;strokeColor=#666666;mainText=" parent="Zs0lDr_UA4FSCecoSCZW-395" vertex="1">
          <mxGeometry x="370" y="120" width="140" height="30" as="geometry" />
        </mxCell>
        <mxCell id="Zs0lDr_UA4FSCecoSCZW-441" value="Ver recomendaciones" style="strokeWidth=1;shadow=0;dashed=0;align=center;html=1;shape=mxgraph.mockup.buttons.button;strokeColor=#666666;fontColor=#ffffff;mainText=;buttonStyle=round;fontSize=17;fontStyle=1;fillColor=#008cff;whiteSpace=wrap;" parent="Zs0lDr_UA4FSCecoSCZW-395" vertex="1">
          <mxGeometry x="350" y="260" width="150" height="50" as="geometry" />
        </mxCell>
        <mxCell id="2F2SBcUWsuzm-smWwCRw-22" value="Editar cita" style="strokeWidth=1;shadow=0;dashed=0;align=center;html=1;shape=mxgraph.mockup.buttons.button;strokeColor=#666666;fontColor=#ffffff;mainText=;buttonStyle=round;fontSize=17;fontStyle=1;fillColor=#008cff;whiteSpace=wrap;" vertex="1" parent="Zs0lDr_UA4FSCecoSCZW-395">
          <mxGeometry x="220" y="610" width="110" height="40" as="geometry" />
        </mxCell>
        <mxCell id="Zs0lDr_UA4FSCecoSCZW-442" value="" style="strokeWidth=1;shadow=0;dashed=0;align=center;html=1;shape=mxgraph.mockup.containers.browserWindow;rSize=0;strokeColor=#666666;strokeColor2=#008cff;strokeColor3=#c4c4c4;mainText=,;recursiveResize=0;" parent="1" vertex="1">
          <mxGeometry x="3760" y="20" width="620" height="838" as="geometry" />
        </mxCell>
        <mxCell id="Zs0lDr_UA4FSCecoSCZW-443" value="Listado coaches" style="strokeWidth=1;shadow=0;dashed=0;align=center;html=1;shape=mxgraph.mockup.containers.anchor;fontSize=17;fontColor=#666666;align=left;" parent="Zs0lDr_UA4FSCecoSCZW-442" vertex="1">
          <mxGeometry x="60" y="12" width="110" height="26" as="geometry" />
        </mxCell>
        <mxCell id="Zs0lDr_UA4FSCecoSCZW-444" value="https://www.draw.io" style="strokeWidth=1;shadow=0;dashed=0;align=center;html=1;shape=mxgraph.mockup.containers.anchor;rSize=0;fontSize=17;fontColor=#666666;align=left;" parent="Zs0lDr_UA4FSCecoSCZW-442" vertex="1">
          <mxGeometry x="130" y="60" width="250" height="26" as="geometry" />
        </mxCell>
        <mxCell id="Zs0lDr_UA4FSCecoSCZW-445" value="" style="verticalLabelPosition=bottom;shadow=0;dashed=0;align=center;html=1;verticalAlign=top;strokeWidth=1;shape=mxgraph.mockup.markup.line;strokeColor=#999999;" parent="Zs0lDr_UA4FSCecoSCZW-442" vertex="1">
          <mxGeometry x="10" y="740" width="570" height="20" as="geometry" />
        </mxCell>
        <mxCell id="Zs0lDr_UA4FSCecoSCZW-446" value="Footer" style="shape=mxgraph.mockup.markup.scratchOut;shadow=0;dashed=0;html=1;strokeColor=#999999;strokeWidth=4;" parent="Zs0lDr_UA4FSCecoSCZW-442" vertex="1">
          <mxGeometry x="220" y="760" width="175" height="70" as="geometry" />
        </mxCell>
        <mxCell id="Zs0lDr_UA4FSCecoSCZW-447" value="Log Out" style="strokeColor=inherit;fillColor=inherit;gradientColor=inherit;strokeWidth=1;shadow=0;dashed=0;align=center;html=1;shape=mxgraph.mockup.forms.rrect;rSize=0;fontSize=17;fontColor=#666666;" parent="Zs0lDr_UA4FSCecoSCZW-442" vertex="1">
          <mxGeometry x="520" y="120" width="80" height="30" as="geometry" />
        </mxCell>
        <mxCell id="Zs0lDr_UA4FSCecoSCZW-448" value="Logo" style="verticalLabelPosition=bottom;shadow=0;dashed=0;align=center;html=1;verticalAlign=top;strokeWidth=1;shape=mxgraph.mockup.graphics.simpleIcon;strokeColor=#999999;" parent="Zs0lDr_UA4FSCecoSCZW-442" vertex="1">
          <mxGeometry x="10" y="120" width="60" height="30" as="geometry" />
        </mxCell>
        <mxCell id="Zs0lDr_UA4FSCecoSCZW-451" value="Explicación" style="strokeWidth=1;shadow=0;dashed=0;align=center;html=1;shape=mxgraph.mockup.text.textBox;fontColor=#666666;align=left;fontSize=17;spacingLeft=4;spacingTop=-3;strokeColor=#666666;mainText=" parent="Zs0lDr_UA4FSCecoSCZW-442" vertex="1">
          <mxGeometry x="10" y="295" width="580" height="50" as="geometry" />
        </mxCell>
        <mxCell id="Zs0lDr_UA4FSCecoSCZW-466" value="Mi perfil" style="strokeWidth=1;shadow=0;dashed=0;align=center;html=1;shape=mxgraph.mockup.text.textBox;fontColor=#666666;align=left;fontSize=17;spacingLeft=4;spacingTop=-3;strokeColor=#666666;mainText=" parent="Zs0lDr_UA4FSCecoSCZW-442" vertex="1">
          <mxGeometry x="370" y="120" width="140" height="30" as="geometry" />
        </mxCell>
        <mxCell id="Zs0lDr_UA4FSCecoSCZW-468" value="" style="verticalLabelPosition=bottom;shadow=0;dashed=0;align=center;html=1;verticalAlign=top;strokeWidth=1;shape=mxgraph.mockup.graphics.simpleIcon;strokeColor=#999999;fillColor=none;fontColor=#FFFFFF;" parent="Zs0lDr_UA4FSCecoSCZW-442" vertex="1">
          <mxGeometry x="10" y="190" width="580" height="100" as="geometry" />
        </mxCell>
        <mxCell id="Zs0lDr_UA4FSCecoSCZW-470" value="" style="verticalLabelPosition=bottom;shadow=0;dashed=0;align=center;html=1;verticalAlign=top;strokeWidth=1;shape=mxgraph.mockup.containers.userFemale;strokeColor=#666666;strokeColor2=#008cff;fillColor=none;fontColor=#FFFFFF;" parent="Zs0lDr_UA4FSCecoSCZW-442" vertex="1">
          <mxGeometry x="190" y="370" width="100" height="100" as="geometry" />
        </mxCell>
        <mxCell id="Zs0lDr_UA4FSCecoSCZW-473" value="" style="verticalLabelPosition=bottom;shadow=0;dashed=0;align=center;html=1;verticalAlign=top;strokeWidth=1;shape=mxgraph.mockup.containers.userMale;strokeColor=#666666;strokeColor2=#008cff;fillColor=none;fontColor=#FFFFFF;" parent="Zs0lDr_UA4FSCecoSCZW-442" vertex="1">
          <mxGeometry x="190" y="480" width="100" height="100" as="geometry" />
        </mxCell>
        <mxCell id="Zs0lDr_UA4FSCecoSCZW-476" value="" style="shape=mxgraph.mockup.markup.scratchOut;shadow=0;dashed=0;html=1;strokeColor=#999999;strokeWidth=4;fillColor=none;fontColor=#FFFFFF;" parent="Zs0lDr_UA4FSCecoSCZW-442" vertex="1">
          <mxGeometry x="295" y="370" width="148" height="100" as="geometry" />
        </mxCell>
        <mxCell id="Zs0lDr_UA4FSCecoSCZW-477" value="" style="shape=mxgraph.mockup.markup.scratchOut;shadow=0;dashed=0;html=1;strokeColor=#999999;strokeWidth=4;fillColor=none;fontColor=#FFFFFF;" parent="Zs0lDr_UA4FSCecoSCZW-442" vertex="1">
          <mxGeometry x="295" y="480" width="148" height="100" as="geometry" />
        </mxCell>
        <mxCell id="Zs0lDr_UA4FSCecoSCZW-478" value="Especialidades" style="strokeWidth=1;shadow=0;dashed=0;align=center;html=1;shape=mxgraph.mockup.forms.comboBox;strokeColor=#999999;fillColor=#ddeeff;align=left;fillColor2=#aaddff;mainText=;fontColor=#666666;fontSize=17;spacingLeft=3;" parent="Zs0lDr_UA4FSCecoSCZW-442" vertex="1">
          <mxGeometry x="10" y="370" width="150" height="30" as="geometry" />
        </mxCell>
        <mxCell id="Zs0lDr_UA4FSCecoSCZW-479" value="" style="strokeWidth=1;shadow=0;dashed=0;align=center;html=1;shape=mxgraph.mockup.forms.rrect;rSize=0;strokeColor=#999999;fillColor=#ffffff;recursiveResize=0;fontColor=#FFFFFF;" parent="Zs0lDr_UA4FSCecoSCZW-442" vertex="1">
          <mxGeometry x="20" y="400" width="150" height="120" as="geometry" />
        </mxCell>
        <mxCell id="Zs0lDr_UA4FSCecoSCZW-480" value="Option 1" style="strokeWidth=1;shadow=0;dashed=0;align=center;html=1;shape=mxgraph.mockup.forms.rrect;rSize=0;fillColor=#eeeeee;strokeColor=#999999;gradientColor=#cccccc;align=left;spacingLeft=4;fontSize=17;fontColor=#666666;labelPosition=right;" parent="Zs0lDr_UA4FSCecoSCZW-479" vertex="1">
          <mxGeometry x="8" y="7.5" width="15" height="15" as="geometry" />
        </mxCell>
        <mxCell id="Zs0lDr_UA4FSCecoSCZW-481" value="Option 2" style="strokeWidth=1;shadow=0;dashed=0;align=center;html=1;shape=mxgraph.mockup.forms.rrect;rSize=0;fillColor=#eeeeee;strokeColor=#999999;gradientColor=#cccccc;align=left;spacingLeft=4;fontSize=17;fontColor=#666666;labelPosition=right;" parent="Zs0lDr_UA4FSCecoSCZW-479" vertex="1">
          <mxGeometry x="8" y="37.5" width="15" height="15" as="geometry" />
        </mxCell>
        <mxCell id="Zs0lDr_UA4FSCecoSCZW-482" value="Option 3" style="strokeWidth=1;shadow=0;dashed=0;align=center;html=1;shape=mxgraph.mockup.forms.checkbox;rSize=0;resizable=0;fillColor=#aaaaaa;strokeColor=#444444;gradientColor=#666666;align=left;spacingLeft=4;fontSize=17;fontColor=#008cff;labelPosition=right;" parent="Zs0lDr_UA4FSCecoSCZW-479" vertex="1">
          <mxGeometry x="8" y="67.5" width="15" height="15" as="geometry" />
        </mxCell>
        <mxCell id="Zs0lDr_UA4FSCecoSCZW-483" value="Option 4" style="strokeWidth=1;shadow=0;dashed=0;align=center;html=1;shape=mxgraph.mockup.forms.rrect;rSize=0;fillColor=#eeeeee;strokeColor=#999999;gradientColor=#cccccc;align=left;spacingLeft=4;fontSize=17;fontColor=#666666;labelPosition=right;" parent="Zs0lDr_UA4FSCecoSCZW-479" vertex="1">
          <mxGeometry x="8" y="97.5" width="15" height="15" as="geometry" />
        </mxCell>
        <mxCell id="Zs0lDr_UA4FSCecoSCZW-484" value="Disciplinas" style="strokeWidth=1;shadow=0;dashed=0;align=center;html=1;shape=mxgraph.mockup.forms.comboBox;strokeColor=#999999;fillColor=#ddeeff;align=left;fillColor2=#aaddff;mainText=;fontColor=#666666;fontSize=17;spacingLeft=3;" parent="Zs0lDr_UA4FSCecoSCZW-442" vertex="1">
          <mxGeometry x="10" y="540" width="150" height="30" as="geometry" />
        </mxCell>
        <mxCell id="Zs0lDr_UA4FSCecoSCZW-485" value="" style="strokeWidth=1;shadow=0;dashed=0;align=center;html=1;shape=mxgraph.mockup.forms.rrect;rSize=0;strokeColor=#999999;fillColor=#ffffff;recursiveResize=0;fontColor=#FFFFFF;" parent="Zs0lDr_UA4FSCecoSCZW-442" vertex="1">
          <mxGeometry x="20" y="570" width="150" height="120" as="geometry" />
        </mxCell>
        <mxCell id="Zs0lDr_UA4FSCecoSCZW-486" value="Option 1" style="strokeWidth=1;shadow=0;dashed=0;align=center;html=1;shape=mxgraph.mockup.forms.rrect;rSize=0;fillColor=#eeeeee;strokeColor=#999999;gradientColor=#cccccc;align=left;spacingLeft=4;fontSize=17;fontColor=#666666;labelPosition=right;" parent="Zs0lDr_UA4FSCecoSCZW-485" vertex="1">
          <mxGeometry x="8" y="7.5" width="15" height="15" as="geometry" />
        </mxCell>
        <mxCell id="Zs0lDr_UA4FSCecoSCZW-487" value="Option 2" style="strokeWidth=1;shadow=0;dashed=0;align=center;html=1;shape=mxgraph.mockup.forms.rrect;rSize=0;fillColor=#eeeeee;strokeColor=#999999;gradientColor=#cccccc;align=left;spacingLeft=4;fontSize=17;fontColor=#666666;labelPosition=right;" parent="Zs0lDr_UA4FSCecoSCZW-485" vertex="1">
          <mxGeometry x="8" y="37.5" width="15" height="15" as="geometry" />
        </mxCell>
        <mxCell id="Zs0lDr_UA4FSCecoSCZW-488" value="Option 3" style="strokeWidth=1;shadow=0;dashed=0;align=center;html=1;shape=mxgraph.mockup.forms.checkbox;rSize=0;resizable=0;fillColor=#aaaaaa;strokeColor=#444444;gradientColor=#666666;align=left;spacingLeft=4;fontSize=17;fontColor=#008cff;labelPosition=right;" parent="Zs0lDr_UA4FSCecoSCZW-485" vertex="1">
          <mxGeometry x="8" y="67.5" width="15" height="15" as="geometry" />
        </mxCell>
        <mxCell id="Zs0lDr_UA4FSCecoSCZW-489" value="Option 4" style="strokeWidth=1;shadow=0;dashed=0;align=center;html=1;shape=mxgraph.mockup.forms.rrect;rSize=0;fillColor=#eeeeee;strokeColor=#999999;gradientColor=#cccccc;align=left;spacingLeft=4;fontSize=17;fontColor=#666666;labelPosition=right;" parent="Zs0lDr_UA4FSCecoSCZW-485" vertex="1">
          <mxGeometry x="8" y="97.5" width="15" height="15" as="geometry" />
        </mxCell>
        <mxCell id="Zs0lDr_UA4FSCecoSCZW-490" value="" style="verticalLabelPosition=bottom;shadow=0;dashed=0;align=center;html=1;verticalAlign=top;strokeWidth=1;shape=mxgraph.mockup.containers.userMale;strokeColor=#666666;strokeColor2=#008cff;fillColor=none;fontColor=#FFFFFF;" parent="Zs0lDr_UA4FSCecoSCZW-442" vertex="1">
          <mxGeometry x="190" y="590" width="100" height="100" as="geometry" />
        </mxCell>
        <mxCell id="Zs0lDr_UA4FSCecoSCZW-491" value="" style="shape=mxgraph.mockup.markup.scratchOut;shadow=0;dashed=0;html=1;strokeColor=#999999;strokeWidth=4;fillColor=none;fontColor=#FFFFFF;" parent="Zs0lDr_UA4FSCecoSCZW-442" vertex="1">
          <mxGeometry x="295" y="590" width="148" height="100" as="geometry" />
        </mxCell>
        <mxCell id="Zs0lDr_UA4FSCecoSCZW-492" value="" style="shape=mxgraph.mockup.markup.scratchOut;shadow=0;dashed=0;html=1;strokeColor=#d6b656;strokeWidth=4;fillColor=#fff2cc;" parent="Zs0lDr_UA4FSCecoSCZW-442" vertex="1">
          <mxGeometry x="443" y="370" width="148" height="100" as="geometry" />
        </mxCell>
        <mxCell id="Zs0lDr_UA4FSCecoSCZW-493" value="" style="shape=mxgraph.mockup.markup.scratchOut;shadow=0;dashed=0;html=1;strokeColor=#d6b656;strokeWidth=4;fillColor=#fff2cc;" parent="Zs0lDr_UA4FSCecoSCZW-442" vertex="1">
          <mxGeometry x="443" y="480" width="148" height="100" as="geometry" />
        </mxCell>
        <mxCell id="Zs0lDr_UA4FSCecoSCZW-494" value="" style="shape=mxgraph.mockup.markup.scratchOut;shadow=0;dashed=0;html=1;strokeColor=#d6b656;strokeWidth=4;fillColor=#fff2cc;" parent="Zs0lDr_UA4FSCecoSCZW-442" vertex="1">
          <mxGeometry x="443" y="590" width="148" height="100" as="geometry" />
        </mxCell>
        <mxCell id="Zs0lDr_UA4FSCecoSCZW-495" value="Ver perfil" style="strokeWidth=1;shadow=0;dashed=0;align=center;html=1;shape=mxgraph.mockup.buttons.button;strokeColor=#666666;fontColor=#ffffff;mainText=;buttonStyle=round;fontSize=17;fontStyle=1;fillColor=#008cff;whiteSpace=wrap;" parent="Zs0lDr_UA4FSCecoSCZW-442" vertex="1">
          <mxGeometry x="343" y="450" width="100" height="20" as="geometry" />
        </mxCell>
        <mxCell id="Zs0lDr_UA4FSCecoSCZW-496" value="Ver perfil" style="strokeWidth=1;shadow=0;dashed=0;align=center;html=1;shape=mxgraph.mockup.buttons.button;strokeColor=#666666;fontColor=#ffffff;mainText=;buttonStyle=round;fontSize=17;fontStyle=1;fillColor=#008cff;whiteSpace=wrap;" parent="Zs0lDr_UA4FSCecoSCZW-442" vertex="1">
          <mxGeometry x="343" y="560" width="100" height="20" as="geometry" />
        </mxCell>
        <mxCell id="Zs0lDr_UA4FSCecoSCZW-497" value="Ver perfil" style="strokeWidth=1;shadow=0;dashed=0;align=center;html=1;shape=mxgraph.mockup.buttons.button;strokeColor=#666666;fontColor=#ffffff;mainText=;buttonStyle=round;fontSize=17;fontStyle=1;fillColor=#008cff;whiteSpace=wrap;" parent="Zs0lDr_UA4FSCecoSCZW-442" vertex="1">
          <mxGeometry x="343" y="670" width="100" height="20" as="geometry" />
        </mxCell>
        <mxCell id="Zs0lDr_UA4FSCecoSCZW-639" value="Rango precios" style="strokeWidth=1;shadow=0;dashed=0;align=center;html=1;shape=mxgraph.mockup.forms.comboBox;strokeColor=#999999;fillColor=#ddeeff;align=left;fillColor2=#aaddff;mainText=;fontColor=#666666;fontSize=17;spacingLeft=3;" parent="Zs0lDr_UA4FSCecoSCZW-442" vertex="1">
          <mxGeometry x="10" y="707" width="150" height="30" as="geometry" />
        </mxCell>
        <mxCell id="Zs0lDr_UA4FSCecoSCZW-532" value="" style="strokeWidth=1;shadow=0;dashed=0;align=center;html=1;shape=mxgraph.mockup.containers.browserWindow;rSize=0;strokeColor=#666666;strokeColor2=#008cff;strokeColor3=#c4c4c4;mainText=,;recursiveResize=0;" parent="1" vertex="1">
          <mxGeometry x="4400" y="20" width="608" height="800" as="geometry" />
        </mxCell>
        <mxCell id="Zs0lDr_UA4FSCecoSCZW-533" value="Perfil coach - Vista Usuario" style="strokeWidth=1;shadow=0;dashed=0;align=center;html=1;shape=mxgraph.mockup.containers.anchor;fontSize=17;fontColor=#666666;align=left;" parent="Zs0lDr_UA4FSCecoSCZW-532" vertex="1">
          <mxGeometry x="60" y="12" width="110" height="26" as="geometry" />
        </mxCell>
        <mxCell id="Zs0lDr_UA4FSCecoSCZW-534" value="https://www.draw.io" style="strokeWidth=1;shadow=0;dashed=0;align=center;html=1;shape=mxgraph.mockup.containers.anchor;rSize=0;fontSize=17;fontColor=#666666;align=left;" parent="Zs0lDr_UA4FSCecoSCZW-532" vertex="1">
          <mxGeometry x="130" y="60" width="250" height="26" as="geometry" />
        </mxCell>
        <mxCell id="Zs0lDr_UA4FSCecoSCZW-535" value="" style="verticalLabelPosition=bottom;shadow=0;dashed=0;align=center;html=1;verticalAlign=top;strokeWidth=1;shape=mxgraph.mockup.markup.line;strokeColor=#999999;" parent="Zs0lDr_UA4FSCecoSCZW-532" vertex="1">
          <mxGeometry x="10" y="700" width="570" height="20" as="geometry" />
        </mxCell>
        <mxCell id="Zs0lDr_UA4FSCecoSCZW-536" value="Footer" style="shape=mxgraph.mockup.markup.scratchOut;shadow=0;dashed=0;html=1;strokeColor=#999999;strokeWidth=4;" parent="Zs0lDr_UA4FSCecoSCZW-532" vertex="1">
          <mxGeometry x="220" y="720" width="175" height="70" as="geometry" />
        </mxCell>
        <mxCell id="Zs0lDr_UA4FSCecoSCZW-537" value="Log Out" style="strokeColor=inherit;fillColor=inherit;gradientColor=inherit;strokeWidth=1;shadow=0;dashed=0;align=center;html=1;shape=mxgraph.mockup.forms.rrect;rSize=0;fontSize=17;fontColor=#666666;" parent="Zs0lDr_UA4FSCecoSCZW-532" vertex="1">
          <mxGeometry x="520" y="120" width="80" height="30" as="geometry" />
        </mxCell>
        <mxCell id="Zs0lDr_UA4FSCecoSCZW-538" value="Logo" style="verticalLabelPosition=bottom;shadow=0;dashed=0;align=center;html=1;verticalAlign=top;strokeWidth=1;shape=mxgraph.mockup.graphics.simpleIcon;strokeColor=#999999;" parent="Zs0lDr_UA4FSCecoSCZW-532" vertex="1">
          <mxGeometry x="10" y="120" width="60" height="30" as="geometry" />
        </mxCell>
        <mxCell id="Zs0lDr_UA4FSCecoSCZW-539" value="" style="verticalLabelPosition=bottom;shadow=0;dashed=0;align=center;html=1;verticalAlign=top;strokeWidth=1;shape=mxgraph.mockup.containers.userMale;strokeColor=#666666;strokeColor2=#008cff;" parent="Zs0lDr_UA4FSCecoSCZW-532" vertex="1">
          <mxGeometry x="20" y="200" width="100" height="100" as="geometry" />
        </mxCell>
        <mxCell id="Zs0lDr_UA4FSCecoSCZW-540" value="Nombre" style="strokeWidth=1;shadow=0;dashed=0;align=center;html=1;shape=mxgraph.mockup.text.textBox;fontColor=#666666;align=left;fontSize=17;spacingLeft=4;spacingTop=-3;strokeColor=#666666;mainText=" parent="Zs0lDr_UA4FSCecoSCZW-532" vertex="1">
          <mxGeometry x="20" y="320" width="100" height="30" as="geometry" />
        </mxCell>
        <mxCell id="Zs0lDr_UA4FSCecoSCZW-541" value="Descripción" style="strokeWidth=1;shadow=0;dashed=0;align=center;html=1;shape=mxgraph.mockup.text.textBox;fontColor=#666666;align=left;fontSize=17;spacingLeft=4;spacingTop=-3;strokeColor=#666666;mainText=" parent="Zs0lDr_UA4FSCecoSCZW-532" vertex="1">
          <mxGeometry x="140" y="200" width="430" height="150" as="geometry" />
        </mxCell>
        <mxCell id="Zs0lDr_UA4FSCecoSCZW-542" value="Especialidades" style="strokeWidth=1;shadow=0;dashed=0;align=center;html=1;shape=mxgraph.mockup.text.textBox;fontColor=#666666;align=left;fontSize=17;spacingLeft=4;spacingTop=-3;strokeColor=#666666;mainText=" parent="Zs0lDr_UA4FSCecoSCZW-532" vertex="1">
          <mxGeometry x="40" y="366" width="150" height="74" as="geometry" />
        </mxCell>
        <mxCell id="Zs0lDr_UA4FSCecoSCZW-543" value="Años de experiencia" style="strokeWidth=1;shadow=0;dashed=0;align=center;html=1;shape=mxgraph.mockup.text.textBox;fontColor=#666666;align=left;fontSize=17;spacingLeft=4;spacingTop=-3;strokeColor=#666666;mainText=" parent="Zs0lDr_UA4FSCecoSCZW-532" vertex="1">
          <mxGeometry x="229" y="366" width="171" height="30" as="geometry" />
        </mxCell>
        <mxCell id="Zs0lDr_UA4FSCecoSCZW-544" value="Disciplinas" style="strokeWidth=1;shadow=0;dashed=0;align=center;html=1;shape=mxgraph.mockup.text.textBox;fontColor=#666666;align=left;fontSize=17;spacingLeft=4;spacingTop=-3;strokeColor=#666666;mainText=" parent="Zs0lDr_UA4FSCecoSCZW-532" vertex="1">
          <mxGeometry x="420" y="366" width="150" height="74" as="geometry" />
        </mxCell>
        <mxCell id="Zs0lDr_UA4FSCecoSCZW-556" value="" style="verticalLabelPosition=bottom;shadow=0;dashed=0;align=center;html=1;verticalAlign=top;strokeWidth=1;shape=mxgraph.mockup.containers.videoPlayer;strokeColor=#666666;strokeColor2=#008cff;strokeColor3=#c4c4c4;textColor=#666666;fillColor2=#008cff;barHeight=30;barPos=20;" parent="Zs0lDr_UA4FSCecoSCZW-532" vertex="1">
          <mxGeometry x="40" y="470" width="162.5" height="90" as="geometry" />
        </mxCell>
        <mxCell id="Zs0lDr_UA4FSCecoSCZW-557" value="" style="shape=mxgraph.mockup.markup.scratchOut;shadow=0;dashed=0;html=1;strokeColor=#999999;strokeWidth=4;" parent="Zs0lDr_UA4FSCecoSCZW-532" vertex="1">
          <mxGeometry x="40" y="570" width="160" height="50" as="geometry" />
        </mxCell>
        <mxCell id="Zs0lDr_UA4FSCecoSCZW-558" value="" style="verticalLabelPosition=bottom;shadow=0;dashed=0;align=center;html=1;verticalAlign=top;strokeWidth=1;shape=mxgraph.mockup.containers.videoPlayer;strokeColor=#666666;strokeColor2=#008cff;strokeColor3=#c4c4c4;textColor=#666666;fillColor2=#008cff;barHeight=30;barPos=20;" parent="Zs0lDr_UA4FSCecoSCZW-532" vertex="1">
          <mxGeometry x="226.25" y="470" width="162.5" height="90" as="geometry" />
        </mxCell>
        <mxCell id="Zs0lDr_UA4FSCecoSCZW-559" value="" style="shape=mxgraph.mockup.markup.scratchOut;shadow=0;dashed=0;html=1;strokeColor=#999999;strokeWidth=4;" parent="Zs0lDr_UA4FSCecoSCZW-532" vertex="1">
          <mxGeometry x="226.25" y="570" width="160" height="50" as="geometry" />
        </mxCell>
        <mxCell id="Zs0lDr_UA4FSCecoSCZW-560" value="" style="verticalLabelPosition=bottom;shadow=0;dashed=0;align=center;html=1;verticalAlign=top;strokeWidth=1;shape=mxgraph.mockup.containers.videoPlayer;strokeColor=#666666;strokeColor2=#008cff;strokeColor3=#c4c4c4;textColor=#666666;fillColor2=#008cff;barHeight=30;barPos=20;" parent="Zs0lDr_UA4FSCecoSCZW-532" vertex="1">
          <mxGeometry x="413.75" y="470" width="162.5" height="90" as="geometry" />
        </mxCell>
        <mxCell id="Zs0lDr_UA4FSCecoSCZW-561" value="" style="shape=mxgraph.mockup.markup.scratchOut;shadow=0;dashed=0;html=1;strokeColor=#999999;strokeWidth=4;" parent="Zs0lDr_UA4FSCecoSCZW-532" vertex="1">
          <mxGeometry x="413.75" y="570" width="160" height="50" as="geometry" />
        </mxCell>
        <mxCell id="Zs0lDr_UA4FSCecoSCZW-562" value="Agendar mi cita de valoración" style="strokeWidth=1;shadow=0;dashed=0;align=center;html=1;shape=mxgraph.mockup.buttons.button;strokeColor=#666666;fontColor=#ffffff;mainText=;buttonStyle=round;fontSize=17;fontStyle=1;fillColor=#008cff;whiteSpace=wrap;" parent="Zs0lDr_UA4FSCecoSCZW-532" vertex="1">
          <mxGeometry x="164" y="650" width="280" height="30" as="geometry" />
        </mxCell>
        <mxCell id="Zs0lDr_UA4FSCecoSCZW-638" value="Precio cita valoración" style="strokeWidth=1;shadow=0;dashed=0;align=center;html=1;shape=mxgraph.mockup.text.textBox;fontColor=#666666;align=left;fontSize=17;spacingLeft=4;spacingTop=-3;strokeColor=#666666;mainText=" parent="Zs0lDr_UA4FSCecoSCZW-532" vertex="1">
          <mxGeometry x="229" y="410" width="171" height="30" as="geometry" />
        </mxCell>
        <mxCell id="Zs0lDr_UA4FSCecoSCZW-734" value="" style="shape=image;html=1;verticalAlign=top;verticalLabelPosition=bottom;labelBackgroundColor=#ffffff;imageAspect=0;aspect=fixed;image=https://cdn2.iconfinder.com/data/icons/social-media-applications/64/social_media_applications_3-instagram-128.png;fillColor=none;fontColor=#FFFFFF;" parent="Zs0lDr_UA4FSCecoSCZW-532" vertex="1">
          <mxGeometry x="540" y="170" width="30" height="30" as="geometry" />
        </mxCell>
        <mxCell id="Zs0lDr_UA4FSCecoSCZW-736" value="" style="shape=image;html=1;verticalAlign=top;verticalLabelPosition=bottom;labelBackgroundColor=#ffffff;imageAspect=0;aspect=fixed;image=https://cdn4.iconfinder.com/data/icons/social-media-logos-6/512/83-facebook-128.png;fillColor=none;fontColor=#FFFFFF;" parent="Zs0lDr_UA4FSCecoSCZW-532" vertex="1">
          <mxGeometry x="510" y="170" width="30" height="30" as="geometry" />
        </mxCell>
        <mxCell id="Zs0lDr_UA4FSCecoSCZW-563" value="" style="strokeWidth=1;shadow=0;dashed=0;align=center;html=1;shape=mxgraph.mockup.containers.browserWindow;rSize=0;strokeColor=#666666;strokeColor2=#008cff;strokeColor3=#c4c4c4;mainText=,;recursiveResize=0;" parent="1" vertex="1">
          <mxGeometry x="5020" y="14" width="623.2" height="800" as="geometry" />
        </mxCell>
        <mxCell id="Zs0lDr_UA4FSCecoSCZW-564" value="Agendar cita" style="strokeWidth=1;shadow=0;dashed=0;align=center;html=1;shape=mxgraph.mockup.containers.anchor;fontSize=17;fontColor=#666666;align=left;" parent="Zs0lDr_UA4FSCecoSCZW-563" vertex="1">
          <mxGeometry x="60" y="12" width="110" height="26" as="geometry" />
        </mxCell>
        <mxCell id="Zs0lDr_UA4FSCecoSCZW-565" value="https://www.draw.io" style="strokeWidth=1;shadow=0;dashed=0;align=center;html=1;shape=mxgraph.mockup.containers.anchor;rSize=0;fontSize=17;fontColor=#666666;align=left;" parent="Zs0lDr_UA4FSCecoSCZW-563" vertex="1">
          <mxGeometry x="130" y="60" width="250" height="26" as="geometry" />
        </mxCell>
        <mxCell id="Zs0lDr_UA4FSCecoSCZW-566" value="" style="verticalLabelPosition=bottom;shadow=0;dashed=0;align=center;html=1;verticalAlign=top;strokeWidth=1;shape=mxgraph.mockup.markup.line;strokeColor=#999999;" parent="Zs0lDr_UA4FSCecoSCZW-563" vertex="1">
          <mxGeometry x="10" y="700" width="570" height="20" as="geometry" />
        </mxCell>
        <mxCell id="Zs0lDr_UA4FSCecoSCZW-567" value="Footer" style="shape=mxgraph.mockup.markup.scratchOut;shadow=0;dashed=0;html=1;strokeColor=#999999;strokeWidth=4;" parent="Zs0lDr_UA4FSCecoSCZW-563" vertex="1">
          <mxGeometry x="220" y="720" width="175" height="70" as="geometry" />
        </mxCell>
        <mxCell id="Zs0lDr_UA4FSCecoSCZW-568" value="Log Out" style="strokeColor=inherit;fillColor=inherit;gradientColor=inherit;strokeWidth=1;shadow=0;dashed=0;align=center;html=1;shape=mxgraph.mockup.forms.rrect;rSize=0;fontSize=17;fontColor=#666666;" parent="Zs0lDr_UA4FSCecoSCZW-563" vertex="1">
          <mxGeometry x="520" y="120" width="80" height="30" as="geometry" />
        </mxCell>
        <mxCell id="Zs0lDr_UA4FSCecoSCZW-569" value="Logo" style="verticalLabelPosition=bottom;shadow=0;dashed=0;align=center;html=1;verticalAlign=top;strokeWidth=1;shape=mxgraph.mockup.graphics.simpleIcon;strokeColor=#999999;" parent="Zs0lDr_UA4FSCecoSCZW-563" vertex="1">
          <mxGeometry x="10" y="120" width="60" height="30" as="geometry" />
        </mxCell>
        <mxCell id="Zs0lDr_UA4FSCecoSCZW-570" value="Nombre" style="strokeWidth=1;shadow=0;dashed=0;align=center;html=1;shape=mxgraph.mockup.text.textBox;fontColor=#666666;align=left;fontSize=17;spacingLeft=4;spacingTop=-3;strokeColor=#666666;mainText=" parent="Zs0lDr_UA4FSCecoSCZW-563" vertex="1">
          <mxGeometry x="413.75" y="120" width="100" height="30" as="geometry" />
        </mxCell>
        <mxCell id="Zs0lDr_UA4FSCecoSCZW-577" value="" style="strokeWidth=1;shadow=0;dashed=0;align=center;html=1;shape=mxgraph.mockup.forms.rrect;rSize=5;strokeColor=#999999;fillColor=#ffffff;" parent="Zs0lDr_UA4FSCecoSCZW-563" vertex="1">
          <mxGeometry x="20" y="210" width="210" height="200" as="geometry" />
        </mxCell>
        <mxCell id="Zs0lDr_UA4FSCecoSCZW-578" value="October 2014" style="strokeWidth=1;shadow=0;dashed=0;align=center;html=1;shape=mxgraph.mockup.forms.anchor;fontColor=#999999;" parent="Zs0lDr_UA4FSCecoSCZW-577" vertex="1">
          <mxGeometry x="39.375" y="9.142857142857142" width="131.25" height="22.857142857142858" as="geometry" />
        </mxCell>
        <mxCell id="Zs0lDr_UA4FSCecoSCZW-579" value="&lt;" style="strokeWidth=1;shadow=0;dashed=0;align=center;html=1;shape=mxgraph.mockup.forms.rrect;rSize=4;strokeColor=#999999;fontColor=#008cff;fontSize=19;fontStyle=1;" parent="Zs0lDr_UA4FSCecoSCZW-577" vertex="1">
          <mxGeometry x="10.5" y="9.142857142857142" width="32.8125" height="22.857142857142858" as="geometry" />
        </mxCell>
        <mxCell id="Zs0lDr_UA4FSCecoSCZW-580" value="&gt;" style="strokeWidth=1;shadow=0;dashed=0;align=center;html=1;shape=mxgraph.mockup.forms.rrect;rSize=4;strokeColor=#999999;fontColor=#008cff;fontSize=19;fontStyle=1;" parent="Zs0lDr_UA4FSCecoSCZW-577" vertex="1">
          <mxGeometry x="166.6875" y="9.142857142857142" width="32.8125" height="22.857142857142858" as="geometry" />
        </mxCell>
        <mxCell id="Zs0lDr_UA4FSCecoSCZW-581" value="Mo" style="strokeWidth=1;shadow=0;dashed=0;align=center;html=1;shape=mxgraph.mockup.forms.anchor;fontColor=#999999;" parent="Zs0lDr_UA4FSCecoSCZW-577" vertex="1">
          <mxGeometry x="13.125" y="32" width="26.25" height="22.857142857142858" as="geometry" />
        </mxCell>
        <mxCell id="Zs0lDr_UA4FSCecoSCZW-582" value="Tu" style="strokeWidth=1;shadow=0;dashed=0;align=center;html=1;shape=mxgraph.mockup.forms.anchor;fontColor=#999999;" parent="Zs0lDr_UA4FSCecoSCZW-577" vertex="1">
          <mxGeometry x="39.375" y="32" width="26.25" height="22.857142857142858" as="geometry" />
        </mxCell>
        <mxCell id="Zs0lDr_UA4FSCecoSCZW-583" value="We" style="strokeWidth=1;shadow=0;dashed=0;align=center;html=1;shape=mxgraph.mockup.forms.anchor;fontColor=#999999;" parent="Zs0lDr_UA4FSCecoSCZW-577" vertex="1">
          <mxGeometry x="65.625" y="32" width="26.25" height="22.857142857142858" as="geometry" />
        </mxCell>
        <mxCell id="Zs0lDr_UA4FSCecoSCZW-584" value="Th" style="strokeWidth=1;shadow=0;dashed=0;align=center;html=1;shape=mxgraph.mockup.forms.anchor;fontColor=#999999;" parent="Zs0lDr_UA4FSCecoSCZW-577" vertex="1">
          <mxGeometry x="91.875" y="32" width="26.25" height="22.857142857142858" as="geometry" />
        </mxCell>
        <mxCell id="Zs0lDr_UA4FSCecoSCZW-585" value="Fr" style="strokeWidth=1;shadow=0;dashed=0;align=center;html=1;shape=mxgraph.mockup.forms.anchor;fontColor=#999999;" parent="Zs0lDr_UA4FSCecoSCZW-577" vertex="1">
          <mxGeometry x="118.125" y="32" width="26.25" height="22.857142857142858" as="geometry" />
        </mxCell>
        <mxCell id="Zs0lDr_UA4FSCecoSCZW-586" value="Sa" style="strokeWidth=1;shadow=0;dashed=0;align=center;html=1;shape=mxgraph.mockup.forms.anchor;fontColor=#999999;" parent="Zs0lDr_UA4FSCecoSCZW-577" vertex="1">
          <mxGeometry x="144.375" y="32" width="26.25" height="22.857142857142858" as="geometry" />
        </mxCell>
        <mxCell id="Zs0lDr_UA4FSCecoSCZW-587" value="Su" style="strokeWidth=1;shadow=0;dashed=0;align=center;html=1;shape=mxgraph.mockup.forms.anchor;fontColor=#999999;" parent="Zs0lDr_UA4FSCecoSCZW-577" vertex="1">
          <mxGeometry x="170.625" y="32" width="26.25" height="22.857142857142858" as="geometry" />
        </mxCell>
        <mxCell id="Zs0lDr_UA4FSCecoSCZW-588" value="1" style="strokeWidth=1;shadow=0;dashed=0;align=center;html=1;shape=mxgraph.mockup.forms.rrect;rSize=0;strokeColor=#999999;fontColor=#999999;" parent="Zs0lDr_UA4FSCecoSCZW-577" vertex="1">
          <mxGeometry x="13.125" y="54.85714285714286" width="26.25" height="22.857142857142858" as="geometry" />
        </mxCell>
        <mxCell id="Zs0lDr_UA4FSCecoSCZW-589" value="2" style="strokeWidth=1;shadow=0;dashed=0;align=center;html=1;shape=mxgraph.mockup.forms.rrect;rSize=0;strokeColor=#999999;fontColor=#999999;" parent="Zs0lDr_UA4FSCecoSCZW-577" vertex="1">
          <mxGeometry x="39.375" y="54.85714285714286" width="26.25" height="22.857142857142858" as="geometry" />
        </mxCell>
        <mxCell id="Zs0lDr_UA4FSCecoSCZW-590" value="3" style="strokeWidth=1;shadow=0;dashed=0;align=center;html=1;shape=mxgraph.mockup.forms.rrect;rSize=0;strokeColor=#999999;fontColor=#999999;" parent="Zs0lDr_UA4FSCecoSCZW-577" vertex="1">
          <mxGeometry x="65.625" y="54.85714285714286" width="26.25" height="22.857142857142858" as="geometry" />
        </mxCell>
        <mxCell id="Zs0lDr_UA4FSCecoSCZW-591" value="4" style="strokeWidth=1;shadow=0;dashed=0;align=center;html=1;shape=mxgraph.mockup.forms.rrect;rSize=0;strokeColor=#999999;fontColor=#999999;" parent="Zs0lDr_UA4FSCecoSCZW-577" vertex="1">
          <mxGeometry x="91.875" y="54.85714285714286" width="26.25" height="22.857142857142858" as="geometry" />
        </mxCell>
        <mxCell id="Zs0lDr_UA4FSCecoSCZW-592" value="5" style="strokeWidth=1;shadow=0;dashed=0;align=center;html=1;shape=mxgraph.mockup.forms.rrect;rSize=0;strokeColor=#999999;fontColor=#999999;" parent="Zs0lDr_UA4FSCecoSCZW-577" vertex="1">
          <mxGeometry x="118.125" y="54.85714285714286" width="26.25" height="22.857142857142858" as="geometry" />
        </mxCell>
        <mxCell id="Zs0lDr_UA4FSCecoSCZW-593" value="6" style="strokeWidth=1;shadow=0;dashed=0;align=center;html=1;shape=mxgraph.mockup.forms.rrect;rSize=0;strokeColor=#999999;fontColor=#999999;" parent="Zs0lDr_UA4FSCecoSCZW-577" vertex="1">
          <mxGeometry x="144.375" y="54.85714285714286" width="26.25" height="22.857142857142858" as="geometry" />
        </mxCell>
        <mxCell id="Zs0lDr_UA4FSCecoSCZW-594" value="7" style="strokeWidth=1;shadow=0;dashed=0;align=center;html=1;shape=mxgraph.mockup.forms.rrect;rSize=0;strokeColor=#999999;fontColor=#999999;" parent="Zs0lDr_UA4FSCecoSCZW-577" vertex="1">
          <mxGeometry x="170.625" y="54.85714285714286" width="26.25" height="22.857142857142858" as="geometry" />
        </mxCell>
        <mxCell id="Zs0lDr_UA4FSCecoSCZW-595" value="8" style="strokeWidth=1;shadow=0;dashed=0;align=center;html=1;shape=mxgraph.mockup.forms.rrect;rSize=0;strokeColor=#999999;fontColor=#999999;" parent="Zs0lDr_UA4FSCecoSCZW-577" vertex="1">
          <mxGeometry x="13.125" y="77.71428571428571" width="26.25" height="22.857142857142858" as="geometry" />
        </mxCell>
        <mxCell id="Zs0lDr_UA4FSCecoSCZW-596" value="9" style="strokeWidth=1;shadow=0;dashed=0;align=center;html=1;shape=mxgraph.mockup.forms.rrect;rSize=0;strokeColor=#999999;fontColor=#999999;" parent="Zs0lDr_UA4FSCecoSCZW-577" vertex="1">
          <mxGeometry x="39.375" y="77.71428571428571" width="26.25" height="22.857142857142858" as="geometry" />
        </mxCell>
        <mxCell id="Zs0lDr_UA4FSCecoSCZW-597" value="10" style="strokeWidth=1;shadow=0;dashed=0;align=center;html=1;shape=mxgraph.mockup.forms.rrect;rSize=0;strokeColor=#999999;fontColor=#999999;" parent="Zs0lDr_UA4FSCecoSCZW-577" vertex="1">
          <mxGeometry x="65.625" y="77.71428571428571" width="26.25" height="22.857142857142858" as="geometry" />
        </mxCell>
        <mxCell id="Zs0lDr_UA4FSCecoSCZW-598" value="11" style="strokeWidth=1;shadow=0;dashed=0;align=center;html=1;shape=mxgraph.mockup.forms.rrect;rSize=0;strokeColor=#999999;fontColor=#999999;" parent="Zs0lDr_UA4FSCecoSCZW-577" vertex="1">
          <mxGeometry x="91.875" y="77.71428571428571" width="26.25" height="22.857142857142858" as="geometry" />
        </mxCell>
        <mxCell id="Zs0lDr_UA4FSCecoSCZW-599" value="12" style="strokeWidth=1;shadow=0;dashed=0;align=center;html=1;shape=mxgraph.mockup.forms.rrect;rSize=0;strokeColor=#999999;fontColor=#999999;" parent="Zs0lDr_UA4FSCecoSCZW-577" vertex="1">
          <mxGeometry x="118.125" y="77.71428571428571" width="26.25" height="22.857142857142858" as="geometry" />
        </mxCell>
        <mxCell id="Zs0lDr_UA4FSCecoSCZW-600" value="13" style="strokeWidth=1;shadow=0;dashed=0;align=center;html=1;shape=mxgraph.mockup.forms.rrect;rSize=0;strokeColor=#999999;fontColor=#999999;" parent="Zs0lDr_UA4FSCecoSCZW-577" vertex="1">
          <mxGeometry x="144.375" y="77.71428571428571" width="26.25" height="22.857142857142858" as="geometry" />
        </mxCell>
        <mxCell id="Zs0lDr_UA4FSCecoSCZW-601" value="14" style="strokeWidth=1;shadow=0;dashed=0;align=center;html=1;shape=mxgraph.mockup.forms.rrect;rSize=0;strokeColor=#999999;fontColor=#999999;" parent="Zs0lDr_UA4FSCecoSCZW-577" vertex="1">
          <mxGeometry x="170.625" y="77.71428571428571" width="26.25" height="22.857142857142858" as="geometry" />
        </mxCell>
        <mxCell id="Zs0lDr_UA4FSCecoSCZW-602" value="15" style="strokeWidth=1;shadow=0;dashed=0;align=center;html=1;shape=mxgraph.mockup.forms.rrect;rSize=0;strokeColor=#999999;fontColor=#999999;" parent="Zs0lDr_UA4FSCecoSCZW-577" vertex="1">
          <mxGeometry x="13.125" y="100.57142857142857" width="26.25" height="22.857142857142858" as="geometry" />
        </mxCell>
        <mxCell id="Zs0lDr_UA4FSCecoSCZW-603" value="16" style="strokeWidth=1;shadow=0;dashed=0;align=center;html=1;shape=mxgraph.mockup.forms.rrect;rSize=0;strokeColor=#999999;fontColor=#999999;" parent="Zs0lDr_UA4FSCecoSCZW-577" vertex="1">
          <mxGeometry x="39.375" y="100.57142857142857" width="26.25" height="22.857142857142858" as="geometry" />
        </mxCell>
        <mxCell id="Zs0lDr_UA4FSCecoSCZW-604" value="17" style="strokeWidth=1;shadow=0;dashed=0;align=center;html=1;shape=mxgraph.mockup.forms.rrect;rSize=0;strokeColor=#999999;fontColor=#999999;" parent="Zs0lDr_UA4FSCecoSCZW-577" vertex="1">
          <mxGeometry x="65.625" y="100.57142857142857" width="26.25" height="22.857142857142858" as="geometry" />
        </mxCell>
        <mxCell id="Zs0lDr_UA4FSCecoSCZW-605" value="18" style="strokeWidth=1;shadow=0;dashed=0;align=center;html=1;shape=mxgraph.mockup.forms.rrect;rSize=0;strokeColor=#999999;fontColor=#999999;" parent="Zs0lDr_UA4FSCecoSCZW-577" vertex="1">
          <mxGeometry x="91.875" y="100.57142857142857" width="26.25" height="22.857142857142858" as="geometry" />
        </mxCell>
        <mxCell id="Zs0lDr_UA4FSCecoSCZW-606" value="19" style="strokeWidth=1;shadow=0;dashed=0;align=center;html=1;shape=mxgraph.mockup.forms.rrect;rSize=0;strokeColor=#999999;fontColor=#999999;" parent="Zs0lDr_UA4FSCecoSCZW-577" vertex="1">
          <mxGeometry x="118.125" y="100.57142857142857" width="26.25" height="22.857142857142858" as="geometry" />
        </mxCell>
        <mxCell id="Zs0lDr_UA4FSCecoSCZW-607" value="20" style="strokeWidth=1;shadow=0;dashed=0;align=center;html=1;shape=mxgraph.mockup.forms.rrect;rSize=0;strokeColor=#999999;fontColor=#999999;" parent="Zs0lDr_UA4FSCecoSCZW-577" vertex="1">
          <mxGeometry x="144.375" y="100.57142857142857" width="26.25" height="22.857142857142858" as="geometry" />
        </mxCell>
        <mxCell id="Zs0lDr_UA4FSCecoSCZW-608" value="21" style="strokeWidth=1;shadow=0;dashed=0;align=center;html=1;shape=mxgraph.mockup.forms.rrect;rSize=0;strokeColor=#999999;fontColor=#999999;" parent="Zs0lDr_UA4FSCecoSCZW-577" vertex="1">
          <mxGeometry x="170.625" y="100.57142857142857" width="26.25" height="22.857142857142858" as="geometry" />
        </mxCell>
        <mxCell id="Zs0lDr_UA4FSCecoSCZW-609" value="22" style="strokeWidth=1;shadow=0;dashed=0;align=center;html=1;shape=mxgraph.mockup.forms.rrect;rSize=0;strokeColor=#999999;fontColor=#999999;" parent="Zs0lDr_UA4FSCecoSCZW-577" vertex="1">
          <mxGeometry x="13.125" y="123.42857142857143" width="26.25" height="22.857142857142858" as="geometry" />
        </mxCell>
        <mxCell id="Zs0lDr_UA4FSCecoSCZW-610" value="23" style="strokeWidth=1;shadow=0;dashed=0;align=center;html=1;shape=mxgraph.mockup.forms.rrect;rSize=0;strokeColor=#999999;fontColor=#999999;" parent="Zs0lDr_UA4FSCecoSCZW-577" vertex="1">
          <mxGeometry x="39.375" y="123.42857142857143" width="26.25" height="22.857142857142858" as="geometry" />
        </mxCell>
        <mxCell id="Zs0lDr_UA4FSCecoSCZW-611" value="25" style="strokeWidth=1;shadow=0;dashed=0;align=center;html=1;shape=mxgraph.mockup.forms.rrect;rSize=0;strokeColor=#999999;fontColor=#999999;" parent="Zs0lDr_UA4FSCecoSCZW-577" vertex="1">
          <mxGeometry x="91.875" y="123.42857142857143" width="26.25" height="22.857142857142858" as="geometry" />
        </mxCell>
        <mxCell id="Zs0lDr_UA4FSCecoSCZW-612" value="26" style="strokeWidth=1;shadow=0;dashed=0;align=center;html=1;shape=mxgraph.mockup.forms.rrect;rSize=0;strokeColor=#d6b656;fillColor=#fff2cc;" parent="Zs0lDr_UA4FSCecoSCZW-577" vertex="1">
          <mxGeometry x="118.125" y="123.42857142857143" width="26.25" height="22.857142857142858" as="geometry" />
        </mxCell>
        <mxCell id="Zs0lDr_UA4FSCecoSCZW-613" value="27" style="strokeWidth=1;shadow=0;dashed=0;align=center;html=1;shape=mxgraph.mockup.forms.rrect;rSize=0;strokeColor=#999999;fontColor=#999999;" parent="Zs0lDr_UA4FSCecoSCZW-577" vertex="1">
          <mxGeometry x="144.375" y="123.42857142857143" width="26.25" height="22.857142857142858" as="geometry" />
        </mxCell>
        <mxCell id="Zs0lDr_UA4FSCecoSCZW-614" value="28" style="strokeWidth=1;shadow=0;dashed=0;align=center;html=1;shape=mxgraph.mockup.forms.rrect;rSize=0;strokeColor=#d6b656;fillColor=#fff2cc;" parent="Zs0lDr_UA4FSCecoSCZW-577" vertex="1">
          <mxGeometry x="170.625" y="123.42857142857143" width="26.25" height="22.857142857142858" as="geometry" />
        </mxCell>
        <mxCell id="Zs0lDr_UA4FSCecoSCZW-615" value="29" style="strokeWidth=1;shadow=0;dashed=0;align=center;html=1;shape=mxgraph.mockup.forms.rrect;rSize=0;strokeColor=#999999;fontColor=#999999;" parent="Zs0lDr_UA4FSCecoSCZW-577" vertex="1">
          <mxGeometry x="13.125" y="146.28571428571428" width="26.25" height="22.857142857142858" as="geometry" />
        </mxCell>
        <mxCell id="Zs0lDr_UA4FSCecoSCZW-616" value="30" style="strokeWidth=1;shadow=0;dashed=0;align=center;html=1;shape=mxgraph.mockup.forms.rrect;rSize=0;strokeColor=#999999;fontColor=#999999;" parent="Zs0lDr_UA4FSCecoSCZW-577" vertex="1">
          <mxGeometry x="39.375" y="146.28571428571428" width="26.25" height="22.857142857142858" as="geometry" />
        </mxCell>
        <mxCell id="Zs0lDr_UA4FSCecoSCZW-617" value="31" style="strokeWidth=1;shadow=0;dashed=0;align=center;html=1;shape=mxgraph.mockup.forms.rrect;rSize=0;strokeColor=#999999;fontColor=#999999;" parent="Zs0lDr_UA4FSCecoSCZW-577" vertex="1">
          <mxGeometry x="65.625" y="146.28571428571428" width="26.25" height="22.857142857142858" as="geometry" />
        </mxCell>
        <mxCell id="Zs0lDr_UA4FSCecoSCZW-618" value="1" style="strokeWidth=1;shadow=0;dashed=0;align=center;html=1;shape=mxgraph.mockup.forms.rrect;rSize=0;strokeColor=#999999;fontColor=#999999;fillColor=#ddeeff;" parent="Zs0lDr_UA4FSCecoSCZW-577" vertex="1">
          <mxGeometry x="91.875" y="146.28571428571428" width="26.25" height="22.857142857142858" as="geometry" />
        </mxCell>
        <mxCell id="Zs0lDr_UA4FSCecoSCZW-619" value="2" style="strokeWidth=1;shadow=0;dashed=0;align=center;html=1;shape=mxgraph.mockup.forms.rrect;rSize=0;strokeColor=#999999;fontColor=#999999;fillColor=#ddeeff;" parent="Zs0lDr_UA4FSCecoSCZW-577" vertex="1">
          <mxGeometry x="118.125" y="146.28571428571428" width="26.25" height="22.857142857142858" as="geometry" />
        </mxCell>
        <mxCell id="Zs0lDr_UA4FSCecoSCZW-620" value="3" style="strokeWidth=1;shadow=0;dashed=0;align=center;html=1;shape=mxgraph.mockup.forms.rrect;rSize=0;strokeColor=#999999;fontColor=#999999;fillColor=#ddeeff;" parent="Zs0lDr_UA4FSCecoSCZW-577" vertex="1">
          <mxGeometry x="144.375" y="146.28571428571428" width="26.25" height="22.857142857142858" as="geometry" />
        </mxCell>
        <mxCell id="Zs0lDr_UA4FSCecoSCZW-621" value="4" style="strokeWidth=1;shadow=0;dashed=0;align=center;html=1;shape=mxgraph.mockup.forms.rrect;rSize=0;strokeColor=#999999;fontColor=#999999;fillColor=#ddeeff;" parent="Zs0lDr_UA4FSCecoSCZW-577" vertex="1">
          <mxGeometry x="170.625" y="146.28571428571428" width="26.25" height="22.857142857142858" as="geometry" />
        </mxCell>
        <mxCell id="Zs0lDr_UA4FSCecoSCZW-622" value="5" style="strokeWidth=1;shadow=0;dashed=0;align=center;html=1;shape=mxgraph.mockup.forms.rrect;rSize=0;strokeColor=#999999;fontColor=#999999;fillColor=#ddeeff;" parent="Zs0lDr_UA4FSCecoSCZW-577" vertex="1">
          <mxGeometry x="13.125" y="169.14285714285714" width="26.25" height="22.857142857142858" as="geometry" />
        </mxCell>
        <mxCell id="Zs0lDr_UA4FSCecoSCZW-623" value="6" style="strokeWidth=1;shadow=0;dashed=0;align=center;html=1;shape=mxgraph.mockup.forms.rrect;rSize=0;strokeColor=#999999;fontColor=#999999;fillColor=#ddeeff;" parent="Zs0lDr_UA4FSCecoSCZW-577" vertex="1">
          <mxGeometry x="39.375" y="169.14285714285714" width="26.25" height="22.857142857142858" as="geometry" />
        </mxCell>
        <mxCell id="Zs0lDr_UA4FSCecoSCZW-624" value="7" style="strokeWidth=1;shadow=0;dashed=0;align=center;html=1;shape=mxgraph.mockup.forms.rrect;rSize=0;strokeColor=#999999;fontColor=#999999;fillColor=#ddeeff;" parent="Zs0lDr_UA4FSCecoSCZW-577" vertex="1">
          <mxGeometry x="65.625" y="169.14285714285714" width="26.25" height="22.857142857142858" as="geometry" />
        </mxCell>
        <mxCell id="Zs0lDr_UA4FSCecoSCZW-625" value="8" style="strokeWidth=1;shadow=0;dashed=0;align=center;html=1;shape=mxgraph.mockup.forms.rrect;rSize=0;strokeColor=#999999;fontColor=#999999;fillColor=#ddeeff;" parent="Zs0lDr_UA4FSCecoSCZW-577" vertex="1">
          <mxGeometry x="91.875" y="169.14285714285714" width="26.25" height="22.857142857142858" as="geometry" />
        </mxCell>
        <mxCell id="Zs0lDr_UA4FSCecoSCZW-626" value="9" style="strokeWidth=1;shadow=0;dashed=0;align=center;html=1;shape=mxgraph.mockup.forms.rrect;rSize=0;strokeColor=#999999;fontColor=#999999;fillColor=#ddeeff;" parent="Zs0lDr_UA4FSCecoSCZW-577" vertex="1">
          <mxGeometry x="118.125" y="169.14285714285714" width="26.25" height="22.857142857142858" as="geometry" />
        </mxCell>
        <mxCell id="Zs0lDr_UA4FSCecoSCZW-627" value="10" style="strokeWidth=1;shadow=0;dashed=0;align=center;html=1;shape=mxgraph.mockup.forms.rrect;rSize=0;strokeColor=#999999;fontColor=#999999;fillColor=#ddeeff;" parent="Zs0lDr_UA4FSCecoSCZW-577" vertex="1">
          <mxGeometry x="144.375" y="169.14285714285714" width="26.25" height="22.857142857142858" as="geometry" />
        </mxCell>
        <mxCell id="Zs0lDr_UA4FSCecoSCZW-628" value="11" style="strokeWidth=1;shadow=0;dashed=0;align=center;html=1;shape=mxgraph.mockup.forms.rrect;rSize=0;strokeColor=#999999;fontColor=#999999;fillColor=#ddeeff;" parent="Zs0lDr_UA4FSCecoSCZW-577" vertex="1">
          <mxGeometry x="170.625" y="169.14285714285714" width="26.25" height="22.857142857142858" as="geometry" />
        </mxCell>
        <mxCell id="Zs0lDr_UA4FSCecoSCZW-629" value="24" style="strokeWidth=1;shadow=0;dashed=0;align=center;html=1;shape=mxgraph.mockup.forms.rrect;rSize=0;strokeColor=#ff0000;fontColor=#ffffff;strokeWidth=2;fillColor=#008cff;" parent="Zs0lDr_UA4FSCecoSCZW-577" vertex="1">
          <mxGeometry x="65.625" y="123.42857142857143" width="26.25" height="22.857142857142858" as="geometry" />
        </mxCell>
        <mxCell id="Zs0lDr_UA4FSCecoSCZW-630" value="" style="strokeWidth=1;shadow=0;dashed=0;align=center;html=1;shape=mxgraph.mockup.forms.rrect;rSize=0;strokeColor=#999999;fillColor=#ffffff;fontColor=#FFFFFF;" parent="Zs0lDr_UA4FSCecoSCZW-563" vertex="1">
          <mxGeometry x="250" y="210" width="150" height="200" as="geometry" />
        </mxCell>
        <mxCell id="Zs0lDr_UA4FSCecoSCZW-631" value="Disponibilidad" style="strokeWidth=1;shadow=0;dashed=0;align=center;html=1;shape=mxgraph.mockup.forms.rrect;rSize=0;strokeColor=#999999;fontColor=#008cff;fontSize=17;fillColor=#ffffff;resizeWidth=1;" parent="Zs0lDr_UA4FSCecoSCZW-630" vertex="1">
          <mxGeometry width="150" height="30" relative="1" as="geometry" />
        </mxCell>
        <mxCell id="Zs0lDr_UA4FSCecoSCZW-632" value="8:00am" style="strokeWidth=1;shadow=0;dashed=0;align=center;html=1;shape=mxgraph.mockup.forms.anchor;fontSize=17;fontColor=#666666;align=left;spacingLeft=5;resizeWidth=1;" parent="Zs0lDr_UA4FSCecoSCZW-630" vertex="1">
          <mxGeometry width="150" height="20" relative="1" as="geometry">
            <mxPoint y="30" as="offset" />
          </mxGeometry>
        </mxCell>
        <mxCell id="Zs0lDr_UA4FSCecoSCZW-633" value="11:00am" style="strokeWidth=1;shadow=0;dashed=0;align=center;html=1;shape=mxgraph.mockup.forms.anchor;fontSize=17;fontColor=#666666;align=left;spacingLeft=5;resizeWidth=1;" parent="Zs0lDr_UA4FSCecoSCZW-630" vertex="1">
          <mxGeometry width="150" height="20" relative="1" as="geometry">
            <mxPoint y="50" as="offset" />
          </mxGeometry>
        </mxCell>
        <mxCell id="Zs0lDr_UA4FSCecoSCZW-634" value="4:00pm" style="strokeWidth=1;shadow=0;dashed=0;align=center;html=1;shape=mxgraph.mockup.forms.rrect;rSize=0;fontSize=17;fontColor=#666666;align=left;spacingLeft=5;fillColor=#ddeeff;strokeColor=none;resizeWidth=1;" parent="Zs0lDr_UA4FSCecoSCZW-630" vertex="1">
          <mxGeometry width="150" height="20" relative="1" as="geometry">
            <mxPoint y="70" as="offset" />
          </mxGeometry>
        </mxCell>
        <mxCell id="Zs0lDr_UA4FSCecoSCZW-635" value="6:00pm" style="strokeWidth=1;shadow=0;dashed=0;align=center;html=1;shape=mxgraph.mockup.forms.anchor;fontSize=17;fontColor=#666666;align=left;spacingLeft=5;resizeWidth=1;" parent="Zs0lDr_UA4FSCecoSCZW-630" vertex="1">
          <mxGeometry width="150" height="20" relative="1" as="geometry">
            <mxPoint y="90" as="offset" />
          </mxGeometry>
        </mxCell>
        <mxCell id="Zs0lDr_UA4FSCecoSCZW-636" value="" style="shape=mxgraph.mockup.markup.scratchOut;shadow=0;dashed=0;html=1;strokeColor=#999999;strokeWidth=4;" parent="Zs0lDr_UA4FSCecoSCZW-563" vertex="1">
          <mxGeometry x="420" y="270" width="160" height="50" as="geometry" />
        </mxCell>
        <mxCell id="Zs0lDr_UA4FSCecoSCZW-637" value="Confirmar cita" style="strokeWidth=1;shadow=0;dashed=0;align=center;html=1;shape=mxgraph.mockup.buttons.button;strokeColor=#666666;fontColor=#ffffff;mainText=;buttonStyle=round;fontSize=17;fontStyle=1;fillColor=#008cff;whiteSpace=wrap;" parent="Zs0lDr_UA4FSCecoSCZW-563" vertex="1">
          <mxGeometry x="425" y="340" width="150" height="50" as="geometry" />
        </mxCell>
        <mxCell id="Zs0lDr_UA4FSCecoSCZW-642" value="" style="verticalLabelPosition=bottom;shadow=0;dashed=0;align=center;html=1;verticalAlign=top;strokeWidth=1;shape=mxgraph.mockup.markup.line;strokeColor=#999999;fillColor=none;fontColor=#FFFFFF;" parent="Zs0lDr_UA4FSCecoSCZW-563" vertex="1">
          <mxGeometry x="15" y="440" width="580" height="20" as="geometry" />
        </mxCell>
        <mxCell id="2F2SBcUWsuzm-smWwCRw-23" value="" style="group" vertex="1" connectable="0" parent="Zs0lDr_UA4FSCecoSCZW-563">
          <mxGeometry x="200.2500000000002" y="377" width="222.69" height="323" as="geometry" />
        </mxCell>
        <mxCell id="Zs0lDr_UA4FSCecoSCZW-743" value="" style="shape=image;imageAspect=0;aspect=fixed;verticalLabelPosition=bottom;verticalAlign=top;fillColor=none;fontColor=#FFFFFF;image=data:image/jpeg,/9j/4AAQSkZJRgABAQEAkACQAAD/4RESRXhpZgAATU0AKgAAAAgABAE7AAIAAAAYAAAISodpAAQAAAABAAAIYpydAAEAAAAwAAAQ2uocAAcAAAgMAAAAPgAAAAAc6gAAAAgAAAAAAAAAAAAAAAAAAAAAAAAAAAAAAAAAAAAAAAAAAAAAAAAAAAAAAAAAAAAAAAAAAAAAAAAAAAAAAAAAAAAAAAAAAAAAAAAAAAAAAAAAAAAAAAAAAAAAAAAAAAAAAAAAAAAAAAAAAAAAAAAAAAAAAAAAAAAAAAAAAAAAAAAAAAAAAAAAAAAAAAAAAAAAAAAAAAAAAAAAAAAAAAAAAAAAAAAAAAAAAAAAAAAAAAAAAAAAAAAAAAAAAAAAAAAAAAAAAAAAAAAAAAAAAAAAAAAAAAAAAAAAAAAAAAAAAAAAAAAAAAAAAAAAAAAAAAAAAAAAAAAAAAAAAAAAAAAAAAAAAAAAAAAAAAAAAAAAAAAAAAAAAAAAAAAAAAAAAAAAAAAAAAAAAAAAAAAAAAAAAAAAAAAAAAAAAAAAAAAAAAAAAAAAAAAAAAAAAAAAAAAAAAAAAAAAAAAAAAAAAAAAAAAAAAAAAAAAAAAAAAAAAAAAAAAAAAAAAAAAAAAAAAAAAAAAAAAAAAAAAAAAAAAAAAAAAAAAAAAAAAAAAAAAAAAAAAAAAAAAAAAAAAAAAAAAAAAAAAAAAAAAAAAAAAAAAAAAAAAAAAAAAAAAAAAAAAAAAAAAAAAAAAAAAAAAAAAAAAAAAAAAAAAAAAAAAAAAAAAAAAAAAAAAAAAAAAAAAAAAAAAAAAAAAAAAAAAAAAAAAAAAAAAAAAAAAAAAAAAAAAAAAAAAAAAAAAAAAAAAAAAAAAAAAAAAAAAAAAAAAAAAAAAAAAAAAAAAAAAAAAAAAAAAAAAAAAAAAAAAAAAAAAAAAAAAAAAAAAAAAAAAAAAAAAAAAAAAAAAAAAAAAAAAAAAAAAAAAAAAAAAAAAAAAAAAAAAAAAAAAAAAAAAAAAAAAAAAAAAAAAAAAAAAAAAAAAAAAAAAAAAAAAAAAAAAAAAAAAAAAAAAAAAAAAAAAAAAAAAAAAAAAAAAAAAAAAAAAAAAAAAAAAAAAAAAAAAAAAAAAAAAAAAAAAAAAAAAAAAAAAAAAAAAAAAAAAAAAAAAAAAAAAAAAAAAAAAAAAAAAAAAAAAAAAAAAAAAAAAAAAAAAAAAAAAAAAAAAAAAAAAAAAAAAAAAAAAAAAAAAAAAAAAAAAAAAAAAAAAAAAAAAAAAAAAAAAAAAAAAAAAAAAAAAAAAAAAAAAAAAAAAAAAAAAAAAAAAAAAAAAAAAAAAAAAAAAAAAAAAAAAAAAAAAAAAAAAAAAAAAAAAAAAAAAAAAAAAAAAAAAAAAAAAAAAAAAAAAAAAAAAAAAAAAAAAAAAAAAAAAAAAAAAAAAAAAAAAAAAAAAAAAAAAAAAAAAAAAAAAAAAAAAAAAAAAAAAAAAAAAAAAAAAAAAAAAAAAAAAAAAAAAAAAAAAAAAAAAAAAAAAAAAAAAAAAAAAAAAAAAAAAAAAAAAAAAAAAAAAAAAAAAAAAAAAAAAAAAAAAAAAAAAAAAAAAAAAAAAAAAAAAAAAAAAAAAAAAAAAAAAAAAAAAAAAAAAAAAAAAAAAAAAAAAAAAAAAAAAAAAAAAAAAAAAAAAAAAAAAAAAAAAAAAAAAAAAAAAAAAAAAAAAAAAAAAAAAAAAAAAAAAAAAAAAAAAAAAAAAAAAAAAAAAAAAAAAAAAAAAAAAAAAAAAAAAAAAAAAAAAAAAAAAAAAAAAAAAAAAAAAAAAAAAAAAAAAAAAAAAAAAAAAAAAAAAAAAAAAAAAAAAAAAAAAAAAAAAAAAAAAAAAAAAAAAAAAAAAAAAAAAAAAAAAAAAAAAAAAAAAAAAAAAAAAAAAAAAAAAAAAAAAAAAAAAAAAAAAAAAAAAAAAAAAAAAAAAAAAAAAAAAAAAAAAAAAAAAAAAAAAAAAAAAAAAAAAAAAAAAAAAAAAAAAAAAAAAAAAAAAAAAAAAAAAAAAAAAAAAAAAAAAAAAAAAAAAAAAAAAAAAAAAAAAAAAAAAAAAAAAAAAAAAAAAAAAAAAAAAAAAAAAAAAAAAAAAAAAAAAAAAAAAAAAAAAAAAAAAAAAAAAAAAAAAAAAAAAAAAAAAAAAAAAAAAAAAAAAAAAAAAAAAAAAAAAAAAAAAAAAAAAAAAAAAAAAAAAAAAAAAAAAAAAAAAAAAAAAAAAAAAAAAAAAAAAAAAAAAAAAAAAAAAAAAAAAAAAAAAAAAAAAAAAAAAAAAAAAAAAAAAAAAAAAAAAAAAAAAAAAAAAAAAAAAAAAAAAAAAAAAAAAAAAAAAAAAAAAAAAAAAAAAAAAAAAAAAAAAAAAAAAAAAAAAAAAAAAAAAAAAAAAAAAAAAAAAAAAAAAAAAAAAAAAAAAAAAAAAAAAAAAAAAAAAAAAAAAAAAAAAAAAAAAAAAAAAAAAAAAAAAAAAAAAAAAAAAAAAAAAAAAAAAAAAAAAAAAAAAAAAAAAAAAAAAAAAAAAAAAAAAAAAAAAAAAAAAAAAAAAAAAAAAAAAAAAAAAAAAAAAAAAAAAAAAAAAAAAAAAAAAAAAAAAAAAAAAAAAAAAAAAAAAAAAAAAAAAAAAAAAAAAAAAAAAAAAAAAAAAAAAAAAAAAAAAAAAAAAAAAAAAAAAAAAAAAAAAAAAAAAAAAAAAAAAAAAAAAAAAAAAAAAAAAAAAAAAAAAAAAAAAAAAAAAAAAAAAAAAAAAAAAAAAAAAAAAAAAAAAAAAAAAAAAAAAAAAAAAAAAAAAAAAAAAAAAAAAAAAAAAAAAAAAAAAAAAAAAAAAAAAAAAAAAAAAAAAAAFNhcmEgRGVsIFZhbGxlIFJlc3RyZXBvAAAFkAMAAgAAABQAABCwkAQAAgAAABQAABDEkpEAAgAAAAM2MwAAkpIAAgAAAAM2MwAA6hwABwAACAwAAAikAAAAABzqAAAACAAAAAAAAAAAAAAAAAAAAAAAAAAAAAAAAAAAAAAAAAAAAAAAAAAAAAAAAAAAAAAAAAAAAAAAAAAAAAAAAAAAAAAAAAAAAAAAAAAAAAAAAAAAAAAAAAAAAAAAAAAAAAAAAAAAAAAAAAAAAAAAAAAAAAAAAAAAAAAAAAAAAAAAAAAAAAAAAAAAAAAAAAAAAAAAAAAAAAAAAAAAAAAAAAAAAAAAAAAAAAAAAAAAAAAAAAAAAAAAAAAAAAAAAAAAAAAAAAAAAAAAAAAAAAAAAAAAAAAAAAAAAAAAAAAAAAAAAAAAAAAAAAAAAAAAAAAAAAAAAAAAAAAAAAAAAAAAAAAAAAAAAAAAAAAAAAAAAAAAAAAAAAAAAAAAAAAAAAAAAAAAAAAAAAAAAAAAAAAAAAAAAAAAAAAAAAAAAAAAAAAAAAAAAAAAAAAAAAAAAAAAAAAAAAAAAAAAAAAAAAAAAAAAAAAAAAAAAAAAAAAAAAAAAAAAAAAAAAAAAAAAAAAAAAAAAAAAAAAAAAAAAAAAAAAAAAAAAAAAAAAAAAAAAAAAAAAAAAAAAAAAAAAAAAAAAAAAAAAAAAAAAAAAAAAAAAAAAAAAAAAAAAAAAAAAAAAAAAAAAAAAAAAAAAAAAAAAAAAAAAAAAAAAAAAAAAAAAAAAAAAAAAAAAAAAAAAAAAAAAAAAAAAAAAAAAAAAAAAAAAAAAAAAAAAAAAAAAAAAAAAAAAAAAAAAAAAAAAAAAAAAAAAAAAAAAAAAAAAAAAAAAAAAAAAAAAAAAAAAAAAAAAAAAAAAAAAAAAAAAAAAAAAAAAAAAAAAAAAAAAAAAAAAAAAAAAAAAAAAAAAAAAAAAAAAAAAAAAAAAAAAAAAAAAAAAAAAAAAAAAAAAAAAAAAAAAAAAAAAAAAAAAAAAAAAAAAAAAAAAAAAAAAAAAAAAAAAAAAAAAAAAAAAAAAAAAAAAAAAAAAAAAAAAAAAAAAAAAAAAAAAAAAAAAAAAAAAAAAAAAAAAAAAAAAAAAAAAAAAAAAAAAAAAAAAAAAAAAAAAAAAAAAAAAAAAAAAAAAAAAAAAAAAAAAAAAAAAAAAAAAAAAAAAAAAAAAAAAAAAAAAAAAAAAAAAAAAAAAAAAAAAAAAAAAAAAAAAAAAAAAAAAAAAAAAAAAAAAAAAAAAAAAAAAAAAAAAAAAAAAAAAAAAAAAAAAAAAAAAAAAAAAAAAAAAAAAAAAAAAAAAAAAAAAAAAAAAAAAAAAAAAAAAAAAAAAAAAAAAAAAAAAAAAAAAAAAAAAAAAAAAAAAAAAAAAAAAAAAAAAAAAAAAAAAAAAAAAAAAAAAAAAAAAAAAAAAAAAAAAAAAAAAAAAAAAAAAAAAAAAAAAAAAAAAAAAAAAAAAAAAAAAAAAAAAAAAAAAAAAAAAAAAAAAAAAAAAAAAAAAAAAAAAAAAAAAAAAAAAAAAAAAAAAAAAAAAAAAAAAAAAAAAAAAAAAAAAAAAAAAAAAAAAAAAAAAAAAAAAAAAAAAAAAAAAAAAAAAAAAAAAAAAAAAAAAAAAAAAAAAAAAAAAAAAAAAAAAAAAAAAAAAAAAAAAAAAAAAAAAAAAAAAAAAAAAAAAAAAAAAAAAAAAAAAAAAAAAAAAAAAAAAAAAAAAAAAAAAAAAAAAAAAAAAAAAAAAAAAAAAAAAAAAAAAAAAAAAAAAAAAAAAAAAAAAAAAAAAAAAAAAAAAAAAAAAAAAAAAAAAAAAAAAAAAAAAAAAAAAAAAAAAAAAAAAAAAAAAAAAAAAAAAAAAAAAAAAAAAAAAAAAAAAAAAAAAAAAAAAAAAAAAAAAAAAAAAAAAAAAAAAAAAAAAAAAAAAAAAAAAAAAAAAAAAAAAAAAAAAAAAAAAAAAAAAAAAAAAAAAAAAAAAAAAAAAAAAAAAAAAAAAAAAAAAAAAAAAAAAAAAAAAAAAAAAAAAAAAAAAAAAAAAAAAAAAAAAAAAAAAAAAAAAAAAAAAAAAAAAAAAAAAAAAAAAAAAAAAAAAAAAAAAAAAAAAAAAAAAAAAAAAAAAAAAAAAAAAAAAAAAAAAAAAAAAAAAAAAAAAAAAAAAAAAAAAAAAAAAAAAAAAAAAAAAAAAAAAAAAAAAAAAAAAAAAAAAAAAAAAAAAAAAAAAAAAAAAAAAAAAAAAAAAAAAAAAAAAAAAAAAAAAAAAAAAAAAAAAAAAAAAAAAAAAAAAAAAAAAAAAAAAAAAAAAAAAAAAAAAAAAAAAAAAAAAAAAAAAAAAAAAAAAAAAAAAAAAAAAAAAAAAAAAAAAAAAAAAAAAAAAAAAAAAAAAAAAAAAAAAAAAAAAAAAAAAAAAAAAAAAAAAAAAAAAAAAAAAAAAAAAAAAAAAAAAAAAAAAAAAAAAAAAAAAAAAAAAAAAAAAAAAAAAAAAAAAAAAAAAAAAAAAAAAAAAAAAAAAAAAAAAAAAAAAAAAAAAAAAAAAAAAAAAAAAAAAAAAAAAAAAAAAAAAAAAAAAAAAAAAAAAAAAAAAAAAAAAAAAAAAAAAAAAAAAAAAAAAAAAAAAAAAAAAAAAAAAAAAAAAAAAAAAAAAAAAAAAAAAAAAAAAAAAAAAAAAAAAAAAAAAAAAAAAAAAAAAAAAAAAAAAAAAAAAAAAAAAAAAAAAAAAAAAAAAAAAAAAAAAAAAAAAAAAAAAAAAAAAAAAAAAAAAAAAAAAAAAAAAAAAAAAAAAAAAAAAAAAAAAAAAAAAAAAAAAAAAAAAAAAAAAAAAAAAAAAAAAAAAAMjAyMTowMjoxNyAxMjowOToxMwAyMDIxOjAyOjE3IDEyOjA5OjEzAAAAUwBhAHIAYQAgAEQAZQBsACAAVgBhAGwAbABlACAAUgBlAHMAdAByAGUAcABvAAAA/+ELKmh0dHA6Ly9ucy5hZG9iZS5jb20veGFwLzEuMC8APD94cGFja2V0IGJlZ2luPSfvu78nIGlkPSdXNU0wTXBDZWhpSHpyZVN6TlRjemtjOWQnPz4NCjx4OnhtcG1ldGEgeG1sbnM6eD0iYWRvYmU6bnM6bWV0YS8iPjxyZGY6UkRGIHhtbG5zOnJkZj0iaHR0cDovL3d3dy53My5vcmcvMTk5OS8wMi8yMi1yZGYtc3ludGF4LW5zIyI+PHJkZjpEZXNjcmlwdGlvbiByZGY6YWJvdXQ9InV1aWQ6ZmFmNWJkZDUtYmEzZC0xMWRhLWFkMzEtZDMzZDc1MTgyZjFiIiB4bWxuczpkYz0iaHR0cDovL3B1cmwub3JnL2RjL2VsZW1lbnRzLzEuMS8iLz48cmRmOkRlc2NyaXB0aW9uIHJkZjphYm91dD0idXVpZDpmYWY1YmRkNS1iYTNkLTExZGEtYWQzMS1kMzNkNzUxODJmMWIiIHhtbG5zOnhtcD0iaHR0cDovL25zLmFkb2JlLmNvbS94YXAvMS4wLyI+PHhtcDpDcmVhdGVEYXRlPjIwMjEtMDItMTdUMTI6MDk6MTMuNjMxPC94bXA6Q3JlYXRlRGF0ZT48L3JkZjpEZXNjcmlwdGlvbj48cmRmOkRlc2NyaXB0aW9uIHJkZjphYm91dD0idXVpZDpmYWY1YmRkNS1iYTNkLTExZGEtYWQzMS1kMzNkNzUxODJmMWIiIHhtbG5zOmRjPSJodHRwOi8vcHVybC5vcmcvZGMvZWxlbWVudHMvMS4xLyI+PGRjOmNyZWF0b3I+PHJkZjpTZXEgeG1sbnM6cmRmPSJodHRwOi8vd3d3LnczLm9yZy8xOTk5LzAyLzIyLXJkZi1zeW50YXgtbnMjIj48cmRmOmxpPlNhcmEgRGVsIFZhbGxlIFJlc3RyZXBvPC9yZGY6bGk+PC9yZGY6U2VxPg0KCQkJPC9kYzpjcmVhdG9yPjwvcmRmOkRlc2NyaXB0aW9uPjwvcmRmOlJERj48L3g6eG1wbWV0YT4NCiAgICAgICAgICAgICAgICAgICAgICAgICAgICAgICAgICAgICAgICAgICAgICAgICAgICAgICAgICAgICAgICAgICAgICAgICAgICAgICAgICAgICAgICAgICAgICAgICAgICAKICAgICAgICAgICAgICAgICAgICAgICAgICAgICAgICAgICAgICAgICAgICAgICAgICAgICAgICAgICAgICAgICAgICAgICAgICAgICAgICAgICAgICAgICAgICAgICAgICAgIAogICAgICAgICAgICAgICAgICAgICAgICAgICAgICAgICAgICAgICAgICAgICAgICAgICAgICAgICAgICAgICAgICAgICAgICAgICAgICAgICAgICAgICAgICAgICAgICAgICAgCiAgICAgICAgICAgICAgICAgICAgICAgICAgICAgICAgICAgICAgICAgICAgICAgICAgICAgICAgICAgICAgICAgICAgICAgICAgICAgICAgICAgICAgICAgICAgICAgICAgICAKICAgICAgICAgICAgICAgICAgICAgICAgICAgICAgICAgICAgICAgICAgICAgICAgICAgICAgICAgICAgICAgICAgICAgICAgICAgICAgICAgICAgICAgICAgICAgICAgICAgIAogICAgICAgICAgICAgICAgICAgICAgICAgICAgICAgICAgICAgICAgICAgICAgICAgICAgICAgICAgICAgICAgICAgICAgICAgICAgICAgICAgICAgICAgICAgICAgICAgICAgCiAgICAgICAgICAgICAgICAgICAgICAgICAgICAgICAgICAgICAgICAgICAgICAgICAgICAgICAgICAgICAgICAgICAgICAgICAgICAgICAgICAgICAgICAgICAgICAgICAgICAKICAgICAgICAgICAgICAgICAgICAgICAgICAgICAgICAgICAgICAgICAgICAgICAgICAgICAgICAgICAgICAgICAgICAgICAgICAgICAgICAgICAgICAgICAgICAgICAgICAgIAogICAgICAgICAgICAgICAgICAgICAgICAgICAgICAgICAgICAgICAgICAgICAgICAgICAgICAgICAgICAgICAgICAgICAgICAgICAgICAgICAgICAgICAgICAgICAgICAgICAgCiAgICAgICAgICAgICAgICAgICAgICAgICAgICAgICAgICAgICAgICAgICAgICAgICAgICAgICAgICAgICAgICAgICAgICAgICAgICAgICAgICAgICAgICAgICAgICAgICAgICAKICAgICAgICAgICAgICAgICAgICAgICAgICAgICAgICAgICAgICAgICAgICAgICAgICAgICAgICAgICAgICAgICAgICAgICAgICAgICAgICAgICAgICAgICAgICAgICAgICAgIAogICAgICAgICAgICAgICAgICAgICAgICAgICAgICAgICAgICAgICAgICAgICAgICAgICAgICAgICAgICAgICAgICAgICAgICAgICAgICAgICAgICAgICAgICAgICAgICAgICAgCiAgICAgICAgICAgICAgICAgICAgICAgICAgICAgICAgICAgICAgICAgICAgICAgICAgICAgICAgICAgICAgICAgICAgICAgICAgICAgICAgICAgICAgICAgICAgICAgICAgICAKICAgICAgICAgICAgICAgICAgICAgICAgICAgICAgICAgICAgICAgICAgICAgICAgICAgICAgICAgICAgICAgICAgICAgICAgICAgICAgICAgICAgICAgICAgICAgICAgICAgIAogICAgICAgICAgICAgICAgICAgICAgICAgICAgICAgICAgICAgICAgICAgICAgICAgICAgICAgICAgICAgICAgICAgICAgICAgICAgICAgICAgICAgICAgICAgICAgICAgICAgCiAgICAgICAgICAgICAgICAgICAgICAgICAgICAgICAgICAgICAgICAgICAgICAgICAgICAgICAgICAgICAgICAgICAgICAgICAgICAgICAgICAgICAgICAgICAgICAgICAgICAKICAgICAgICAgICAgICAgICAgICAgICAgICAgICAgICAgICAgICAgICAgICAgICAgICAgICAgICAgICAgICAgICAgICAgICAgICAgICAgICAgICAgICAgICAgICAgICAgICAgIAogICAgICAgICAgICAgICAgICAgICAgICAgICAgICAgICAgICAgICAgICAgICAgICAgICAgICAgICAgICAgICAgICAgICAgICAgICAgICAgICAgICAgICAgICAgICAgICAgICAgCiAgICAgICAgICAgICAgICAgICAgICAgICAgICAgICAgICAgICAgICAgICAgICAgICAgICAgICAgICAgICAgICAgICAgICAgICAgICAgICAgICAgICAgICAgICAgICAgICAgICAKICAgICAgICAgICAgICAgICAgICAgICAgICAgICAgICAgICAgICAgICAgICAgICAgICAgICAgICAgICAgICAgICAgICAgICAgICAgICAgICAgICAgICAgICAgICAgICAgICAgIAogICAgICAgICAgICAgICAgICAgICAgICAgICAgPD94cGFja2V0IGVuZD0ndyc/Pv/bAEMABwUFBgUEBwYFBggHBwgKEQsKCQkKFQ8QDBEYFRoZGBUYFxseJyEbHSUdFxgiLiIlKCkrLCsaIC8zLyoyJyorKv/bAEMBBwgICgkKFAsLFCocGBwqKioqKioqKioqKioqKioqKioqKioqKioqKioqKioqKioqKioqKioqKioqKioqKioqKv/AABEIAeMBTQMBIgACEQEDEQH/xAAfAAABBQEBAQEBAQAAAAAAAAAAAQIDBAUGBwgJCgv/xAC1EAACAQMDAgQDBQUEBAAAAX0BAgMABBEFEiExQQYTUWEHInEUMoGRoQgjQrHBFVLR8CQzYnKCCQoWFxgZGiUmJygpKjQ1Njc4OTpDREVGR0hJSlNUVVZXWFlaY2RlZmdoaWpzdHV2d3h5eoOEhYaHiImKkpOUlZaXmJmaoqOkpaanqKmqsrO0tba3uLm6wsPExcbHyMnK0tPU1dbX2Nna4eLj5OXm5+jp6vHy8/T19vf4+fr/xAAfAQADAQEBAQEBAQEBAAAAAAAAAQIDBAUGBwgJCgv/xAC1EQACAQIEBAMEBwUEBAABAncAAQIDEQQFITEGEkFRB2FxEyIygQgUQpGhscEJIzNS8BVictEKFiQ04SXxFxgZGiYnKCkqNTY3ODk6Q0RFRkdISUpTVFVWV1hZWmNkZWZnaGlqc3R1dnd4eXqCg4SFhoeIiYqSk5SVlpeYmZqio6Slpqeoqaqys7S1tre4ubrCw8TFxsfIycrS09TV1tfY2dri4+Tl5ufo6ery8/T19vf4+fr/2gAMAwEAAhEDEQA/AMBzhTwT9K9q8LfDDw/L4bsrjUIHuZ7iFZXYyEckZ7V4o5+Q/Svpzwx/yKmlf9ekX/oIoAxf+FX+FP8AoHH/AL+t/jR/wq7wp/0Dj/3+b/GusdwnWozN3Gce1AHL/wDCr/Cv/QNP/f5v8aP+FX+FP+gaf+/rf4103n+7/lR5/wDv/wDfNAHM/wDCrvCffTf/ACK3+NH/AAq3wl/0Df8AyK3+NdL9oXv5v/fNH2hP+mv/AHyaYHNf8Kt8Jf8AQM/8it/jR/wq3wl/0Cx/39b/ABrpftKesv8A3yaPtCHgNIPqtIDmv+FXeEh00z/yK3+NQRfCXwZDNLJFpA3zHc581uv512KMc4zn3NPPFAHIv8LPCDptfSVYejSMf603/hVvhGOMqmkqFYbSBKw4/OuuEik48xc+madn1NMDz5fgd4B3k/2LkE5wZn6/nWjF8KPB8CBIdJCqOn75/wDGuxFJg/3qAOS/4Vd4U76YP+/r/wCNL/wq7wl/0DP/ACK3+NdWTt+84A96BIjHCupPsaAOT/4Vd4T/AOgZ/wCRW/xpf+FXeEv+gZ/5Fb/Gus/Ggk9jQByf/CrvCX/QM/8AIrf40h+FvhP/AKBxH/bVv8a6wE04e9IDkP8AhVnhT/nwb/v63+NQzfCPwZPPHNNpIeSP7jGRsj9a7aigDj/+FXeFMY/s849PNb/Gj/hVnhP/AKBx/wC/rf412FFAHH/8Kt8Jj/mHH/v63+NRSfCbwbMQZtIjlx03sWx+tdrRQBwF58E/Al9t87RFXb0CSso/Q1Ys/hD4K0+IpZ6MsWepWV+f1rt6KAOQHwx8J4x/Zig+zt/jR/wrDwp/0Dv/ACI1deBSGmI5D/hWPhT/AKB3/kRqX/hWPhT/AKB3/kRq66loCxx//CsvCn/QOP8A38b/ABo/4Vl4U/6Bx/7+N/jXYUlAzkP+FY+FP+gcf+/jUv8Awq/wmf8AmG/+RGrr6SgDkf8AhV3hP/oHn/v41J/wq3wp/wBA8/8Afxv8av67rNzoFwL2cCTTMYm2j5oj/e9xU2g6heax5l9IFisZQPsyY+Zh/eJ9/Sm4u1yFNN2PKvid4O0zw1HZ3WlxtEszlCpbI6Zrz8c17B8bDt0XTs/8/B/9Brx8dKksZIflP0r6e8Mf8inpX/XnF/6CK+YZPu/hX094Z/5FPSv+vOL/ANBFAF245YfRv5U63H+jx5/uim3HUfRv5VDcXK2mkeax6Jx9aAKF9qU0d6yQXNuijs45qv8A2len/l/tAKy7JfPlmurjlUBbB7ntSlI4NOeV1Blnb5B/dFAGp9uu8f8AIQt/wpv2+9B/4/resxgq6OsmBvaYjjrT5NslvDdwqN0TBZE9femBtabeTy3gWe5hlXHATqDWrcf8e8h9q465b7HfpcW3CSEMAO3tXVi5W603zUOdy8/WgCwn+tP+6KdJ90/SmJ/rj/uipCMigDyPRdIv9T09JdPsZI7g3zn7c1x91RIc/LnnjjFbLeLNUbWI44pYntpro2oJhO1eDzu7nI6V3djYwadb+RaoEj3Fgo7EnJ/Wsz/hD9H+3C5FtiRX8xcOQFbrkCgDG0DxRf6vqtnpzhUubdJTqChfu4ban0zgmmeMPFd/pN5PBphQ/ZrQ3DrsLknk89gOOtbXh7QG0y91LULnyjeahKHkMY6ADAGan1HwvpOq3Zub62EkrIEb5iAyjsR3pAPhit/EGg2z30IZJ41lKZ4BIz1rz3SQuieHbe80/C302pXFssj7pG2B34UZ5OFFen2dnFY2kVtbrtiiUKi56Adqzp/DGl3NktpJBiOOdp12sVIckkkH8TQBxZ8QaxrDaPLDeC0c3VxbSgpwxVTgkfh09ak0TWNZm0vSdOtr6L7VJbSXMtzOucANgL7nmuuh8J6PbpGsNqEWO4NyoDHiQjBNE3hTSZ7aOB7YKsROwoxBAPJGfT2oA5Sx8X6zrb/Z7Q21nLa2zTTvIMrKQxUbfY4z+Ndn4d1KTV9AtL6aPy5Jkyyjpnvj2qvN4S0edIVa0VfJTYhQkfL6HHWteCCO2gSGFQkaKFVQOgoAkoozRkUAFFJuHrS0AFFFFABRRRQAUUUUAFFFFABRRRQAUlKaSgDG1LQ01XUonvpPMs4xkWx6M3qfUe1P0nRhpNzMLWZvsb8pbtz5Z74Pp7Vqmlq+ZtWI5EndHmHxuH/El0z/AK+T/wCg14+vSvYfjb/yBdL/AOvk/wDoNePL0qShkh+X8K+nvDH/ACKmlf8AXpF/6CK+YJOn4V9P+GP+RT0r/rzi/wDQRSGXrgZIHqrfyrK1WdYrGETJvjxyPWtWcfMp/wBlv5VDJbR3Vgol6AUAcsLiyeUolkckdBJ1pGurENg2T5H+30rV0LToC0szruZHIGfSpr7SLS6v4Sp2iTJYofSgDF+02QXc1k+31300XNkzfJZP/wB911MmnWi6ebdkCxep7Gqdlplha3SSI5dm+6G5pgYbXdiMA2TE5xy9bmlSRvpUvlR+WoPAzmquq6fCNQgKjasr/OAa2TDHb2LRRLtATgUATJ/rj/uinu/lxs56KCTTE/1zf7op0qCWJkPRgQaAMlvEKxwpLPbskciko2euBmmw+JI5ZvLMJB2q2QwPDHFQt4dmmhit7m83QQghAFAIyMfpUsnhqFG8yyk8mTy1RuOG2nINAF++1CKzaAOCTM20Y7D1NQ/21BHPLAysGidU5/iycZFQ3GjPfea97NvcxeXHt4Cn1/lRJoYnjiEs581JBIXA+9jHH6VPUB58QRJEJpo2jgYNtkJ44zkfoafBrHmTwxzW7wi4BMTNznAzz6VXGgCS1W3uJzJboHAQLjO4Ec/TJqxbaa4ngkubgym3UiIYxjOBk+p4pgQz+I7aC2vJGVs2smwqOp9/8+lOOuoFaVoWFsjbTNnjOcdKr3nhiK5uJJUmZRKH3jHUnofw5/OpDoUjK9v9pzaPJ5jR7eTznGaAJrXXobuJmhjYuspiKHrkd6jXXi+P9Dk3NIY1XcOWHWnR6BFDdW80UrAxOzNx9/JJ5+maVtEKqDDcMsqzGZWIzgnqKAFGtxKxE0bRbCVk3H7hxnH405NZiN1bwuhjedC+D2Hb88VF/YwktJo7mTfJPIJHfb3B6fTFPm0SKaZp2Y+cXVlb+5jsPagDTBHXqB0pynP50wjr3OOlPFAC0UUUAFFFFABRRRQAUUUUAFFFFABRRRQAUlLSUAeZfG3/AJAul/8AXyf/AEGvHRXsXxt/5Aul/wDXyf8A0GvHRTERv0/Cvp/w1/yKelf9ecX/AKCK+YJOPyr6f8Nf8inpX/XnF/6CKQy9P1X/AHW/lSwDNqg7FabOcsv+638qYbmO2s0eVto2j60AUND/ANVdD/poaLXIktf996qaRqNpZxz/AGiTbvkLKOpIq2dV097m3ZJhtQtnIxjIFMDQvF3wFQhfLdP8faoLW3lS5wygbeWfsfYe1KNYsf8Anuv50NrNiB/r160AVtYH+mWOBgGXFaV0MW7/AO7isHVNRtZ7uykhlyqSZbjoPWtcXcN3ZyNbvvGOtAFlP9c3+6KdI4jQu5wqjJPpTE/1zf7opLpS9rKoXflCNuevHSi1xPRaHO6Z490fUtSkso3dJEBO5lwrAdSD6VKnjbR5NNu75Ji1vbP5bOFzuPoK4rwhpGo2/jFgNMurbTXDiWO5TKqfRW7itOHT7zStJ8QNb6Q0ztel7WHy8humGA9K7p0aUXZPseVTxNecbtW3N2Px7pEmlm8UyjbKIjCyYk3HttNaula5Y6tpf2+1lxCCQxcbduOuc9MV5xBpF+lvaX76ffTXkV6J7vfDgyZXHyj0Fammx31v4euNNubKaKXWXuWiBGPKJ5Ab060qlCnFXT1uFHFVZyakuhu2nj7RLxbpklkiW3iM5aRNu+MHG5fUUtv480efTbu8d5IRabRIkqbWIb7pA75rz678O67q2nJFDpk9u1hpP2Zt4wZnDZKr6jAq5qGj6rqNxeaxFpU8XlraKLZ0+eQoRuwO+K09hRavch4nERbVv61/I9I0TXrLXLOSe0LDyXKSI42sh9xWdbeOdHuLyWBZHj8rd87rhXC/ewe9Y+gR6ha3+qXT6bcJFq92qomzDRKExub2zXLz+GNau9Ls9ITT50k0+OcSXDLhZc/d2nvmsoUabnZuyNZYisoJpary/rpqek6F4v0zxDcPBZGRZFUOFlTaWX1HtWw11AkoieeNZD0UuAT+Fee+DtN1GbxHFqFzp89jHbWCWx85cF2HXFaxtZ/td3BcafJLcS3O+GfaSoXHBLdselROlFSauawxM3BSa1OrW7tmmMa3ETSDqgcEj8KWK6gnYrDNHIR1CODj8q4hLC6aztrZLSdL2CR2ln8sgOMHv3zxWv4X0SWyiiurqRvNMO3y9m3b9fU1lKKS3NadaU5WsdNRSLnAz1payOoKKKKACiiigAooooAKKKKACiiigAooooAKKKKAPMfjb/yBtL/6+T/6DXjo6V7F8bf+QNpf/Xyf/Qa8dHSmA2btj0r6c8Nf8ippP/XpF/6CK+YpD8p+lfTvhgg+E9KIOf8ARIv/AEEUgNAjBXPTkZqIwts2PGsgHTNWcdR2pNq+v60AZxsgW/48Yj9SKUWS/wDPhD+Y/wAK0Cin/wDXSeUnofzpgUvsS/8APhD+Y/wpDZL/AM+EP5j/AAq/5a+n60eWvp+tAFH7GgH/ACD4fzH+FSJD5cZiS3SFT/dbP9KsmJfT9aBGo6fzoASMjefpUmM0iqBSk0AG0Ckzz0pQaXNABio5Io2ZHdAzJ9046VJmkJpAJj5smlxR1ozQABeaWjIoyKADFGKM0ZoAKKM0lABmlpKKAFoozRmgAoozRmgAoozRmgAoozSbh60ALRRkUUAFFFIWUHBIB+tAC0Um5fUfnRuX1H50CujzL42/8gbS/wDr5P8A6DXjo6V7D8bWB0bS8H/l5b/0GvHgeKYyJyOc819NeEkB8G6SD/z6R/8AoNfMcvQ19O+ET/xR+k/9ekf/AKCKQGt5Ke/50eSvv+dPzRmgBnkr7/nR5aDkk/nT9wrE8UXE8VjapbSmHz7pIpJB1VCDnHoeBTWrJlLlVzYCIRwSfxo8tPU/nXKT376HOLKyuzdzXEqIiTvkRZUkkn/gNUf+EuuhfBtqhtjW+3P7syCcR7/pWvsm9jD6xGOktzuTGvqfzoEaep/OuMm8Waot3LaRQ28kkCzNLICdpCBDx/33iop/EmrTNbRokMUrSwPncdu2RWIB/KmqMiXioHcGNPU/nSeUvv8AnXFReLrlZJXmjRXjiZeDlC4kC8fnXQ+GtYl1ixkkuECPHIUIAxnHfFKVKUVdmkK8JuyNXyl/2vzo8pf9r86korE3I/KT1P50eUnqfzqSigCPyk9T+dHlJ6t+dSUUAR+Unq350eUnq351JmimBH5Sep/Ojyk9T+dSUUgI/KT1P50eUnqfzqSigCLy09T+dL5aep/On0tAEflJ6n86PKT1P51JRmgCPyk9T+dHlJ6n86kozQBH5S/7X50nlqTjn86lprZ7DPtQA0RgdaQxp3yKwvFGtalo0cMlhpb6gkjYYI3Kn6VtWUs09jDLcxeTK6gtHnO0+lU4tLm7kqScmuxn3krx3DKjsF7VW+0uTjzjn60ut8Lc87T5LHI+lef6Nu/sLz5ZYoZDaNiUTM0isU67fzqSj0ATyEZErEfWvNfihq2pWOoWa2l9NCHjJIRyO9bPhmUw6mtpLgn7L5geGbfG+CMnB6HkVy/xXfOrWAPGYiP/AB4V6GX2dez7M8vNW1hW15fmcp/b3iBRltRvQOufMb/Gk/4SPW8n/ia3eR1/fN/jXZaqrLDFFBLcGPyYsQraqUPyjPzfnVjU7LSbtdZvbGCOCW1tjFJFxy2AQwr2faRVvdPmXTm7vnPO7vVdR1BVjvr6edEOVWRycGmqflqoTmcVbXpXjZgkq7SPpcpblhk2RSjg19N+EmA8H6Tk/wDLpH/6CK+Z2GQc+lfSXhn/AJFHSl/6dI//AEEV556pveauetBkX1qpt5pdoxQBY81c9ajuoLa9t2hukWSNuqmocc07ApgVRoGlG3MH2ddhYMeTnI6HPWnHQdKMIh+yxBAmwYHQZ3fz5qcBf7v60vy/3arml3IdOD6EEGiabANqQJwrrk9SHxu/PA/Kkl0TTJkxNbowG32+6ML+QNWPl/u0YU/w0uaXcPZw7FX+wtK8rZ9lTbjGPbOf51bsrK0sFYWiLGrnJAPem4H92jCj+H9aOaT0bGoRWyLm9f7wpN6/3hVUbT/DR8v92got+YvqKN6+oqp8v92j5f7tIC35i+oo8xf7wqp8v92ghf7v60AWjIv94UCRf7wqphf7v60YX+7+tAFsyL/eFHmL6iqmF/u/rRhf7v60AXA6/wB4Ub1/vCqmF9P1owvp+tIC3vX+8KPMX+8KqYX0/WjC+n60AW/MX+8KN6/3hVTC+n60YX0/WgC1vX+8KN6/3hVXC+n60YX0/WgC2HX+8KPMX+8KqYX0/WkwOwoAsnYepGPTNP3rj7wqkQB9aXC9hQBS1Nd87AjerDBGPas2PSLCGRXgs41KjghBx2rfKoeq0eWnZaAMK2021s9xtraOInrtXFeY/FpWOq2O1CcRNnA6civa/Kj9BUFxptldMDcW0UpUYG5c4rpw1ZUanO1c5MZh3iaLpp2ufMh1HUNioLq4AxjG4gYpn2q6DSESyAzDEhyfnHvX0v8A2FpYB/0C3/79ikXQ9K76fb/9+hXp/wBqRX2TwnklR7z/AAPmHYwkBKkD3FWl6V6l8XrG0s9GsHtLaKEmdgdiAZ4ry4fdFeXiayrVOdHuYPD/AFaj7O9xjdD9K+kvDhx4V0on/n0j/wDQRXzc4wPwNfSPh0Z8J6Xn/n0j/wDQRXOdbH6rr1hoqxtfS7WlOI0AyW+lMtte0y902TUre43QISHIzlSO2K5/xv4XvtZvNPv9McGW0bmMnGR7VH4d8H3mm+F9Stbkq1xfMX27+FNdLhT9kpJ69jkhWrOtySj7vc6a01uxuo2dJHRF6tMuz+dTrqdk7yIt1EWiALjd90HpXOQeGZ3t7aG4tYkjhmDuDMX3jYR39yKzLvwNqjRw/Z7lAUEZdVfbv2ptxnHrXOdh3i3ELuyrKhZRuYBug9aa15bJGJHnjVDjBLYznpWToPh46THN55R90MaFskkhUAYH9a53TPD99NZR3Pyzm3uXSGG5JAeFVKIT7gHP40Adz9qg2581MeueOmf5VW1DV7XTrNLmR2dXcInljduJ7CuVn8Jax9gjsYbiJ4V8tmdmIYlYdmPxODWvqnh+W40aws7RV/0WWOQr5m0Hb15xQBr2moR3loLnDRIevmrtIx9ael5ay52XMTbeuHBxWJdaBdXumG3aSSHcu0webujIz1z1qjd+D7jzGayEMeZJOAcfKygAfmKAOlbVLQMiieM7/ukHOe1Oa+tlkkR7iNWjxvBYDbnpmuP07wbqcF5HJNMqoj5A3bsDfnFamraBcT6rJdWsMMoZ0co5wHwpBB/nQB0DzxRRiSWVERujMwANR/2hZlnH2mLMbbW+YcHGcVz154cvW8J2unxMJbiFwxJfAHXp9M1n3nhLV5beSKIw5kLM77sZJQL/ADBoA7F9QtI5khe5jEjtsVdwyTjOP0NWa5az8M3MLW88kcBnju1ndyclgI9uPzrqRQAUUtFACUUUtACUUuKMUgEopaKAEoopNwFAai0Um4GlyKA1Cik3UbqAFNApNwo3CgBaUU3cKUMKAHUlJuFGc0AFFHTrRQB5v8aeNB033uG/9BryVfuivV/jW3/Ej03/AK+G/wDQa8oT7g+lADHP8jX0l4b58KaV/wBekf8A6CK+bJuEOPSvpPw2P+KR0n/r1j/9BFAGjzuwoyfSjE3eI/nTo+bpfpVs0IRS/e/88T+dL+97RH86siRTIUz8wGaf7UwKWJT1ib8DR++GNttntnIFXQwJIHbrxRn6/lQMpkSkcQnPpmm7bj/nifzFWZLuCFlWWVVZui55/KpN6lQwYEHoQaAKYE/eE/mKMy/88zVtXWRQVOQRke4pSMf/AK6AKf73/nifzFH7w/8ALE/nVtWBYgHkdaVXDEhTkjr7UAU8S/8API0uJscwkfiKu98d6OlAFL97/wA8jSfvR1iI/Gr1A5oAoHzu0JP4ij/SB/y7n/voVoYpNuaAKGLj/n3P/fQpcXH/AD7n/voVfAxRikBQ/f8A/Puf++h/jSfv/wDn3b/vof41oYooAzv3/wDz7N+Y/wAaXMwIzCRn1IrQxQeO1AHn2qfE3SdK1CW1uoJvMiYqwUjrVM/F/Qv+fa7/AEry3x2xPj3WQxxi6cfWufBPrXv08voOKbPkqua4mNRpNHuP/C4NB/59rv8AIU0/GLQh/wAut5+leI8+tABJwMk9q0/s6h2Mv7WxXc9t/wCFx6GP+XS7/MUf8Lj0P/n0u/zFeQ3Wh6pZ2a3VzZTRwN0cr0+vp+NUcN6kfWp/s/DsbzTFrd/ge2f8Lj0L/n0u/wAxR/wuPQ/+fS7/ADFeLw2txcf6mJ3+bblVOM/WmbH3BTnJ9af9n4cP7Uxb/wCGPa/+Fx6H/wA+l3+a0f8AC4tD/wCfO7/MV4ntYDJOB6k4pOexPTNP+z8P2F/a2K7ntv8AwuLQ/wDn0u/zFIfjHoo+7Z3f6V4lk0oNH9nUOwf2tiu57nZ/FvRry6SF4LmEOcBn24rvI3V41ZM7WGRmvle1x9qgz3kXn8a+o7QAWcIAwNg/lXm47DU6FuTqezluMq4nmVToed/Gv/kBab/18N/6DXk6fcH0r1j41f8AIC03/r4b/wBBrydPuD6V5x7BFN9w19KeGP8AkU9Nz/z6R/8AoIr5rm+6a+lvDX/Iqab/ANesf/oIoGaNv/x9f8BqPWzILAeTu3GQA7eoFSQjbPuPAxVrzIz1YUAcjBNfLbI1yJ1A2o5GRgbjU1teXK750aZoczIuSTzkBa6WVYZoykjBlJ5BpIUt4IfLj2qucgCmBzM5vz5JLTrCzAyYzuOI19PfNTwRX0yebJLKZEihK4baM55/QV0XmIScupGeKQGEbsMBnrzQBzmpWVw00hbnJZk+Xk7iP5Ul1HOlpbpL5/lbHLCLsx+6PpXSeYm4ZKkDvSiWM9WWgDlrb7SLWOJ1n89dgiGDjAHOT0/OnC0vWZWaS6I8tmILHG8Nxj8K6nzY/wC8KPNQ9xQBzb291NcMsonWMeYwKEjPy8dPeoomv90X2kziEnDMgIIO3/Guq8xR0ak8xT1IpAY3n3B0yFJvOEqlS5VTuC5qhLJOyy7Td7Wjzbk55bcev6V0+8DGGFBKHHIxTAwjYTm7R3uZ1zcbTtzgLtP9a1tKMp0+ITFmcLgs3UnJqwGQd/1oDqGJLDHakBIaBTfNT+9SeanrSAfRTfNT1FHmp/eH50wHUGm+an94fnSean99fzoAfSN2pPNT++PzprSKTww/OgD5j8eD/iv9Z/6+3/nWBXQ+O4nPjvWHAyrXTkHPvXP7Gz90/lX11JrkR+f1ov2ktOolWbCVIdQgkk+4kis2fTNQeW/91vypNjf3T+VaNpoyipJ3sd/JAra1eX1/rKjTLuQFYkkDCZSeFIzwBWlPNplpb3E13DpLXEcchtlVFYFeNucHr+teYMCy4YH8qakeOgP0xXO6N9mdcMRyr4bnqdjf2XnS+W1hFHL5EkifKq8xncR+PpVc3ukuDavDp4ijt7aQONuS/mLu578E15rs5J8vBNIUYqRt78DFR9Xfc1WMn0iepaVpGjWcpN89jJcSSXEluFkRlU4AQHt6kZ45rifGMVrH4iIsPKCeWhcRY2htoLdOOuawwG6mNs47ml2tjAU1cKPI73OepVc1ZRsNwKKXYw/hNAVvQ/lXQmc3Kx8H/H7b/wC+v86+p7T/AI8of9wfyr5esreWa+gWNCWLrgY9xX1HaqRaQg9QgB/KvHzTVxPo8luud+h5x8a/+QFpv/Xw3/oNeTx/cFesfGv/AJAem/8AXw3/AKDXk8f3B9K8U+jIpvuGvpXwz/yK2m/9esf/AKCK+apgShxX0r4ZH/FK6Z/16xf+gigDTI9RSbV9BUL3sSTeUc7u+B0pwuI2xtYEEZBzQBJtT+6KNi/3RTY5UlGY2DD2psN1FPLIkTbmiIDexxmmA/yx6ClCD0p1JQAmwelHlgdQKdRQA3Yp/hH5UgjUfwj8qfRmgBuweg/KjYPQflS80c0gE2D0H5UbB6D8qXJoyaAE2D0H5UFR6D8qdmkNADdo9B+VG0eg/KlpcUwG7R6D8qcFX0H5UUUAKUT0FIEX0FFFIBdqego2r6CkpaaAqS6TYSsWezgYnqWjBJqIaHpmebG2H/bJa0KKr2k+5Ps6fYpHRdLxxY2//fkU0aJpv/Pjb/8Aflav0oNHtJ9w9nT7FA6Jpv8Az42//foUg0PTf+fG3/79D/CtCilzS7kOlT7GedE03/nxt/8Av0P8KBoem/8APjb/APfof4VoUUc0u4vZU+xnnRNN/wCfG3/79D/CgaHpv/Pjb/8Afof4VoUUc0u4eyp9jPOiab/z42//AH6H+FA0TTR/y42//fof4VoUUc0u4/ZU+xSTR9PjkDx2cCMOjCMcVd/X3oopXb3LjCMdkeZ/Gv8A5Aem/wDXw3/oNeTR/cFes/Gv/kB6b/18N/6DXkycKKChj7tpyuOK+lPDX/IraX1/49Iun+6K+bJD8hFfSfho48LaX/16Rf8AoIpAPubOaW43oEwT98HBP1FVf7Mn8wNn5AOimmal4jjsdUNnFZzXksUfmyLF/CvrV621ezubG3ufOWJbld0ayMFb8qAG6ZbSw7GkUIFXbgH73PU1JbWXkahdzgALMylQPoAajTWbT7VdQzSCL7Lt3u5wvzDI5qaTVLGKFJZLqJI5PuMWGG+hoAt0lUrbWLK71Ceyt5lee3AMig9MjNVD4r0lbpLdrkBmuWttx+6HVSxyfTA/OmBsUVVbU7FbeO4a6iEMhwjlxhvpUzXESw+c0iiPGd5Ix+dICSiqqapZSWz3CXUTQxnDOHGAafDfWtwqmCeOTcCV2sDkCgCeiqjarp6FQ17ACxwMyDk0o1OyMLyi6i8uM4Z94wD6UgLVFVW1SxSKKR7qFUlzsYuADUQ1vT21RNPS4VriSLzlVTnK5x1pgX6KrSajZxTrDLdQpIxwFZwDSLqlk1oLlbqEwk48wOMZ+tMC1RWVf+JNM010W4uAWkheZQnOVQZJqxY6xYajai4trqNk2CQ5YZUEZ59KALtFVo9SspbZriO7haFThpA42j8aj03V7TVvtBsX8xbeUxM3YnHY96ALtFFFIAooooAWikooAKUUlLQAtFJmjNAC0UmaM0CFopM0ZoAWikzRmgBaKTNFAzzb41D/AIkmm/8AXc/+g15IG44UmvWvjX/yAdOx/wA/B/8AQa8lT7opgMlPB+lfSnhr/kVtL/69Iv8A0EV81zDH5V9KeG/+RW0v/r0i/wDQRSA5nxPYtLrsk76fdN+6xDdWRwwYdm55Gaw7vRNflihlv45pnlshGpijDbXz3z047ivVehoJ5BHHtQB5nq2g6sL6G4EUstvDJG0gUBi+IgM4PBwaZZaPqNq1rcahps93atFOq2pI/dlnyvHQDH5V6ZsBIYdf5U/A2+tAHK+GNJex8QX0klh9mEkEO1gcgYXDDPfkVkL4aa58URJPp+LaPWJbt3KjYyGEhf8Ax7tXoG386XGOB0oA8ru/D2sW15HIlm72UM17GkMYDhFaXMZCnttHHpWzqGnXOn/CVLO5VmmjiUshbLctnbn6ECu778VFNbxXERjnjWRG6qwyDQB59dWN3NBeXGnaQ9vbStADA0Yz8pO5wucZ6Csx7DU9N0lrqBHgvftpWFJSFLxyrtIwOOOuK9YK5/pUUtrBPNHJNAjvF9xmXJX6elAHAT+Cc2d8j2omcRW8URIzkjG8g/nTNV8NXkL3JsbdktkvIpTHGoO9QgBIB4ODXo4WjaO/4UAee6d4fmuL7SZL2zZrVJ7mR0mQDaGC7TgcDODxUvhfQbux13Tbi5smRVspIi2B8jeZkZ/4DXfcenvSYGc45oA4LXPCh1KfU5Z7bzGn1G1EbEZPlKU3ke2N361X1LQbuK4nNrbMtmuqmUxRIDmMwqNwXocNmvRsdKQqDn3oA8wfQL2Sxtbh7GZ3aC8jClRvjMgGzPYDr09afqHhS9trO2XTLIgf2XGlysZx5jhkJX64Br01Rt+7x9KBx04pgeaS6Td3F9Lf22lzQaZ58LPZYAZwudx2/lXSeCrN7WDUS1m9nHNdtJFGwx8pArpx7UGgBKKKKQBRRRQAUUZozQAUUZooAKKKKACiiigAooooAKKKKAClFJSigDzT4z/8gfTs9PtJ/wDQa8nUjbXrHxrH/Ei04j/n4P8A6DXk6/dHA6UwIZZVYDB7V9LeGyD4W0vB/wCXSL/0EV8uuPlr6d8LLjwrpf8A16Rf+gigDaVc07yqWIVPkCkBWMRpPLNWcgHBIz6UccZHWgCtsajYasgKaTC9hmgCtsNLtNWMClwB2oArbTS7KsYHpRgHoKAKxUmgIas7QO1BCigCvspCpFWtoowO9AFXaaNtWto9KRlHYUAVttG01ZCj0oIX0pgVtpNGw1ZAHpS4HpQBU2Gjy2q3gelLgUgKfltS+We9W8UYFAFTy6PLq1tFG0UAVfLo8s1a2ijA9KAKmw0bDVvA9KMD0oAqbDS+WatYHpRtHpQBV8s0eWatbRRtFAFXyzSbDVvaKNooAqbDRjFWtgqvJwaAPMvjWwXQdNz/AM/Df+g15IsqbR9K9W+OIH9gaaf+nhv/AEGvHFHyj6VQDH+6K+n/AAwP+KV0r/r0i/8AQRXzE4wK+nfC+f8AhFdLz/z6Rf8AoIpAbsXaotRu/sVm020tg44FSxdqo+IWuF0O4+xpvkx09qAOZn1wTzFmudv0bGKu6BqrT6i2LiSdWABXcWC+9c14fs2eG6a+tjlgVUlateCre/t/Eki+Xst9jZ3KRnkY/GkB6L0HHrWc81y0t2IZB+5YEAj2zitL0PSqT2DGaZkmKrMQWAHtigBo1WBWhDA/vFUhgOBnpTn1OFSAWPzFgOOm3rmon0nzGGJNqgLgYyRt6VIdLXzriUSNumGMdh64+tAD2v4F43cltgGO+M1GNUhXywxOWAORjuOKcdKRrx7gyN86bdmOF9/rTU0lEYfMGXaqkEcnAxQA5dWhaYptcKN2HI4OOtRf2tG9wgMciLs3/MvUVK2mBlRN3yKWOPXNQf2NI7Ay3G4LF5a8YwM0AW7e8S8LeWpGzgg+tUBfztscMGQuQygcqB3q7Zaf9jEmGB8w54GMVJFaCK3MWR82cnHr/wDroAhXVoTDG6pI29d4UDnb6morvWYkgLWyvL8qkugyFzgjP4GnnS9scYhlKMkXklsdV/yTUZ0TZbm3gnMcTBNwxydoA/kBQBbW9i3Hc2Pm2j61Xk1RFheUI+0LuBx1FPGmETbvO+Tfv2470h01zbmE3BKbNijb0H+RQA+PUI2ujAAxbPJ7CroOaof2aTfLcGTOO2MVfHFABRRRQAUUUUAFFFFABRRRQAUUUUAFFFFABRRRQAUUUUAFVrj71Wc1WuDzQB5b8cePD+m/9fDf+g142v3R9K9j+OXPh/Tf+vhv/Qa8djX92PpTAklTANfTHhj/AJFbS8/8+kX/AKCK+bpwNp+lfSXhsf8AFLaX/wBekX/oIoA24yKl4NV04FPyaAFESYxsUD0Ap4VR90AfQVFk0uTQBLgUYFRc0mTSAn4pM1Duajc1AE2RRkVBk0ZIoAsZpCah3GkLGgCf8aOKr5ajLUAWMijNV9zUu40AT596M1Dk0mTQBPmjIqDJoyaAJ8ijIqDJoyaAJ8ijIqDJoyaAJ8ijIqDJoyaAJ8ijIqDJoyaAJ8ijIqDJoyaAJ8ijIqDJoyaAJ8ijIqDJoyaALGaKgyaNzUATVWuByKeHamOdw5oA8u+NvzaHpv8A18N/6DXkixfKPpXr/wAaFxoem5/5+G/9BryXjimBWlbqM9q+mPDIJ8L6Z/15xf8AoAr5kkHX6V9O+F/+RV0z/rzi/wDQRQBswjdUuwVHb1Hqd5/Z+ny3R2kRDJ3HHFAE+BSgL6VybeO7Zes1kP8AeuAP6Vc0fxVFq+pfZIjAzeWXzFLvGPy96QHQYFGBRu/lVOS/kE0scNuZfK6ndjnGcUAXML6UbR6VXa+iQfvCFIUMwP8ADmmjU7cpnf3xj3oAt7RSFBWeNYQxeYIyQdxHPpVxrlFiEjcAgUASbBRsFVX1K3SMOz8EkD3xSS6nDHbNN94KobA70AW9go2io5LmOKFZH4DYxVZNVgZZCwKhJNgz/FQBd2ijaDVI6rbifyz0MayBh6Ekf+y0979Ek2EE5kVFI5zkA/1oAtbBRsFRT3UdvgSHBboBTJNQgiZFZ+XwQAPWgCxsFAQVWbUbZc/vOQ23HvUlrdLdq7Rg4VivPegCbaKNopaKAE2ijaKWigBNoo2ilooATaKNopaKAE2ijaKWigBNoo2ilooATaKNopaKAE2ijYKWigBuwVBNw1Waq3PUUAeYfG0n+w9Nx/z8N/6DXkIPyjntXrnxt/5AWm/9fDf+g15CpyopgNk6H6V9N+GD/wAUrpn/AF5xf+givmKUHB+lfTnhj/kVdM/684v/AEEUAbVuetVdeg+06LPCY/MDgArjORnmrVt0NTHpxQBxf/CP+FtoJ0RyRjpA3WrWh6Rp1h4gEulac9qjQMHYxlQTkYFdSF5OaUIF6DFACYH44qk0EyTStb42ynJz24xV7FAGKQGfJpnmQzhjuaULjPbFQwaSUKu2C6ybsevBH9a1sc5oxzmgDIGkyLGBuGfn7f3jmrdxBLPAIwQvTJ9cVdooAyYNKeN0LyqQjOcbf7wxTTpMiQNGkgcMiq2Vx0rYxSFc0AVZrZmhjCnJQgjNUG0iWTc7MBJ5pcAe+P8ACtnFAUDFAGOmkzRSExuhVoREQR/tE5/8eNTRaa8CxhWDbXRuf9lQv9K0gABgUmwZB9KAKlzaytPHPCVyiFcN3zVafSpZZBIJQDhc/hWoVzn3pccc80AZQ0yUEHdGCJDJnB5q3YW0lrG6yOr7nLcDGM1awKWgAooooAKKKKACiiigAooooAKKKKACiiigAooooAKKKKACq9z1FWKr3J6UAeWfG3/kBab/ANfDf+g15An3a9g+NozoWm/9fDf+g14+o+WmIdMBg/SvpfwyR/wi2mf9ecX/AKCK+aZR8rfSvpLw22PDGmf9ecX/AKCKBm0jlBxSmVqSMbqeVUDmgBvmt6Uea1UrjWtLtZCk95EjA4ILdKs291bXahreZJAem05pAP8ANajzWqTaKNq+lAEfmt6GjzW9DUm1fSjavpQBH5reho85qk2r6UbV9KAI/Oal800/aKNooAZ5ppPNb3p+0UbV9KAGea3oaPOanhRzkUu0elAEfnNR5rVJtFG0UAR+a1HmtUm0UbRQBH5jUea1SbRRtFAEfmtR5rVJsFGwUAR+a1HmtUmwUbBQBH5rUea1SbBRsFAEfmtR5rVJsFGwUAR+a1HmtUm0UbBQBH5rUea1Utc1a30HSbnUbpGaC1gknk2cnaiM5x+C0zQdf03xHpMGoaXOk8E67kZDkEf5zQBoea1J5rVNtX0o2j0oAh8x6bI2VGasbR6VWnOGoA80+NXOh6b/ANfDf+g15HEBtr1v40/8gPTf+vhv/Qa8lj4QUwGyfcb6V9H+HD/xTGmf9ekX/oIr5vk/1bfSvo3w6f8AimdM/wCvSL/0EUAb8P3a5Hx14hlsYRY2wKvJy0gPIHpXWQn5K848d4g18SzdHC7cjsOtIDmBFNJglTlzwT3q5p2pX+jTrPbFmVDhk7VANRiCN87OdxxgdBTbnUo/IKwDBIximB7RY3a3unwXSfdljDj8RVC718Wk8ytayNHAyiSQEYGcf4ineHAy+GNODdRbJn8hWPqek3F1dagVgkdrh1MUgkwEwBgkfUCkB0n9o24mSFpoxM44jLcmmSavapbySrKsgjALBDkjNc7f6VfS619oSJWVLqKRWXAG0AA++etC+H7hdOtoYwEcWTxSMDyXYqc/oaAOrS4SRSUYHHBGehqKPULeZ3WKeJmj+8A3IqhpFjLp1rLbEl1ViUdvvNn1rBg0S+E7SbWUtE6sMgAktkfhQB1v9o25hMyzIY1OC+7ihtRtVRGeeMLJ907utYUljcTRqRYpEElRjED98Ac1BJp12ztMbGM+ZC0QhDcRHJw360AdOLmJVYl1wpwcGopdTtIlmLzxnyULuA2SAOvFYJsL6Bfs8cPmq0kTNIGGOMZpZtEd4lKRqHLzl27srhgPr1FAG3b6rZ3AgKToftCB4xu5IPSr2a41dHuhd2UqWqo6xwKxyCFCNyMfjXWqTzmgCXNGaZmjNAD80ZpmaM0APzRmmZozQA/NGaZmjNAD80ZpmaM0APzRmmZozQA/NGaZmjNAD80ZpmaM0Ac18Q4pLnwJrNvAhkml067REUZLMbeQAD3rxv4R+GvFPga6iN3qcH2CchrjT/KkdomP91gpXd2Izjt1Fe96tHHJp8hkLjaCfkOCeMYz+NcvHKplWytJJbNreVgzBBmYDg7M9MHPFAHYWl2LmFW4DEcrnpVnNcptu9Mnika6N1BOwUS4AZGPAzjqDXR2s/2i1jmxjeu7HpQBYzVO5+8Ks5qtcckUAea/Gg/8SLTf+vhv/Qa8lT7g+lesfGc50LTf+vhv/Qa8nT7g+lADZPuN9K+i/Dp/4pnTP+vSL/0EV86Sf6s/Svonw8f+KZ0z/r0i/wDQRQBvQt8uKy/EPh+312xMcoxKvMb+hq/G+BTjNigDy1/h5raMfLMbAdDu61paB8P7mO8WXVmTapzsHOa7/wC0Uv2kelAEyKscaogwqjAA7Uveq/2kUfaRQBY6UijFQfaR6UC4HpQBYxSYqH7QPSk+0j0oAn/lRgYqD7StH2gUAWMf/XpvI61D59AnzQBOD6Uo4quZaBPQBZzRmq/n0efQBYzRmq/n+1Hn0AWM0Zqv59Hn0AWM0Zqv5/tR59AFjNGar+fR59AFjNGarefR9ooAs5ozVb7SKPtIoAs5ozVb7SKPtIoAbqcckumzLDxJjKZ9Qc1hWps9RsJIrjKOXZkcfeRiScexByK3/tArJvtGtL24E4aSCXu0R25oAzDfTQ27RXJGYpFxtH+uYHI2j145rqdOV49OhWX7+35vrWVZaNZWdwZzvnl4w8p3EfStX7QOwoAs5qvOeaT7RUckm+gDzj4yn/iRab/18N/6DXlKD5B9K9T+Mhzoem/9fDf+g15Wh+QUAU5dStfLOJcn6GvpDw24fwtpbL0+yRf+givkw9Dnpivq3wmf+KQ0kD/n0i/9BFBhSqOe5vx8ipQo71FGPlyKl3du9BuGxaNi0m71ppkT1oAfsWjy19KTPGTVSbVIIJnjfcNmNzbcgZoAubF9KNi0m8HoVPpg015NiFsFgP7ozQA/YtGxapPqtukxjbf8rBWbYdoPuasxzJKu6NgVyR+VAEmxKNi+lR+ahJ+YfL1yaerA9MGgA8taXYKKKAAoDSeWKdmkoANgpNgpaKADYKNgoooANq+lG0elFFAC7V9KNq0lFAC7V9KNq0lFAC7V9KNi+lJRQAuxfSk2L6UZozSANi+lGxfSjNJmgQuxfSjYvpSZozTC4uxfSjYvpSZooANi1FKoU8VLmoZzyKBnmXxouoLfRdN86ULm4bqD/dryP+2tOXj7Sv8A3ya9G/aEJ/4R3S/+vpv/AEGvBOtd1HDxqRuziq15QlZGqeQa+qvCfHhLSv8Ar0i/9BFfKoPtX1R4Vb/ik9K/69Iv/QRXnodBanRRH92KjnEhbMRwfU0Rn5akzVHaU2N8OkifiKahvPMHmmNkHoKvZoGPSgQLgxgE8d6zJjJDNfqLeWXz8BMDjO0CtM0ZoA5+4iuoZIVEUjGNYlDoM7sdastbXfnSJtYxRBjEd3Ut/hzWtt9TzS0AUIbJ5pLhrlpAryA+WCNpwBWZJBdC12LbOCN5XjODu9O1dFS5oAxTDP5creUxeUJnkn68Ve0hZo7UrcbgQ5wCMcZq5mjNAD80ZpmaM0APzRmmZozQA/NGaZmjNAD80ZpmaM0APzRmmZozQA/NGaZmjNAD80ZpmaM0APzRmmZozQA/NJmm5ozSAdmjNNooEOzRmmUUAPzRmmUUAPzUEx5FSZqGY/MKYzyH9oT/AJFvS/8Ar5b/ANBrwQdK95/aDOfDelj/AKeW/wDQa8Fr18LpA8vEfGdO+jyRoWLgj2r6X8Mx+X4W0sZ/5dIh/wCOivn6UHyzX0DoJI8NaX/17R/+givHPSjBR2NkSbRR9oFMUbhzQUFM0JPtK0faVpvlDFJ5QoEP+0ig3IpvlCjyhQA77UKPtIpnkijyloEP+0ij7SKb5S0eUtADhcil+0imeUtHlrQA77TS/aKj8sUuwUAO+00faaZ5Yo8sUAP+00faaZ5dHlUAP+00faRTPKFKIhQA/wC0Ck+0im+WKPLFADvtNH2mm+UKTyhQA/7TR9ppnlD0o8selAD/ALSKPtIpnlijyx6UAP8AtIo+0imeUPSl8oUAO+0ij7SKb5S0vkrQAv2kUfaRTfKFHlCgB32kUfaBTfKWl8sUAO80mo2bdTttMbigDy/446e2oaDpqo4UrcMef92vFx4alx/r0r3P4sk/2TY56ec38q8uHSt4V5wVkYzoxm7sH+4a9+0Ft3hvTR6W0f8A6CK+f3Py1754eb/indP/AOvaP/0EVgbm3H0p5OOeKji+7VLXmZdFuWRirKuQQaANDzU7svHXmnCRW6EE/WvKdPvLpobgTyy7ivGT7dvxrW8DXN1Jq8i3MkjZhyQ578UAegZqJ7uGJtsjgH0pxas13SK4ujMmcsNvuMf40Aau8HBBznpSMwC5JwB1rDup2jmhMTMgDLxz0PWmNNK8lzGWZgwfHB454oA31bNLmqFirwyyxEsVAUqWPtzV3NADqKbmjNADqKSigBaM0lFAC7qXNNooEOzRmm0UAOzRmm0UAOzRmm0ZoAfmkyKbmkzQA/IozTKWgBc0UlFADs0ZptFAC5opKKAHZozTc0ZoAdmoZTg1JmoJj8woA8/+Ln/IIsP+urfyry0H5RXp/wAXD/xKbD/rs38q8vX7ooASQ/Ia968Pn/im9Ox/z7R/+givBH/1bfSvePDx/wCKa07/AK9k/wDQRQM3Ym+WnSIsqFHAKnqDUMbYWneaKAIxp9mDkW8f/fNPjtbeGQvFCiMRjIFL5oo80UAS5pNqnkqCaj80UeaKAH7E/uigqpHSmeaKPNFAEowDmjNReaKPNFAEuaUGofNFHnCgRNmjNQ+cKPOFAE2aM1D5wo84UATZozUPnCjzhQBNmjNQ+cKPOFAE2aM1D54o88UATZozUPnijzxQBNmjNQ+eKPPFAE2aM1D54o84UATZozUPnCjzhQBNmjNQ+cKPOFAE2aM1D5wo84UATZozUPnCjzhQBNmq8zfMKd5wqF23GgDgviy2dIsf+ux/lXmCn5a9M+LB/wCJPZf9dj/KvMk+7QMbIf3Z+le8eHzjw3p3/Xsn/oIrwaQ/uzXvGgf8i5p3/Xsn/oIoEbCcrRsNNhNTZoGR7DRsqpd6za2NysNzuTd0fb8o/GraTLJGHjIKnkH1oAXy6PLp2737UzzgG2uQPTJ60CDy6XZS7gDyaA6kcEEH0oGJso2Uob36UjSorYZgCfWgBPLo8un7hSbqBDfLo8unhqUGgCPy6PLqTNGaAI/Lo8upM0ZoAj8ulEdPzRmgBnl0eXT80ZoAZ5dHlU/NGaAGeVR5VPzRmgBnlUeXT80ZoAj8ujy6kzRmgCPy6PLqTNGaAI/Lo8upM0ZoAj8ujy6kzRmgCPy6Y/y1Pmq8p5oA4H4rH/iUWP8A12P8q8zXha9K+Kv/ACCbL/rsf5V5qvSgZFIflNe86Cf+Kd07/r2T/wBBFeCyfdNe76Cf+Kd0/wD690/9BFAjZhNSk8VXhNSnmgDItZp79ri21G2BjUkLIwGDS+HRJHazRNkokhCewqe7W6k/d2uFVjy3pVm0t1tbcRp9SfU0AT5ytZl3hZHdgGUOpOGww+laNMMUbNkoCfXFAGc19M98sef3bNIgGOmAf8KhivJYrW3jiPIgWQkj7xNa3kxbt3lruznOO9IbaFmQmNSU+7x0oAoi8e3M8jtmNZeR6DH+NRPHPdXWJIldjFn5jwpz1rSltY5VIIAB68dalVQOe+MZoAzTc3EE0cW/IUqjcD881Pa3ks10YHHKZ3nHXnirLwxOcvGpPqRTUiWN3dVG5zkn1oAnBpwNRbqUNQBJmjNM3UbqAH5ozTM0ZoAfmjNMzRmgB+aM0zNGaAH5ozTM0ZoAfmjNMzRmgB+aM0zNGaAH5ozTM0ZoAfmjNMzRmgB+aM0zNGaAH5ozTM0ZoAfmq8x5qUmq8x5oA4P4qH/iU2X/AF2P8q81TpXpHxTOdJsf+ux/lXmqnigBkv3TXuuhH/indP8A+vdP/QRXhMv3T9K900I/8U7Yf9e6f+gigDXjbFSeZVQNil30AWd4pfMqpuNG6gC35lHmCqu6jdQMteYKN4qruoL0AWvMFHmCqm6jfQItmQUeYKq76TdQBa8wUvmCqm6jdQBb8wUeYKqbjRuNAFvzKPMqpuNG40AW/MpPMqruNG40AWfNpfMqruo3GgC35lHmVU3GjcaALfmUeZVTcaNxoAt+ZR5lVNxo3GgC35lHmVU3GjcaALfmUeZVTcaNxoAt+ZR5lVNxo3GgC35lHmVU3GjefWgC0ZKiY5qLcaN1AHD/ABS/5BVl/wBdj/KvNgeK9H+KR/4lNl/12P8AKvNx0oAZIeD9K9z0I/8AFPWH/Xun/oIrwxl45wa7nRfiHHY6XDa3lqztCoQMh6gUAek5ozXEf8LQ03HNnPn8Kb/ws/Tf+fS4/IUAdzmjNcP/AMLP00f8uc/5Ck/4Whpv/PncfkKAO5zQDXDf8LP07/n0uPyo/wCFn6d/z6T/AKUDO6zSE1wv/C0NP/59J6T/AIWfp/8Az6zfpQB3eaM1wg+J+n/8+k/6Uo+J2n/8+c9Ajus0Zrhf+Fn6d/z6z/pSj4nab3tZ/wAMUAdzmjNcP/ws7TP+fW4/Sk/4Wdpf/Prc/pQB3OaAa4Y/E7S/+fW5/Sl/4Wfpf/PrcfpQB3OaM1w3/Cz9M/59bj9KP+FnaZ/z63P5CgDuc0hNcP8A8LO0v/n2uf0pD8T9O7Wk/wCOKAO5zRmuG/4Wfp3e0m/Sk/4Wdp3/AD6zUAd1mjNcN/ws3Tz/AMus/wClH/CzdPH/AC6z/pQB3OaM1w3/AAs7Tv8An1mo/wCFnad/z6zUAdzmjNcN/wALO07/AJ9ZqP8AhZ2nf8+k1AHc5ozXDf8AC0NO/wCfOb8hR/wtDTv+fOb8hQB3OaM1w3/C0NO/585vyFH/AAs/T/8An0moA7nNGa4X/hZ+n/8APpNS/wDCztP/AOfSagDuc0Zrhv8AhZ+nf8+k9L/ws/Tv+fOf9KAO4zRmuH/4WfpvezuP0pP+FoaZ/wA+dx+lACfFE/8AEqsv+ux/lXnIPFdB4s8U/wDCRtEkEJjgiOQG6k1zoDe1ADiPnqNhzRRQAopMCiigAA5pwAzRRQAMMGm+tFFACClZQV5FFFACKo3Dinuo29KKKAI9oI6Uu0Z6dqKKAAClwPSiigBCBmlVR6UUUAGBuo2j0oooAFUHPFO2j0oooAYAC3Sh1A6CiimMMDIp2B6UUUhDSo9KTaPSiimMUKPSl2j0oooAXaPSjaPSiigA2j0pNo9KKKADaPSjaPSiikINo9KXaPSiigAwKMUUUALRmiigD//Z;" parent="2F2SBcUWsuzm-smWwCRw-23" vertex="1">
          <mxGeometry width="222.69" height="323" as="geometry" />
        </mxCell>
        <mxCell id="Zs0lDr_UA4FSCecoSCZW-745" value="Coach" style="strokeWidth=1;shadow=0;dashed=0;align=center;html=1;shape=mxgraph.mockup.text.textBox;align=left;fontSize=17;spacingLeft=4;spacingTop=-3;mainText=;" parent="2F2SBcUWsuzm-smWwCRw-23" vertex="1">
          <mxGeometry x="59.73999999999978" width="80" height="30" as="geometry" />
        </mxCell>
        <mxCell id="Zs0lDr_UA4FSCecoSCZW-649" value="" style="strokeWidth=1;shadow=0;dashed=0;align=center;html=1;shape=mxgraph.mockup.containers.browserWindow;rSize=0;strokeColor=#666666;strokeColor2=#008cff;strokeColor3=#c4c4c4;mainText=,;recursiveResize=0;" parent="1" vertex="1">
          <mxGeometry x="5660" y="14" width="623.2" height="800" as="geometry" />
        </mxCell>
        <mxCell id="Zs0lDr_UA4FSCecoSCZW-650" value="Confirmación ePayco" style="strokeWidth=1;shadow=0;dashed=0;align=center;html=1;shape=mxgraph.mockup.containers.anchor;fontSize=17;fontColor=#666666;align=left;" parent="Zs0lDr_UA4FSCecoSCZW-649" vertex="1">
          <mxGeometry x="60" y="12" width="110" height="26" as="geometry" />
        </mxCell>
        <mxCell id="Zs0lDr_UA4FSCecoSCZW-651" value="https://www.draw.io" style="strokeWidth=1;shadow=0;dashed=0;align=center;html=1;shape=mxgraph.mockup.containers.anchor;rSize=0;fontSize=17;fontColor=#666666;align=left;" parent="Zs0lDr_UA4FSCecoSCZW-649" vertex="1">
          <mxGeometry x="130" y="60" width="250" height="26" as="geometry" />
        </mxCell>
        <mxCell id="Zs0lDr_UA4FSCecoSCZW-652" value="" style="verticalLabelPosition=bottom;shadow=0;dashed=0;align=center;html=1;verticalAlign=top;strokeWidth=1;shape=mxgraph.mockup.markup.line;strokeColor=#999999;" parent="Zs0lDr_UA4FSCecoSCZW-649" vertex="1">
          <mxGeometry x="10" y="700" width="570" height="20" as="geometry" />
        </mxCell>
        <mxCell id="Zs0lDr_UA4FSCecoSCZW-653" value="Footer" style="shape=mxgraph.mockup.markup.scratchOut;shadow=0;dashed=0;html=1;strokeColor=#999999;strokeWidth=4;" parent="Zs0lDr_UA4FSCecoSCZW-649" vertex="1">
          <mxGeometry x="220" y="720" width="175" height="70" as="geometry" />
        </mxCell>
        <mxCell id="Zs0lDr_UA4FSCecoSCZW-654" value="Log Out" style="strokeColor=inherit;fillColor=inherit;gradientColor=inherit;strokeWidth=1;shadow=0;dashed=0;align=center;html=1;shape=mxgraph.mockup.forms.rrect;rSize=0;fontSize=17;fontColor=#666666;" parent="Zs0lDr_UA4FSCecoSCZW-649" vertex="1">
          <mxGeometry x="520" y="120" width="80" height="30" as="geometry" />
        </mxCell>
        <mxCell id="Zs0lDr_UA4FSCecoSCZW-655" value="Logo" style="verticalLabelPosition=bottom;shadow=0;dashed=0;align=center;html=1;verticalAlign=top;strokeWidth=1;shape=mxgraph.mockup.graphics.simpleIcon;strokeColor=#999999;" parent="Zs0lDr_UA4FSCecoSCZW-649" vertex="1">
          <mxGeometry x="10" y="120" width="60" height="30" as="geometry" />
        </mxCell>
        <mxCell id="Zs0lDr_UA4FSCecoSCZW-656" value="Nombre" style="strokeWidth=1;shadow=0;dashed=0;align=center;html=1;shape=mxgraph.mockup.text.textBox;fontColor=#666666;align=left;fontSize=17;spacingLeft=4;spacingTop=-3;strokeColor=#666666;mainText=" parent="Zs0lDr_UA4FSCecoSCZW-649" vertex="1">
          <mxGeometry x="413.75" y="120" width="100" height="30" as="geometry" />
        </mxCell>
        <mxCell id="2F2SBcUWsuzm-smWwCRw-1" value="" style="strokeColor=#999999;verticalLabelPosition=bottom;shadow=0;dashed=0;verticalAlign=top;strokeWidth=2;html=1;shape=mxgraph.mockup.misc.printIcon;" vertex="1" parent="Zs0lDr_UA4FSCecoSCZW-649">
          <mxGeometry x="550" y="176" width="50" height="50" as="geometry" />
        </mxCell>
        <mxCell id="2F2SBcUWsuzm-smWwCRw-5" value="Transacción exitosa" style="text;strokeColor=none;fillColor=none;html=1;fontSize=24;fontStyle=1;verticalAlign=middle;align=center;" vertex="1" parent="Zs0lDr_UA4FSCecoSCZW-649">
          <mxGeometry x="40" y="226" width="270" height="40" as="geometry" />
        </mxCell>
        <mxCell id="2F2SBcUWsuzm-smWwCRw-6" value="" style="shape=mxgraph.mockup.markup.scratchOut;shadow=0;dashed=0;html=1;strokeColor=#999999;strokeWidth=4;" vertex="1" parent="Zs0lDr_UA4FSCecoSCZW-649">
          <mxGeometry x="50" y="276" width="540" height="194" as="geometry" />
        </mxCell>
        <mxCell id="2F2SBcUWsuzm-smWwCRw-7" value="Regresar página principal" style="strokeWidth=1;shadow=0;dashed=0;align=center;html=1;shape=mxgraph.mockup.buttons.button;strokeColor=#666666;fontColor=#ffffff;mainText=;buttonStyle=round;fontSize=17;fontStyle=1;fillColor=#008cff;whiteSpace=wrap;" vertex="1" parent="Zs0lDr_UA4FSCecoSCZW-649">
          <mxGeometry x="110" y="506" width="150" height="50" as="geometry" />
        </mxCell>
        <mxCell id="2F2SBcUWsuzm-smWwCRw-8" value="Regresar a Mi Perfil" style="strokeWidth=1;shadow=0;dashed=0;align=center;html=1;shape=mxgraph.mockup.buttons.button;strokeColor=#666666;fontColor=#ffffff;mainText=;buttonStyle=round;fontSize=17;fontStyle=1;fillColor=#008cff;whiteSpace=wrap;" vertex="1" parent="Zs0lDr_UA4FSCecoSCZW-649">
          <mxGeometry x="350" y="506" width="150" height="50" as="geometry" />
        </mxCell>
        <mxCell id="Zs0lDr_UA4FSCecoSCZW-725" value="" style="strokeWidth=1;shadow=0;dashed=0;align=center;html=1;shape=mxgraph.mockup.containers.browserWindow;rSize=0;strokeColor=#666666;strokeColor2=#008cff;strokeColor3=#c4c4c4;mainText=,;recursiveResize=0;" parent="1" vertex="1">
          <mxGeometry x="6300" y="14" width="623.2" height="800" as="geometry" />
        </mxCell>
        <mxCell id="Zs0lDr_UA4FSCecoSCZW-726" value="Historial transacciones" style="strokeWidth=1;shadow=0;dashed=0;align=center;html=1;shape=mxgraph.mockup.containers.anchor;fontSize=17;fontColor=#666666;align=left;" parent="Zs0lDr_UA4FSCecoSCZW-725" vertex="1">
          <mxGeometry x="60" y="12" width="110" height="26" as="geometry" />
        </mxCell>
        <mxCell id="Zs0lDr_UA4FSCecoSCZW-727" value="https://www.draw.io" style="strokeWidth=1;shadow=0;dashed=0;align=center;html=1;shape=mxgraph.mockup.containers.anchor;rSize=0;fontSize=17;fontColor=#666666;align=left;" parent="Zs0lDr_UA4FSCecoSCZW-725" vertex="1">
          <mxGeometry x="130" y="60" width="250" height="26" as="geometry" />
        </mxCell>
        <mxCell id="Zs0lDr_UA4FSCecoSCZW-728" value="" style="verticalLabelPosition=bottom;shadow=0;dashed=0;align=center;html=1;verticalAlign=top;strokeWidth=1;shape=mxgraph.mockup.markup.line;strokeColor=#999999;" parent="Zs0lDr_UA4FSCecoSCZW-725" vertex="1">
          <mxGeometry x="10" y="700" width="570" height="20" as="geometry" />
        </mxCell>
        <mxCell id="Zs0lDr_UA4FSCecoSCZW-729" value="Footer" style="shape=mxgraph.mockup.markup.scratchOut;shadow=0;dashed=0;html=1;strokeColor=#999999;strokeWidth=4;" parent="Zs0lDr_UA4FSCecoSCZW-725" vertex="1">
          <mxGeometry x="220" y="720" width="175" height="70" as="geometry" />
        </mxCell>
        <mxCell id="Zs0lDr_UA4FSCecoSCZW-730" value="Log Out" style="strokeColor=inherit;fillColor=inherit;gradientColor=inherit;strokeWidth=1;shadow=0;dashed=0;align=center;html=1;shape=mxgraph.mockup.forms.rrect;rSize=0;fontSize=17;fontColor=#666666;" parent="Zs0lDr_UA4FSCecoSCZW-725" vertex="1">
          <mxGeometry x="520" y="120" width="80" height="30" as="geometry" />
        </mxCell>
        <mxCell id="Zs0lDr_UA4FSCecoSCZW-731" value="Logo" style="verticalLabelPosition=bottom;shadow=0;dashed=0;align=center;html=1;verticalAlign=top;strokeWidth=1;shape=mxgraph.mockup.graphics.simpleIcon;strokeColor=#999999;" parent="Zs0lDr_UA4FSCecoSCZW-725" vertex="1">
          <mxGeometry x="10" y="120" width="60" height="30" as="geometry" />
        </mxCell>
        <mxCell id="Zs0lDr_UA4FSCecoSCZW-732" value="Nombre" style="strokeWidth=1;shadow=0;dashed=0;align=center;html=1;shape=mxgraph.mockup.text.textBox;fontColor=#666666;align=left;fontSize=17;spacingLeft=4;spacingTop=-3;strokeColor=#666666;mainText=" parent="Zs0lDr_UA4FSCecoSCZW-725" vertex="1">
          <mxGeometry x="413.75" y="120" width="100" height="30" as="geometry" />
        </mxCell>
        <mxCell id="2F2SBcUWsuzm-smWwCRw-21" value="Regresar a Mi Perfil" style="strokeWidth=1;shadow=0;dashed=0;align=center;html=1;shape=mxgraph.mockup.buttons.button;strokeColor=#666666;fontColor=#ffffff;mainText=;buttonStyle=round;fontSize=17;fontStyle=1;fillColor=#008cff;whiteSpace=wrap;" vertex="1" parent="Zs0lDr_UA4FSCecoSCZW-725">
          <mxGeometry x="245" y="486" width="150" height="50" as="geometry" />
        </mxCell>
        <mxCell id="2F2SBcUWsuzm-smWwCRw-15" value="" style="strokeWidth=1;shadow=0;dashed=0;align=center;html=1;shape=mxgraph.mockup.forms.rrect;rSize=0;strokeColor=#999999;fillColor=#ffffff;" vertex="1" parent="Zs0lDr_UA4FSCecoSCZW-725">
          <mxGeometry x="45" y="226" width="550" height="200" as="geometry" />
        </mxCell>
        <mxCell id="2F2SBcUWsuzm-smWwCRw-16" value="Historia Transacción" style="strokeWidth=1;shadow=0;dashed=0;align=center;html=1;shape=mxgraph.mockup.forms.rrect;rSize=0;strokeColor=#999999;fontColor=#008cff;fontSize=17;fillColor=#ffffff;resizeWidth=1;" vertex="1" parent="2F2SBcUWsuzm-smWwCRw-15">
          <mxGeometry width="550" height="30" relative="1" as="geometry" />
        </mxCell>
        <mxCell id="2F2SBcUWsuzm-smWwCRw-17" value="Item 1" style="strokeWidth=1;shadow=0;dashed=0;align=center;html=1;shape=mxgraph.mockup.forms.anchor;fontSize=17;fontColor=#666666;align=left;spacingLeft=5;resizeWidth=1;" vertex="1" parent="2F2SBcUWsuzm-smWwCRw-15">
          <mxGeometry width="550" height="20" relative="1" as="geometry">
            <mxPoint y="30" as="offset" />
          </mxGeometry>
        </mxCell>
        <mxCell id="2F2SBcUWsuzm-smWwCRw-18" value="Item 2" style="strokeWidth=1;shadow=0;dashed=0;align=center;html=1;shape=mxgraph.mockup.forms.anchor;fontSize=17;fontColor=#666666;align=left;spacingLeft=5;resizeWidth=1;" vertex="1" parent="2F2SBcUWsuzm-smWwCRw-15">
          <mxGeometry width="550" height="20" relative="1" as="geometry">
            <mxPoint y="50" as="offset" />
          </mxGeometry>
        </mxCell>
        <mxCell id="2F2SBcUWsuzm-smWwCRw-19" value="Item 3" style="strokeWidth=1;shadow=0;dashed=0;align=center;html=1;shape=mxgraph.mockup.forms.rrect;rSize=0;fontSize=17;fontColor=#666666;align=left;spacingLeft=5;fillColor=#ddeeff;strokeColor=none;resizeWidth=1;" vertex="1" parent="2F2SBcUWsuzm-smWwCRw-15">
          <mxGeometry width="550" height="20" relative="1" as="geometry">
            <mxPoint y="70" as="offset" />
          </mxGeometry>
        </mxCell>
        <mxCell id="2F2SBcUWsuzm-smWwCRw-20" value="Item 4" style="strokeWidth=1;shadow=0;dashed=0;align=center;html=1;shape=mxgraph.mockup.forms.anchor;fontSize=17;fontColor=#666666;align=left;spacingLeft=5;resizeWidth=1;" vertex="1" parent="2F2SBcUWsuzm-smWwCRw-15">
          <mxGeometry width="550" height="20" relative="1" as="geometry">
            <mxPoint y="90" as="offset" />
          </mxGeometry>
        </mxCell>
        <mxCell id="2F2SBcUWsuzm-smWwCRw-24" value="" style="strokeWidth=1;shadow=0;dashed=0;align=center;html=1;shape=mxgraph.mockup.containers.browserWindow;rSize=0;strokeColor=#666666;strokeColor2=#008cff;strokeColor3=#c4c4c4;mainText=,;recursiveResize=0;" vertex="1" parent="1">
          <mxGeometry x="650" y="830" width="608" height="460" as="geometry" />
        </mxCell>
        <mxCell id="2F2SBcUWsuzm-smWwCRw-25" value="Reset Password" style="strokeWidth=1;shadow=0;dashed=0;align=center;html=1;shape=mxgraph.mockup.containers.anchor;fontSize=17;fontColor=#666666;align=left;" vertex="1" parent="2F2SBcUWsuzm-smWwCRw-24">
          <mxGeometry x="60" y="12" width="110" height="26" as="geometry" />
        </mxCell>
        <mxCell id="2F2SBcUWsuzm-smWwCRw-26" value="https://www.draw.io" style="strokeWidth=1;shadow=0;dashed=0;align=center;html=1;shape=mxgraph.mockup.containers.anchor;rSize=0;fontSize=17;fontColor=#666666;align=left;" vertex="1" parent="2F2SBcUWsuzm-smWwCRw-24">
          <mxGeometry x="130" y="60" width="250" height="26" as="geometry" />
        </mxCell>
        <mxCell id="2F2SBcUWsuzm-smWwCRw-27" value="" style="verticalLabelPosition=bottom;shadow=0;dashed=0;align=center;html=1;verticalAlign=top;strokeWidth=1;shape=mxgraph.mockup.markup.line;strokeColor=#999999;" vertex="1" parent="2F2SBcUWsuzm-smWwCRw-24">
          <mxGeometry x="10" y="360" width="570" height="20" as="geometry" />
        </mxCell>
        <mxCell id="2F2SBcUWsuzm-smWwCRw-28" value="Footer" style="shape=mxgraph.mockup.markup.scratchOut;shadow=0;dashed=0;html=1;strokeColor=#999999;strokeWidth=4;" vertex="1" parent="2F2SBcUWsuzm-smWwCRw-24">
          <mxGeometry x="220" y="380" width="175" height="70" as="geometry" />
        </mxCell>
        <mxCell id="2F2SBcUWsuzm-smWwCRw-29" value="Inicio" style="strokeColor=inherit;fillColor=inherit;gradientColor=inherit;strokeWidth=1;shadow=0;dashed=0;align=center;html=1;shape=mxgraph.mockup.forms.rrect;rSize=0;fontSize=17;fontColor=#666666;" vertex="1" parent="2F2SBcUWsuzm-smWwCRw-24">
          <mxGeometry x="546.6700000000001" y="120" width="53.333333333333336" height="30" as="geometry" />
        </mxCell>
        <mxCell id="2F2SBcUWsuzm-smWwCRw-86" value="correo" style="strokeWidth=1;shadow=0;dashed=0;align=center;html=1;shape=mxgraph.mockup.text.textBox;fontColor=#666666;align=left;fontSize=17;spacingLeft=4;spacingTop=-3;strokeColor=#666666;mainText=" vertex="1" parent="2F2SBcUWsuzm-smWwCRw-24">
          <mxGeometry x="229" y="240" width="150" height="30" as="geometry" />
        </mxCell>
        <mxCell id="2F2SBcUWsuzm-smWwCRw-87" value="Reset password" style="strokeWidth=1;shadow=0;dashed=0;align=center;html=1;shape=mxgraph.mockup.buttons.button;strokeColor=#666666;fontColor=#ffffff;mainText=;buttonStyle=round;fontSize=17;fontStyle=1;fillColor=#008cff;whiteSpace=wrap;" vertex="1" parent="2F2SBcUWsuzm-smWwCRw-24">
          <mxGeometry x="230" y="290" width="150" height="50" as="geometry" />
        </mxCell>
        <mxCell id="2F2SBcUWsuzm-smWwCRw-43" value="" style="strokeWidth=1;shadow=0;dashed=0;align=center;html=1;shape=mxgraph.mockup.containers.browserWindow;rSize=0;strokeColor=#666666;strokeColor2=#008cff;strokeColor3=#c4c4c4;mainText=,;recursiveResize=0;" vertex="1" parent="1">
          <mxGeometry x="1890" y="854" width="608" height="800" as="geometry" />
        </mxCell>
        <mxCell id="2F2SBcUWsuzm-smWwCRw-44" value="Upload Files" style="strokeWidth=1;shadow=0;dashed=0;align=center;html=1;shape=mxgraph.mockup.containers.anchor;fontSize=17;fontColor=#666666;align=left;" vertex="1" parent="2F2SBcUWsuzm-smWwCRw-43">
          <mxGeometry x="60" y="12" width="110" height="26" as="geometry" />
        </mxCell>
        <mxCell id="2F2SBcUWsuzm-smWwCRw-45" value="https://www.draw.io" style="strokeWidth=1;shadow=0;dashed=0;align=center;html=1;shape=mxgraph.mockup.containers.anchor;rSize=0;fontSize=17;fontColor=#666666;align=left;" vertex="1" parent="2F2SBcUWsuzm-smWwCRw-43">
          <mxGeometry x="130" y="60" width="250" height="26" as="geometry" />
        </mxCell>
        <mxCell id="2F2SBcUWsuzm-smWwCRw-46" value="" style="verticalLabelPosition=bottom;shadow=0;dashed=0;align=center;html=1;verticalAlign=top;strokeWidth=1;shape=mxgraph.mockup.markup.line;strokeColor=#999999;" vertex="1" parent="2F2SBcUWsuzm-smWwCRw-43">
          <mxGeometry x="10" y="700" width="570" height="20" as="geometry" />
        </mxCell>
        <mxCell id="2F2SBcUWsuzm-smWwCRw-47" value="Footer" style="shape=mxgraph.mockup.markup.scratchOut;shadow=0;dashed=0;html=1;strokeColor=#999999;strokeWidth=4;" vertex="1" parent="2F2SBcUWsuzm-smWwCRw-43">
          <mxGeometry x="220" y="720" width="175" height="70" as="geometry" />
        </mxCell>
        <mxCell id="2F2SBcUWsuzm-smWwCRw-48" value="Log Out" style="strokeColor=inherit;fillColor=inherit;gradientColor=inherit;strokeWidth=1;shadow=0;dashed=0;align=center;html=1;shape=mxgraph.mockup.forms.rrect;rSize=0;fontSize=17;fontColor=#666666;" vertex="1" parent="2F2SBcUWsuzm-smWwCRw-43">
          <mxGeometry x="520" y="120" width="80" height="30" as="geometry" />
        </mxCell>
        <mxCell id="2F2SBcUWsuzm-smWwCRw-49" value="Logo" style="verticalLabelPosition=bottom;shadow=0;dashed=0;align=center;html=1;verticalAlign=top;strokeWidth=1;shape=mxgraph.mockup.graphics.simpleIcon;strokeColor=#999999;" vertex="1" parent="2F2SBcUWsuzm-smWwCRw-43">
          <mxGeometry x="10" y="120" width="60" height="30" as="geometry" />
        </mxCell>
        <mxCell id="2F2SBcUWsuzm-smWwCRw-50" value="" style="verticalLabelPosition=bottom;shadow=0;dashed=0;align=center;html=1;verticalAlign=top;strokeWidth=1;shape=mxgraph.mockup.containers.userMale;strokeColor=#666666;strokeColor2=#008cff;" vertex="1" parent="2F2SBcUWsuzm-smWwCRw-43">
          <mxGeometry x="20" y="200" width="100" height="100" as="geometry" />
        </mxCell>
        <mxCell id="2F2SBcUWsuzm-smWwCRw-51" value="Nombre" style="strokeWidth=1;shadow=0;dashed=0;align=center;html=1;shape=mxgraph.mockup.text.textBox;fontColor=#666666;align=left;fontSize=17;spacingLeft=4;spacingTop=-3;strokeColor=#666666;mainText=" vertex="1" parent="2F2SBcUWsuzm-smWwCRw-43">
          <mxGeometry x="20" y="320" width="100" height="30" as="geometry" />
        </mxCell>
        <mxCell id="2F2SBcUWsuzm-smWwCRw-52" value="Descripción" style="strokeWidth=1;shadow=0;dashed=0;align=center;html=1;shape=mxgraph.mockup.text.textBox;fontColor=#666666;align=left;fontSize=17;spacingLeft=4;spacingTop=-3;strokeColor=#666666;mainText=" vertex="1" parent="2F2SBcUWsuzm-smWwCRw-43">
          <mxGeometry x="140" y="200" width="430" height="150" as="geometry" />
        </mxCell>
        <mxCell id="2F2SBcUWsuzm-smWwCRw-53" value="Especialidades" style="strokeWidth=1;shadow=0;dashed=0;align=center;html=1;shape=mxgraph.mockup.text.textBox;fontColor=#666666;align=left;fontSize=17;spacingLeft=4;spacingTop=-3;strokeColor=#666666;mainText=" vertex="1" parent="2F2SBcUWsuzm-smWwCRw-43">
          <mxGeometry x="40" y="366" width="150" height="30" as="geometry" />
        </mxCell>
        <mxCell id="2F2SBcUWsuzm-smWwCRw-54" value="Años de experiencia" style="strokeWidth=1;shadow=0;dashed=0;align=center;html=1;shape=mxgraph.mockup.text.textBox;fontColor=#666666;align=left;fontSize=17;spacingLeft=4;spacingTop=-3;strokeColor=#666666;mainText=" vertex="1" parent="2F2SBcUWsuzm-smWwCRw-43">
          <mxGeometry x="229" y="366" width="171" height="30" as="geometry" />
        </mxCell>
        <mxCell id="2F2SBcUWsuzm-smWwCRw-55" value="Disciplinas" style="strokeWidth=1;shadow=0;dashed=0;align=center;html=1;shape=mxgraph.mockup.text.textBox;fontColor=#666666;align=left;fontSize=17;spacingLeft=4;spacingTop=-3;strokeColor=#666666;mainText=" vertex="1" parent="2F2SBcUWsuzm-smWwCRw-43">
          <mxGeometry x="420" y="366" width="150" height="30" as="geometry" />
        </mxCell>
        <mxCell id="2F2SBcUWsuzm-smWwCRw-56" value="" style="strokeWidth=1;shadow=0;dashed=0;align=center;html=1;shape=mxgraph.mockup.forms.rrect;rSize=0;strokeColor=#999999;fillColor=#ffffff;recursiveResize=0;" vertex="1" parent="2F2SBcUWsuzm-smWwCRw-43">
          <mxGeometry x="420" y="402" width="150" height="120" as="geometry" />
        </mxCell>
        <mxCell id="2F2SBcUWsuzm-smWwCRw-57" value="Option 1" style="strokeWidth=1;shadow=0;dashed=0;align=center;html=1;shape=mxgraph.mockup.forms.rrect;rSize=0;fillColor=#eeeeee;strokeColor=#999999;gradientColor=#cccccc;align=left;spacingLeft=4;fontSize=17;fontColor=#666666;labelPosition=right;" vertex="1" parent="2F2SBcUWsuzm-smWwCRw-56">
          <mxGeometry x="8" y="7.5" width="15" height="15" as="geometry" />
        </mxCell>
        <mxCell id="2F2SBcUWsuzm-smWwCRw-58" value="Option 2" style="strokeWidth=1;shadow=0;dashed=0;align=center;html=1;shape=mxgraph.mockup.forms.rrect;rSize=0;fillColor=#eeeeee;strokeColor=#999999;gradientColor=#cccccc;align=left;spacingLeft=4;fontSize=17;fontColor=#666666;labelPosition=right;" vertex="1" parent="2F2SBcUWsuzm-smWwCRw-56">
          <mxGeometry x="8" y="37.5" width="15" height="15" as="geometry" />
        </mxCell>
        <mxCell id="2F2SBcUWsuzm-smWwCRw-59" value="Option 3" style="strokeWidth=1;shadow=0;dashed=0;align=center;html=1;shape=mxgraph.mockup.forms.checkbox;rSize=0;resizable=0;fillColor=#aaaaaa;strokeColor=#444444;gradientColor=#666666;align=left;spacingLeft=4;fontSize=17;fontColor=#008cff;labelPosition=right;" vertex="1" parent="2F2SBcUWsuzm-smWwCRw-56">
          <mxGeometry x="8" y="67.5" width="15" height="15" as="geometry" />
        </mxCell>
        <mxCell id="2F2SBcUWsuzm-smWwCRw-60" value="Option 4" style="strokeWidth=1;shadow=0;dashed=0;align=center;html=1;shape=mxgraph.mockup.forms.rrect;rSize=0;fillColor=#eeeeee;strokeColor=#999999;gradientColor=#cccccc;align=left;spacingLeft=4;fontSize=17;fontColor=#666666;labelPosition=right;" vertex="1" parent="2F2SBcUWsuzm-smWwCRw-56">
          <mxGeometry x="8" y="97.5" width="15" height="15" as="geometry" />
        </mxCell>
        <mxCell id="2F2SBcUWsuzm-smWwCRw-61" value="" style="strokeWidth=1;shadow=0;dashed=0;align=center;html=1;shape=mxgraph.mockup.forms.rrect;rSize=0;strokeColor=#999999;fillColor=#ffffff;recursiveResize=0;" vertex="1" parent="2F2SBcUWsuzm-smWwCRw-43">
          <mxGeometry x="40" y="402" width="150" height="120" as="geometry" />
        </mxCell>
        <mxCell id="2F2SBcUWsuzm-smWwCRw-62" value="Option 1" style="strokeWidth=1;shadow=0;dashed=0;align=center;html=1;shape=mxgraph.mockup.forms.rrect;rSize=0;fillColor=#eeeeee;strokeColor=#999999;gradientColor=#cccccc;align=left;spacingLeft=4;fontSize=17;fontColor=#666666;labelPosition=right;" vertex="1" parent="2F2SBcUWsuzm-smWwCRw-61">
          <mxGeometry x="8" y="7.5" width="15" height="15" as="geometry" />
        </mxCell>
        <mxCell id="2F2SBcUWsuzm-smWwCRw-63" value="Option 2" style="strokeWidth=1;shadow=0;dashed=0;align=center;html=1;shape=mxgraph.mockup.forms.rrect;rSize=0;fillColor=#eeeeee;strokeColor=#999999;gradientColor=#cccccc;align=left;spacingLeft=4;fontSize=17;fontColor=#666666;labelPosition=right;" vertex="1" parent="2F2SBcUWsuzm-smWwCRw-61">
          <mxGeometry x="8" y="37.5" width="15" height="15" as="geometry" />
        </mxCell>
        <mxCell id="2F2SBcUWsuzm-smWwCRw-64" value="Option 3" style="strokeWidth=1;shadow=0;dashed=0;align=center;html=1;shape=mxgraph.mockup.forms.checkbox;rSize=0;resizable=0;fillColor=#aaaaaa;strokeColor=#444444;gradientColor=#666666;align=left;spacingLeft=4;fontSize=17;fontColor=#008cff;labelPosition=right;" vertex="1" parent="2F2SBcUWsuzm-smWwCRw-61">
          <mxGeometry x="8" y="67.5" width="15" height="15" as="geometry" />
        </mxCell>
        <mxCell id="2F2SBcUWsuzm-smWwCRw-65" value="Option 4" style="strokeWidth=1;shadow=0;dashed=0;align=center;html=1;shape=mxgraph.mockup.forms.rrect;rSize=0;fillColor=#eeeeee;strokeColor=#999999;gradientColor=#cccccc;align=left;spacingLeft=4;fontSize=17;fontColor=#666666;labelPosition=right;" vertex="1" parent="2F2SBcUWsuzm-smWwCRw-61">
          <mxGeometry x="8" y="97.5" width="15" height="15" as="geometry" />
        </mxCell>
        <mxCell id="2F2SBcUWsuzm-smWwCRw-66" value="Subir archivos" style="strokeWidth=1;shadow=0;dashed=0;align=center;html=1;shape=mxgraph.mockup.buttons.button;strokeColor=#666666;fontColor=#ffffff;mainText=;buttonStyle=round;fontSize=17;fontStyle=1;fillColor=#008cff;whiteSpace=wrap;" vertex="1" parent="2F2SBcUWsuzm-smWwCRw-43">
          <mxGeometry x="240" y="522" width="140" height="20" as="geometry" />
        </mxCell>
        <mxCell id="2F2SBcUWsuzm-smWwCRw-67" value="" style="verticalLabelPosition=bottom;shadow=0;dashed=0;align=center;html=1;verticalAlign=top;strokeWidth=1;shape=mxgraph.mockup.containers.videoPlayer;strokeColor=#666666;strokeColor2=#008cff;strokeColor3=#c4c4c4;textColor=#666666;fillColor2=#008cff;barHeight=30;barPos=20;" vertex="1" parent="2F2SBcUWsuzm-smWwCRw-43">
          <mxGeometry x="40" y="550" width="162.5" height="90" as="geometry" />
        </mxCell>
        <mxCell id="2F2SBcUWsuzm-smWwCRw-68" value="" style="shape=mxgraph.mockup.markup.scratchOut;shadow=0;dashed=0;html=1;strokeColor=#d6b656;strokeWidth=4;fillColor=#fff2cc;" vertex="1" parent="2F2SBcUWsuzm-smWwCRw-43">
          <mxGeometry x="40" y="650" width="160" height="50" as="geometry" />
        </mxCell>
        <mxCell id="2F2SBcUWsuzm-smWwCRw-69" value="" style="verticalLabelPosition=bottom;shadow=0;dashed=0;align=center;html=1;verticalAlign=top;strokeWidth=1;shape=mxgraph.mockup.containers.videoPlayer;strokeColor=#666666;strokeColor2=#008cff;strokeColor3=#c4c4c4;textColor=#666666;fillColor2=#008cff;barHeight=30;barPos=20;" vertex="1" parent="2F2SBcUWsuzm-smWwCRw-43">
          <mxGeometry x="226.25" y="550" width="162.5" height="90" as="geometry" />
        </mxCell>
        <mxCell id="2F2SBcUWsuzm-smWwCRw-70" value="" style="shape=mxgraph.mockup.markup.scratchOut;shadow=0;dashed=0;html=1;strokeColor=#d6b656;strokeWidth=4;fillColor=#fff2cc;" vertex="1" parent="2F2SBcUWsuzm-smWwCRw-43">
          <mxGeometry x="226.25" y="650" width="160" height="50" as="geometry" />
        </mxCell>
        <mxCell id="2F2SBcUWsuzm-smWwCRw-71" value="" style="verticalLabelPosition=bottom;shadow=0;dashed=0;align=center;html=1;verticalAlign=top;strokeWidth=1;shape=mxgraph.mockup.containers.videoPlayer;strokeColor=#666666;strokeColor2=#008cff;strokeColor3=#c4c4c4;textColor=#666666;fillColor2=#008cff;barHeight=30;barPos=20;" vertex="1" parent="2F2SBcUWsuzm-smWwCRw-43">
          <mxGeometry x="413.75" y="550" width="162.5" height="90" as="geometry" />
        </mxCell>
        <mxCell id="2F2SBcUWsuzm-smWwCRw-72" value="" style="shape=mxgraph.mockup.markup.scratchOut;shadow=0;dashed=0;html=1;strokeColor=#d6b656;strokeWidth=4;fillColor=#fff2cc;" vertex="1" parent="2F2SBcUWsuzm-smWwCRw-43">
          <mxGeometry x="413.75" y="650" width="160" height="50" as="geometry" />
        </mxCell>
        <mxCell id="2F2SBcUWsuzm-smWwCRw-73" value="Ver agenda" style="strokeWidth=1;shadow=0;dashed=0;align=center;html=1;shape=mxgraph.mockup.buttons.button;strokeColor=#666666;fontColor=#ffffff;mainText=;buttonStyle=round;fontSize=17;fontStyle=1;fillColor=#008cff;whiteSpace=wrap;" vertex="1" parent="2F2SBcUWsuzm-smWwCRw-43">
          <mxGeometry x="418.75" y="170" width="150" height="30" as="geometry" />
        </mxCell>
        <mxCell id="2F2SBcUWsuzm-smWwCRw-74" value="Precio de la cita" style="strokeWidth=1;shadow=0;dashed=0;align=center;html=1;shape=mxgraph.mockup.text.textBox;fontColor=#666666;align=left;fontSize=17;spacingLeft=4;spacingTop=-3;strokeColor=#666666;mainText=" vertex="1" parent="2F2SBcUWsuzm-smWwCRw-43">
          <mxGeometry x="229" y="400" width="171" height="30" as="geometry" />
        </mxCell>
        <mxCell id="2F2SBcUWsuzm-smWwCRw-75" value="" style="shape=image;html=1;verticalAlign=top;verticalLabelPosition=bottom;labelBackgroundColor=#ffffff;imageAspect=0;aspect=fixed;image=https://cdn2.iconfinder.com/data/icons/social-media-applications/64/social_media_applications_3-instagram-128.png;fillColor=none;fontColor=#FFFFFF;" vertex="1" parent="2F2SBcUWsuzm-smWwCRw-43">
          <mxGeometry x="229" y="480" width="30" height="30" as="geometry" />
        </mxCell>
        <mxCell id="2F2SBcUWsuzm-smWwCRw-76" value="" style="shape=image;html=1;verticalAlign=top;verticalLabelPosition=bottom;labelBackgroundColor=#ffffff;imageAspect=0;aspect=fixed;image=https://cdn4.iconfinder.com/data/icons/social-media-logos-6/512/83-facebook-128.png;fillColor=none;fontColor=#FFFFFF;" vertex="1" parent="2F2SBcUWsuzm-smWwCRw-43">
          <mxGeometry x="229" y="440" width="30" height="30" as="geometry" />
        </mxCell>
        <mxCell id="2F2SBcUWsuzm-smWwCRw-77" value="Link" style="strokeWidth=1;shadow=0;dashed=0;align=center;html=1;shape=mxgraph.mockup.text.textBox;fontColor=#666666;align=left;fontSize=17;spacingLeft=4;spacingTop=-3;strokeColor=#666666;mainText=" vertex="1" parent="2F2SBcUWsuzm-smWwCRw-43">
          <mxGeometry x="269.5" y="440" width="130.5" height="30" as="geometry" />
        </mxCell>
        <mxCell id="2F2SBcUWsuzm-smWwCRw-78" value="Link" style="strokeWidth=1;shadow=0;dashed=0;align=center;html=1;shape=mxgraph.mockup.text.textBox;fontColor=#666666;align=left;fontSize=17;spacingLeft=4;spacingTop=-3;strokeColor=#666666;mainText=" vertex="1" parent="2F2SBcUWsuzm-smWwCRw-43">
          <mxGeometry x="269.5" y="480" width="130.5" height="30" as="geometry" />
        </mxCell>
        <mxCell id="2F2SBcUWsuzm-smWwCRw-79" value="Ver transacciones" style="strokeWidth=1;shadow=0;dashed=0;align=center;html=1;shape=mxgraph.mockup.buttons.button;strokeColor=#666666;fontColor=#ffffff;mainText=;buttonStyle=round;fontSize=17;fontStyle=1;fillColor=#008cff;whiteSpace=wrap;" vertex="1" parent="2F2SBcUWsuzm-smWwCRw-43">
          <mxGeometry x="259.75" y="170" width="150" height="30" as="geometry" />
        </mxCell>
        <mxCell id="2F2SBcUWsuzm-smWwCRw-80" value="Window Title" style="strokeWidth=1;shadow=0;dashed=0;align=center;html=1;shape=mxgraph.mockup.containers.window;align=left;verticalAlign=top;spacingLeft=8;strokeColor2=#008cff;strokeColor3=#c4c4c4;fontColor=#666666;mainText=;fontSize=17;labelBackgroundColor=none;" vertex="1" parent="2F2SBcUWsuzm-smWwCRw-43">
          <mxGeometry x="31.25" y="216" width="550" height="380" as="geometry" />
        </mxCell>
        <mxCell id="2F2SBcUWsuzm-smWwCRw-82" value="Upload" style="strokeWidth=1;shadow=0;dashed=0;align=center;html=1;shape=mxgraph.mockup.buttons.button;strokeColor=#666666;fontColor=#ffffff;mainText=;buttonStyle=round;fontSize=17;fontStyle=1;fillColor=#008cff;whiteSpace=wrap;" vertex="1" parent="2F2SBcUWsuzm-smWwCRw-43">
          <mxGeometry x="226.25" y="526" width="150" height="50" as="geometry" />
        </mxCell>
        <mxCell id="2F2SBcUWsuzm-smWwCRw-83" value="Search" style="strokeWidth=1;shadow=0;dashed=0;align=center;html=1;shape=mxgraph.mockup.forms.searchBox;strokeColor=#999999;mainText=;strokeColor2=#008cff;fontColor=#666666;fontSize=17;align=left;spacingLeft=3;" vertex="1" parent="2F2SBcUWsuzm-smWwCRw-43">
          <mxGeometry x="60" y="270" width="150" height="30" as="geometry" />
        </mxCell>
        <mxCell id="2F2SBcUWsuzm-smWwCRw-84" value="" style="shape=mxgraph.mockup.containers.marginRect;rectMarginTop=10;strokeColor=#666666;strokeWidth=1;dashed=0;rounded=1;arcSize=5;recursiveResize=0;" vertex="1" parent="2F2SBcUWsuzm-smWwCRw-43">
          <mxGeometry x="71.25" y="330" width="470" height="180" as="geometry" />
        </mxCell>
        <mxCell id="2F2SBcUWsuzm-smWwCRw-85" value="Archivos a subir" style="shape=rect;strokeColor=none;fillColor=#008cff;strokeWidth=1;dashed=0;rounded=1;arcSize=20;fontColor=#ffffff;fontSize=17;spacing=2;spacingTop=-2;align=left;autosize=1;spacingLeft=4;resizeWidth=0;resizeHeight=0;perimeter=none;" vertex="1" parent="2F2SBcUWsuzm-smWwCRw-84">
          <mxGeometry x="5" width="140" height="30" as="geometry" />
        </mxCell>
        <mxCell id="2F2SBcUWsuzm-smWwCRw-88" value="" style="strokeWidth=1;shadow=0;dashed=0;align=center;html=1;shape=mxgraph.mockup.containers.browserWindow;rSize=0;strokeColor=#666666;strokeColor2=#008cff;strokeColor3=#c4c4c4;mainText=,;recursiveResize=0;" vertex="1" parent="1">
          <mxGeometry x="650" y="1300" width="608" height="460" as="geometry" />
        </mxCell>
        <mxCell id="2F2SBcUWsuzm-smWwCRw-89" value="Reset Password" style="strokeWidth=1;shadow=0;dashed=0;align=center;html=1;shape=mxgraph.mockup.containers.anchor;fontSize=17;fontColor=#666666;align=left;" vertex="1" parent="2F2SBcUWsuzm-smWwCRw-88">
          <mxGeometry x="60" y="12" width="110" height="26" as="geometry" />
        </mxCell>
        <mxCell id="2F2SBcUWsuzm-smWwCRw-90" value="https://www.draw.io" style="strokeWidth=1;shadow=0;dashed=0;align=center;html=1;shape=mxgraph.mockup.containers.anchor;rSize=0;fontSize=17;fontColor=#666666;align=left;" vertex="1" parent="2F2SBcUWsuzm-smWwCRw-88">
          <mxGeometry x="130" y="60" width="250" height="26" as="geometry" />
        </mxCell>
        <mxCell id="2F2SBcUWsuzm-smWwCRw-91" value="" style="verticalLabelPosition=bottom;shadow=0;dashed=0;align=center;html=1;verticalAlign=top;strokeWidth=1;shape=mxgraph.mockup.markup.line;strokeColor=#999999;" vertex="1" parent="2F2SBcUWsuzm-smWwCRw-88">
          <mxGeometry x="10" y="360" width="570" height="20" as="geometry" />
        </mxCell>
        <mxCell id="2F2SBcUWsuzm-smWwCRw-92" value="Footer" style="shape=mxgraph.mockup.markup.scratchOut;shadow=0;dashed=0;html=1;strokeColor=#999999;strokeWidth=4;" vertex="1" parent="2F2SBcUWsuzm-smWwCRw-88">
          <mxGeometry x="220" y="380" width="175" height="70" as="geometry" />
        </mxCell>
        <mxCell id="2F2SBcUWsuzm-smWwCRw-93" value="Inicio" style="strokeColor=inherit;fillColor=inherit;gradientColor=inherit;strokeWidth=1;shadow=0;dashed=0;align=center;html=1;shape=mxgraph.mockup.forms.rrect;rSize=0;fontSize=17;fontColor=#666666;" vertex="1" parent="2F2SBcUWsuzm-smWwCRw-88">
          <mxGeometry x="546.6700000000001" y="120" width="53.333333333333336" height="30" as="geometry" />
        </mxCell>
        <mxCell id="2F2SBcUWsuzm-smWwCRw-94" value="Nueva Contraseña" style="strokeWidth=1;shadow=0;dashed=0;align=center;html=1;shape=mxgraph.mockup.text.textBox;fontColor=#666666;align=left;fontSize=17;spacingLeft=4;spacingTop=-3;strokeColor=#666666;mainText=" vertex="1" parent="2F2SBcUWsuzm-smWwCRw-88">
          <mxGeometry x="229" y="180" width="150" height="30" as="geometry" />
        </mxCell>
        <mxCell id="2F2SBcUWsuzm-smWwCRw-95" value="Reset password" style="strokeWidth=1;shadow=0;dashed=0;align=center;html=1;shape=mxgraph.mockup.buttons.button;strokeColor=#666666;fontColor=#ffffff;mainText=;buttonStyle=round;fontSize=17;fontStyle=1;fillColor=#008cff;whiteSpace=wrap;" vertex="1" parent="2F2SBcUWsuzm-smWwCRw-88">
          <mxGeometry x="230" y="290" width="150" height="50" as="geometry" />
        </mxCell>
        <mxCell id="2F2SBcUWsuzm-smWwCRw-96" value="Confirmar Contraseña" style="strokeWidth=1;shadow=0;dashed=0;align=center;html=1;shape=mxgraph.mockup.text.textBox;fontColor=#666666;align=left;fontSize=17;spacingLeft=4;spacingTop=-3;strokeColor=#666666;mainText=" vertex="1" parent="2F2SBcUWsuzm-smWwCRw-88">
          <mxGeometry x="229" y="220" width="150" height="30" as="geometry" />
        </mxCell>
      </root>
    </mxGraphModel>
  </diagram>
</mxfile>
